<?xml version="1.0"?>
<svg xmlns="http://www.w3.org/2000/svg" width="500" height="420" version="1.0" id="ezcGraph"><defs/><g id="ezcGraphChart" color-rendering="optimizeQuality" shape-rendering="geometricPrecision" text-rendering="optimizeLegibility"><path d=" M 0.0000,420.0000 L 0.0000,0.0000 L 500.0000,0.0000 L 500.0000,420.0000 L 0.0000,420.0000 z " style="fill: #eeeeec; fill-opacity: 1.00; stroke: none;" id="ezcGraphPolygon_1"/><path d=" M 0.0000,42.0000 L 0.0000,0.0000 L 500.0000,0.0000 L 500.0000,42.0000 L 0.0000,42.0000 z " style="fill: #000000; fill-opacity: 0.00; stroke: none;" id="ezcGraphPolygon_2"/><path d=" M 0.0000,420.0000 L 0.0000,42.0000 L 100.0000,42.0000 L 100.0000,420.0000 L 0.0000,420.0000 z " style="fill: #000000; fill-opacity: 0.00; stroke: none;" id="ezcGraphPolygon_4"/><path d=" M 2.0000,58.0000 L 2.0000,44.0000 L 16.0000,44.0000 L 16.0000,58.0000 L 2.0000,58.0000 z " style="fill: #3465a4; fill-opacity: 1.00; stroke: none; cursor: pointer;" id="ezcGraphPolygon_5" onclick="top.location = 'https://bsd-hardware.info/?view=computers&amp;f=cpu_model&amp;v=QEMU+pc-q35-6.1&amp;p=99'"/><path d=" M 2.0000,76.0000 L 2.0000,62.0000 L 16.0000,62.0000 L 16.0000,76.0000 L 2.0000,76.0000 z " style="fill: #4e9a06; fill-opacity: 1.00; stroke: none; cursor: pointer;" id="ezcGraphPolygon_7" onclick="top.location = 'https://bsd-hardware.info/?view=computers&amp;f=cpu_model&amp;v=QEMU+pc-i440fx-6.1&amp;p=99'"/><path d=" M 2.0000,94.0000 L 2.0000,80.0000 L 16.0000,80.0000 L 16.0000,94.0000 L 2.0000,94.0000 z " style="fill: #cc0000; fill-opacity: 1.00; stroke: none; cursor: pointer;" id="ezcGraphPolygon_9" onclick="top.location = 'https://bsd-hardware.info/?view=computers&amp;f=cpu_model&amp;v=QEMU+pc-i440fx-5.2&amp;p=99'"/><path d=" M 2.0000,112.0000 L 2.0000,98.0000 L 16.0000,98.0000 L 16.0000,112.0000 L 2.0000,112.0000 z " style="fill: #edd400; fill-opacity: 1.00; stroke: none; cursor: pointer;" id="ezcGraphPolygon_11" onclick="top.location = 'https://bsd-hardware.info/?view=computers&amp;f=cpu_model&amp;v=Intel+Core+i9-9900K+CPU+%40+3.60GHz&amp;p=99'"/><path d=" M 2.0000,130.0000 L 2.0000,116.0000 L 16.0000,116.0000 L 16.0000,130.0000 L 2.0000,130.0000 z " style="fill: #75505b; fill-opacity: 1.00; stroke: none; cursor: pointer;" id="ezcGraphPolygon_13" onclick="top.location = 'https://bsd-hardware.info/?view=computers&amp;f=cpu_model&amp;v=QEMU+pc-q35-6.2&amp;p=99'"/><path d=" M 2.0000,148.0000 L 2.0000,134.0000 L 16.0000,134.0000 L 16.0000,148.0000 L 2.0000,148.0000 z " style="fill: #f57900; fill-opacity: 1.00; stroke: none;" id="ezcGraphPolygon_15"/><path d=" M 100.0000,382.2000 L 500.0000,382.2000" style="fill: none; stroke: #2e3436; stroke-width: 1; stroke-opacity: 1.00; stroke-linecap: round; stroke-linejoin: round;" id="ezcGraphLine_17"/><path d=" M 492.0000,378.2000 L 500.0000,382.2000 L 492.0000,386.2000 L 492.0000,378.2000 z " style="fill: #2e3436; fill-opacity: 1.00; stroke: none;" id="ezcGraphPolygon_18"/><path d=" M 185.7143,79.8000 L 185.7143,382.2000" style="fill: none; stroke: #000000; stroke-width: 1; stroke-opacity: 0.00; stroke-linecap: round; stroke-linejoin: round;" id="ezcGraphLine_21"/><path d=" M 185.7143,379.2000 L 185.7143,385.2000" style="fill: none; stroke: #2e3436; stroke-width: 1; stroke-opacity: 1.00; stroke-linecap: round; stroke-linejoin: round;" id="ezcGraphLine_22"/><path d=" M 231.4286,79.8000 L 231.4286,382.2000" style="fill: none; stroke: #000000; stroke-width: 1; stroke-opacity: 0.00; stroke-linecap: round; stroke-linejoin: round;" id="ezcGraphLine_24"/><path d=" M 231.4286,379.2000 L 231.4286,385.2000" style="fill: none; stroke: #2e3436; stroke-width: 1; stroke-opacity: 1.00; stroke-linecap: round; stroke-linejoin: round;" id="ezcGraphLine_25"/><path d=" M 277.1429,79.8000 L 277.1429,382.2000" style="fill: none; stroke: #000000; stroke-width: 1; stroke-opacity: 0.00; stroke-linecap: round; stroke-linejoin: round;" id="ezcGraphLine_27"/><path d=" M 277.1429,379.2000 L 277.1429,385.2000" style="fill: none; stroke: #2e3436; stroke-width: 1; stroke-opacity: 1.00; stroke-linecap: round; stroke-linejoin: round;" id="ezcGraphLine_28"/><path d=" M 322.8571,79.8000 L 322.8571,382.2000" style="fill: none; stroke: #000000; stroke-width: 1; stroke-opacity: 0.00; stroke-linecap: round; stroke-linejoin: round;" id="ezcGraphLine_30"/><path d=" M 322.8571,379.2000 L 322.8571,385.2000" style="fill: none; stroke: #2e3436; stroke-width: 1; stroke-opacity: 1.00; stroke-linecap: round; stroke-linejoin: round;" id="ezcGraphLine_31"/><path d=" M 368.5714,79.8000 L 368.5714,382.2000" style="fill: none; stroke: #000000; stroke-width: 1; stroke-opacity: 0.00; stroke-linecap: round; stroke-linejoin: round;" id="ezcGraphLine_33"/><path d=" M 368.5714,379.2000 L 368.5714,385.2000" style="fill: none; stroke: #2e3436; stroke-width: 1; stroke-opacity: 1.00; stroke-linecap: round; stroke-linejoin: round;" id="ezcGraphLine_34"/><path d=" M 414.2857,79.8000 L 414.2857,382.2000" style="fill: none; stroke: #000000; stroke-width: 1; stroke-opacity: 0.00; stroke-linecap: round; stroke-linejoin: round;" id="ezcGraphLine_36"/><path d=" M 414.2857,379.2000 L 414.2857,385.2000" style="fill: none; stroke: #2e3436; stroke-width: 1; stroke-opacity: 1.00; stroke-linecap: round; stroke-linejoin: round;" id="ezcGraphLine_37"/><path d=" M 460.0000,79.8000 L 460.0000,382.2000" style="fill: none; stroke: #000000; stroke-width: 1; stroke-opacity: 0.00; stroke-linecap: round; stroke-linejoin: round;" id="ezcGraphLine_39"/><path d=" M 460.0000,379.2000 L 460.0000,385.2000" style="fill: none; stroke: #2e3436; stroke-width: 1; stroke-opacity: 1.00; stroke-linecap: round; stroke-linejoin: round;" id="ezcGraphLine_40"/><path d=" M 140.0000,420.0000 L 140.0000,42.0000" style="fill: none; stroke: #2e3436; stroke-width: 1; stroke-opacity: 1.00; stroke-linecap: round; stroke-linejoin: round;" id="ezcGraphLine_41"/><path d=" M 136.0000,50.0000 L 140.0000,42.0000 L 144.0000,50.0000 L 136.0000,50.0000 z " style="fill: #2e3436; fill-opacity: 1.00; stroke: none;" id="ezcGraphPolygon_42"/><path d=" M 140.0000,231.0000 L 460.0000,231.0000" style="fill: none; stroke: #000000; stroke-width: 1; stroke-opacity: 0.00; stroke-linecap: round; stroke-linejoin: round;" id="ezcGraphLine_45"/><path d=" M 140.0000,231.0000 L 143.0000,231.0000" style="fill: none; stroke: #2e3436; stroke-width: 1; stroke-opacity: 1.00; stroke-linecap: round; stroke-linejoin: round;" id="ezcGraphLine_46"/><path d=" M 140.0000,79.8000 L 460.0000,79.8000" style="fill: none; stroke: #000000; stroke-width: 1; stroke-opacity: 0.00; stroke-linecap: round; stroke-linejoin: round;" id="ezcGraphLine_48"/><path d=" M 140.0000,79.8000 L 143.0000,79.8000" style="fill: none; stroke: #2e3436; stroke-width: 1; stroke-opacity: 1.00; stroke-linecap: round; stroke-linejoin: round;" id="ezcGraphLine_49"/><path d=" M 345.7143,372.5232 L 345.7143,372.5232" style="fill: none; stroke: #3465a4; stroke-width: 1; stroke-opacity: 1.00; stroke-linecap: round; stroke-linejoin: round;" id="ezcGraphLine_51"/><path d=" M 345.7143,372.5232 L 391.4286,367.3824" style="fill: none; stroke: #3465a4; stroke-width: 1; stroke-opacity: 1.00; stroke-linecap: round; stroke-linejoin: round;" id="ezcGraphLine_53"/><path d=" M 391.4286,367.3824 L 437.1429,325.0464" style="fill: none; stroke: #3465a4; stroke-width: 1; stroke-opacity: 1.00; stroke-linecap: round; stroke-linejoin: round;" id="ezcGraphLine_55"/><path d=" M 345.7143,372.5232 L 345.7143,372.5232" style="fill: none; stroke: #4e9a06; stroke-width: 1; stroke-opacity: 1.00; stroke-linecap: round; stroke-linejoin: round;" id="ezcGraphLine_57"/><path d=" M 345.7143,372.5232 L 391.4286,308.4144" style="fill: none; stroke: #4e9a06; stroke-width: 1; stroke-opacity: 1.00; stroke-linecap: round; stroke-linejoin: round;" id="ezcGraphLine_59"/><path d=" M 391.4286,308.4144 L 437.1429,325.0464" style="fill: none; stroke: #4e9a06; stroke-width: 1; stroke-opacity: 1.00; stroke-linecap: round; stroke-linejoin: round;" id="ezcGraphLine_61"/><path d=" M 162.8571,320.5104 L 162.8571,320.5104" style="fill: none; stroke: #cc0000; stroke-width: 1; stroke-opacity: 1.00; stroke-linecap: round; stroke-linejoin: round;" id="ezcGraphLine_63"/><path d=" M 162.8571,320.5104 L 208.5714,303.2736" style="fill: none; stroke: #cc0000; stroke-width: 1; stroke-opacity: 1.00; stroke-linecap: round; stroke-linejoin: round;" id="ezcGraphLine_65"/><path d=" M 208.5714,303.2736 L 254.2857,337.7472" style="fill: none; stroke: #cc0000; stroke-width: 1; stroke-opacity: 1.00; stroke-linecap: round; stroke-linejoin: round;" id="ezcGraphLine_67"/><path d=" M 254.2857,337.7472 L 300.0000,374.3376" style="fill: none; stroke: #cc0000; stroke-width: 1; stroke-opacity: 1.00; stroke-linecap: round; stroke-linejoin: round;" id="ezcGraphLine_69"/><path d=" M 300.0000,374.3376 L 391.4286,367.3824" style="fill: none; stroke: #cc0000; stroke-width: 1; stroke-opacity: 1.00; stroke-linecap: round; stroke-linejoin: round;" id="ezcGraphLine_71"/><path d=" M 391.4286,367.3824 L 437.1429,357.7056" style="fill: none; stroke: #cc0000; stroke-width: 1; stroke-opacity: 1.00; stroke-linecap: round; stroke-linejoin: round;" id="ezcGraphLine_73"/><path d=" M 437.1429,365.8704 L 437.1429,365.8704" style="fill: none; stroke: #edd400; stroke-width: 1; stroke-opacity: 1.00; stroke-linecap: round; stroke-linejoin: round;" id="ezcGraphLine_75"/><path d=" M 437.1429,374.0352 L 437.1429,374.0352" style="fill: none; stroke: #75505b; stroke-width: 1; stroke-opacity: 1.00; stroke-linecap: round; stroke-linejoin: round;" id="ezcGraphLine_77"/><path d=" M 162.8571,141.4896 L 162.8571,141.4896" style="fill: none; stroke: #f57900; stroke-width: 1; stroke-opacity: 1.00; stroke-linecap: round; stroke-linejoin: round;" id="ezcGraphLine_79"/><path d=" M 162.8571,141.4896 L 208.5714,158.7264" style="fill: none; stroke: #f57900; stroke-width: 1; stroke-opacity: 1.00; stroke-linecap: round; stroke-linejoin: round;" id="ezcGraphLine_81"/><path d=" M 208.5714,158.7264 L 254.2857,124.2528" style="fill: none; stroke: #f57900; stroke-width: 1; stroke-opacity: 1.00; stroke-linecap: round; stroke-linejoin: round;" id="ezcGraphLine_83"/><path d=" M 254.2857,124.2528 L 300.0000,87.6624" style="fill: none; stroke: #f57900; stroke-width: 1; stroke-opacity: 1.00; stroke-linecap: round; stroke-linejoin: round;" id="ezcGraphLine_85"/><path d=" M 300.0000,87.6624 L 345.7143,99.4560" style="fill: none; stroke: #f57900; stroke-width: 1; stroke-opacity: 1.00; stroke-linecap: round; stroke-linejoin: round;" id="ezcGraphLine_87"/><path d=" M 345.7143,99.4560 L 391.4286,182.9184" style="fill: none; stroke: #f57900; stroke-width: 1; stroke-opacity: 1.00; stroke-linecap: round; stroke-linejoin: round;" id="ezcGraphLine_89"/><path d=" M 391.4286,182.9184 L 437.1429,243.3984" style="fill: none; stroke: #f57900; stroke-width: 1; stroke-opacity: 1.00; stroke-linecap: round; stroke-linejoin: round;" id="ezcGraphLine_91"/><path d=" M 342.7143,375.5232 L 342.7143,369.5232 L 348.7143,369.5232 L 348.7143,375.5232 L 342.7143,375.5232 z " style="fill: #3465a4; fill-opacity: 1.00; stroke: none; cursor: pointer;" id="ezcGraphPolygon_93" onclick="top.location = 'https://bsd-hardware.info/?view=computers&amp;f=cpu_model&amp;v=QEMU+pc-q35-6.1&amp;p=99&amp;p=95'"/><path d=" M 388.4286,370.3824 L 388.4286,364.3824 L 394.4286,364.3824 L 394.4286,370.3824 L 388.4286,370.3824 z " style="fill: #3465a4; fill-opacity: 1.00; stroke: none; cursor: pointer;" id="ezcGraphPolygon_94" onclick="top.location = 'https://bsd-hardware.info/?view=computers&amp;f=cpu_model&amp;v=QEMU+pc-q35-6.1&amp;p=99&amp;p=97'"/><path d=" M 434.1429,328.0464 L 434.1429,322.0464 L 440.1429,322.0464 L 440.1429,328.0464 L 434.1429,328.0464 z " style="fill: #3465a4; fill-opacity: 1.00; stroke: none; cursor: pointer;" id="ezcGraphPolygon_95" onclick="top.location = 'https://bsd-hardware.info/?view=computers&amp;f=cpu_model&amp;v=QEMU+pc-q35-6.1&amp;p=99&amp;p=99'"/><path d=" M 342.7143,375.5232 L 342.7143,369.5232 L 348.7143,369.5232 L 348.7143,375.5232 L 342.7143,375.5232 z " style="fill: #4e9a06; fill-opacity: 1.00; stroke: none; cursor: pointer;" id="ezcGraphPolygon_96" onclick="top.location = 'https://bsd-hardware.info/?view=computers&amp;f=cpu_model&amp;v=QEMU+pc-i440fx-6.1&amp;p=99&amp;p=95'"/><path d=" M 388.4286,311.4144 L 388.4286,305.4144 L 394.4286,305.4144 L 394.4286,311.4144 L 388.4286,311.4144 z " style="fill: #4e9a06; fill-opacity: 1.00; stroke: none; cursor: pointer;" id="ezcGraphPolygon_97" onclick="top.location = 'https://bsd-hardware.info/?view=computers&amp;f=cpu_model&amp;v=QEMU+pc-i440fx-6.1&amp;p=99&amp;p=97'"/><path d=" M 434.1429,328.0464 L 434.1429,322.0464 L 440.1429,322.0464 L 440.1429,328.0464 L 434.1429,328.0464 z " style="fill: #4e9a06; fill-opacity: 1.00; stroke: none; cursor: pointer;" id="ezcGraphPolygon_98" onclick="top.location = 'https://bsd-hardware.info/?view=computers&amp;f=cpu_model&amp;v=QEMU+pc-i440fx-6.1&amp;p=99&amp;p=99'"/><path d=" M 159.8571,323.5104 L 159.8571,317.5104 L 165.8571,317.5104 L 165.8571,323.5104 L 159.8571,323.5104 z " style="fill: #cc0000; fill-opacity: 1.00; stroke: none; cursor: pointer;" id="ezcGraphPolygon_99" onclick="top.location = 'https://bsd-hardware.info/?view=computers&amp;f=cpu_model&amp;v=QEMU+pc-i440fx-5.2&amp;p=99&amp;p=87'"/><path d=" M 205.5714,306.2736 L 205.5714,300.2736 L 211.5714,300.2736 L 211.5714,306.2736 L 205.5714,306.2736 z " style="fill: #cc0000; fill-opacity: 1.00; stroke: none; cursor: pointer;" id="ezcGraphPolygon_100" onclick="top.location = 'https://bsd-hardware.info/?view=computers&amp;f=cpu_model&amp;v=QEMU+pc-i440fx-5.2&amp;p=99&amp;p=89'"/><path d=" M 251.2857,340.7472 L 251.2857,334.7472 L 257.2857,334.7472 L 257.2857,340.7472 L 251.2857,340.7472 z " style="fill: #cc0000; fill-opacity: 1.00; stroke: none; cursor: pointer;" id="ezcGraphPolygon_101" onclick="top.location = 'https://bsd-hardware.info/?view=computers&amp;f=cpu_model&amp;v=QEMU+pc-i440fx-5.2&amp;p=99&amp;p=91'"/><path d=" M 297.0000,377.3376 L 297.0000,371.3376 L 303.0000,371.3376 L 303.0000,377.3376 L 297.0000,377.3376 z " style="fill: #cc0000; fill-opacity: 1.00; stroke: none; cursor: pointer;" id="ezcGraphPolygon_102" onclick="top.location = 'https://bsd-hardware.info/?view=computers&amp;f=cpu_model&amp;v=QEMU+pc-i440fx-5.2&amp;p=99&amp;p=93'"/><path d=" M 388.4286,370.3824 L 388.4286,364.3824 L 394.4286,364.3824 L 394.4286,370.3824 L 388.4286,370.3824 z " style="fill: #cc0000; fill-opacity: 1.00; stroke: none; cursor: pointer;" id="ezcGraphPolygon_103" onclick="top.location = 'https://bsd-hardware.info/?view=computers&amp;f=cpu_model&amp;v=QEMU+pc-i440fx-5.2&amp;p=99&amp;p=97'"/><path d=" M 434.1429,360.7056 L 434.1429,354.7056 L 440.1429,354.7056 L 440.1429,360.7056 L 434.1429,360.7056 z " style="fill: #cc0000; fill-opacity: 1.00; stroke: none; cursor: pointer;" id="ezcGraphPolygon_104" onclick="top.location = 'https://bsd-hardware.info/?view=computers&amp;f=cpu_model&amp;v=QEMU+pc-i440fx-5.2&amp;p=99&amp;p=99'"/><path d=" M 434.1429,368.8704 L 434.1429,362.8704 L 440.1429,362.8704 L 440.1429,368.8704 L 434.1429,368.8704 z " style="fill: #edd400; fill-opacity: 1.00; stroke: none; cursor: pointer;" id="ezcGraphPolygon_105" onclick="top.location = 'https://bsd-hardware.info/?view=computers&amp;f=cpu_model&amp;v=Intel+Core+i9-9900K+CPU+%40+3.60GHz&amp;p=99&amp;p=99'"/><path d=" M 434.1429,377.0352 L 434.1429,371.0352 L 440.1429,371.0352 L 440.1429,377.0352 L 434.1429,377.0352 z " style="fill: #75505b; fill-opacity: 1.00; stroke: none; cursor: pointer;" id="ezcGraphPolygon_106" onclick="top.location = 'https://bsd-hardware.info/?view=computers&amp;f=cpu_model&amp;v=QEMU+pc-q35-6.2&amp;p=99&amp;p=99'"/><path d=" M 159.8571,144.4896 L 159.8571,138.4896 L 165.8571,138.4896 L 165.8571,144.4896 L 159.8571,144.4896 z " style="fill: #f57900; fill-opacity: 1.00; stroke: none;" id="ezcGraphPolygon_107"/><path d=" M 205.5714,161.7264 L 205.5714,155.7264 L 211.5714,155.7264 L 211.5714,161.7264 L 205.5714,161.7264 z " style="fill: #f57900; fill-opacity: 1.00; stroke: none;" id="ezcGraphPolygon_108"/><path d=" M 251.2857,127.2528 L 251.2857,121.2528 L 257.2857,121.2528 L 257.2857,127.2528 L 251.2857,127.2528 z " style="fill: #f57900; fill-opacity: 1.00; stroke: none;" id="ezcGraphPolygon_109"/><path d=" M 297.0000,90.6624 L 297.0000,84.6624 L 303.0000,84.6624 L 303.0000,90.6624 L 297.0000,90.6624 z " style="fill: #f57900; fill-opacity: 1.00; stroke: none;" id="ezcGraphPolygon_110"/><path d=" M 342.7143,102.4560 L 342.7143,96.4560 L 348.7143,96.4560 L 348.7143,102.4560 L 342.7143,102.4560 z " style="fill: #f57900; fill-opacity: 1.00; stroke: none;" id="ezcGraphPolygon_111"/><path d=" M 388.4286,185.9184 L 388.4286,179.9184 L 394.4286,179.9184 L 394.4286,185.9184 L 388.4286,185.9184 z " style="fill: #f57900; fill-opacity: 1.00; stroke: none;" id="ezcGraphPolygon_112"/><path d=" M 434.1429,246.3984 L 434.1429,240.3984 L 440.1429,240.3984 L 440.1429,246.3984 L 434.1429,246.3984 z " style="fill: #f57900; fill-opacity: 1.00; stroke: none;" id="ezcGraphPolygon_113"/><g id="ezcGraphTextBox_3"><path d=" M 154.1000,42.0000 L 154.1000,0.5000 L 346.4000,0.5000 L 346.4000,42.0000 L 154.1000,42.0000 z " style="fill: #ffffff; fill-opacity: 0.00; stroke: none;" id="ezcGraphPolygon_114"/><text id="ezcGraphTextBox_3_text" x="154.6000" text-length="190.8000px" y="35.0000" style="font-size: 40px; font-family: 'Arial'; fill: #2e3436; fill-opacity: 1.00; stroke: none;">CPU Model</text></g><g id="ezcGraphTextBox_6" style=" cursor: pointer;" onclick="top.location = 'https://bsd-hardware.info/?view=computers&amp;f=cpu_model&amp;v=QEMU+pc-q35-6.1&amp;p=99'"><path d=" M 16.5000,56.0000 L 16.5000,46.5000 L 81.6000,46.5000 L 81.6000,56.0000 L 16.5000,56.0000 z " style="fill: #ffffff; fill-opacity: 0.00; stroke: none;" id="ezcGraphPolygon_115"/><text id="ezcGraphTextBox_6_text" x="17.0000" text-length="63.6000px" y="53.8000" style="font-size: 8px; font-family: 'Arial'; fill: #2e3436; fill-opacity: 1.00; stroke: none;">QEMU pc-q35-6.1</text></g><g id="ezcGraphTextBox_8" style=" cursor: pointer;" onclick="top.location = 'https://bsd-hardware.info/?view=computers&amp;f=cpu_model&amp;v=QEMU+pc-i440fx-6.1&amp;p=99'"><path d=" M 16.5000,74.0000 L 16.5000,64.5000 L 85.8400,64.5000 L 85.8400,74.0000 L 16.5000,74.0000 z " style="fill: #ffffff; fill-opacity: 0.00; stroke: none;" id="ezcGraphPolygon_116"/><text id="ezcGraphTextBox_8_text" x="17.0000" text-length="67.8400px" y="71.8000" style="font-size: 8px; font-family: 'Arial'; fill: #2e3436; fill-opacity: 1.00; stroke: none;">QEMU pc-i440f...</text></g><g id="ezcGraphTextBox_10" style=" cursor: pointer;" onclick="top.location = 'https://bsd-hardware.info/?view=computers&amp;f=cpu_model&amp;v=QEMU+pc-i440fx-5.2&amp;p=99'"><path d=" M 16.5000,92.0000 L 16.5000,82.5000 L 90.0800,82.5000 L 90.0800,92.0000 L 16.5000,92.0000 z " style="fill: #ffffff; fill-opacity: 0.00; stroke: none;" id="ezcGraphPolygon_117"/><text id="ezcGraphTextBox_10_text" x="17.0000" text-length="72.0800px" y="89.8000" style="font-size: 8px; font-family: 'Arial'; fill: #2e3436; fill-opacity: 1.00; stroke: none;">QEMU pc-i440f... </text></g><g id="ezcGraphTextBox_12" style=" cursor: pointer;" onclick="top.location = 'https://bsd-hardware.info/?view=computers&amp;f=cpu_model&amp;v=Intel+Core+i9-9900K+CPU+%40+3.60GHz&amp;p=99'"><path d=" M 16.5000,110.0000 L 16.5000,100.5000 L 85.8400,100.5000 L 85.8400,110.0000 L 16.5000,110.0000 z " style="fill: #ffffff; fill-opacity: 0.00; stroke: none;" id="ezcGraphPolygon_118"/><text id="ezcGraphTextBox_12_text" x="17.0000" text-length="67.8400px" y="107.8000" style="font-size: 8px; font-family: 'Arial'; fill: #2e3436; fill-opacity: 1.00; stroke: none;">Core i9-9900K...</text></g><g id="ezcGraphTextBox_14" style=" cursor: pointer;" onclick="top.location = 'https://bsd-hardware.info/?view=computers&amp;f=cpu_model&amp;v=QEMU+pc-q35-6.2&amp;p=99'"><path d=" M 16.5000,128.0000 L 16.5000,118.5000 L 81.6000,118.5000 L 81.6000,128.0000 L 16.5000,128.0000 z " style="fill: #ffffff; fill-opacity: 0.00; stroke: none;" id="ezcGraphPolygon_119"/><text id="ezcGraphTextBox_14_text" x="17.0000" text-length="63.6000px" y="125.8000" style="font-size: 8px; font-family: 'Arial'; fill: #2e3436; fill-opacity: 1.00; stroke: none;">QEMU pc-q35-6.2</text></g><g id="ezcGraphTextBox_16"><path d=" M 16.5000,146.0000 L 16.5000,136.5000 L 43.4400,136.5000 L 43.4400,146.0000 L 16.5000,146.0000 z " style="fill: #ffffff; fill-opacity: 0.00; stroke: none;" id="ezcGraphPolygon_120"/><text id="ezcGraphTextBox_16_text" x="17.0000" text-length="25.4400px" y="143.8000" style="font-size: 8px; font-family: 'Arial'; fill: #2e3436; fill-opacity: 1.00; stroke: none;">Others</text></g><g id="ezcGraphTextBox_19" transform="rotate( 0.00 493.0000 375.2000 )"><path d=" M 460.4000,381.2000 L 460.4000,365.7000 L 499.0000,365.7000 L 499.0000,381.2000 L 460.4000,381.2000 z " style="fill: #ffffff; fill-opacity: 0.00; stroke: none;" id="ezcGraphPolygon_121"/><text id="ezcGraphTextBox_19_text" x="460.9000" text-length="37.1000px" y="378.1000" style="font-size: 14px; font-family: 'Arial'; fill: #2e3436; fill-opacity: 1.00; stroke: none;">Time </text></g><g id="ezcGraphTextBox_20"><path d=" M 144.9971,413.3000 L 144.9971,383.7000 L 181.2171,383.7000 L 181.2171,413.3000 L 144.9971,413.3000 z " style="fill: #ffffff; fill-opacity: 0.00; stroke: none;" id="ezcGraphPolygon_122"/><text id="ezcGraphTextBox_20_text" x="151.7271" text-length="22.2600px" y="396.1000" style="font-size: 14px; font-family: 'Arial'; fill: #2e3436; fill-opacity: 1.00; stroke: none;">Mar</text><text id="ezcGraphTextBox_20_text" x="145.4971" text-length="34.7200px" y="411.5000" style="font-size: 14px; font-family: 'Arial'; fill: #2e3436; fill-opacity: 1.00; stroke: none;">2021</text></g><g id="ezcGraphTextBox_23"><path d=" M 190.7114,413.3000 L 190.7114,383.7000 L 226.9314,383.7000 L 226.9314,413.3000 L 190.7114,413.3000 z " style="fill: #ffffff; fill-opacity: 0.00; stroke: none;" id="ezcGraphPolygon_123"/><text id="ezcGraphTextBox_23_text" x="197.4414" text-length="22.2600px" y="396.1000" style="font-size: 14px; font-family: 'Arial'; fill: #2e3436; fill-opacity: 1.00; stroke: none;">May</text><text id="ezcGraphTextBox_23_text" x="191.2114" text-length="34.7200px" y="411.5000" style="font-size: 14px; font-family: 'Arial'; fill: #2e3436; fill-opacity: 1.00; stroke: none;">2021</text></g><g id="ezcGraphTextBox_26"><path d=" M 236.4257,413.3000 L 236.4257,383.7000 L 272.6457,383.7000 L 272.6457,413.3000 L 236.4257,413.3000 z " style="fill: #ffffff; fill-opacity: 0.00; stroke: none;" id="ezcGraphPolygon_124"/><text id="ezcGraphTextBox_26_text" x="243.1557" text-length="22.2600px" y="396.1000" style="font-size: 14px; font-family: 'Arial'; fill: #2e3436; fill-opacity: 1.00; stroke: none;">Jul</text><text id="ezcGraphTextBox_26_text" x="236.9257" text-length="34.7200px" y="411.5000" style="font-size: 14px; font-family: 'Arial'; fill: #2e3436; fill-opacity: 1.00; stroke: none;">2021</text></g><g id="ezcGraphTextBox_29"><path d=" M 282.1400,413.3000 L 282.1400,383.7000 L 318.3600,383.7000 L 318.3600,413.3000 L 282.1400,413.3000 z " style="fill: #ffffff; fill-opacity: 0.00; stroke: none;" id="ezcGraphPolygon_125"/><text id="ezcGraphTextBox_29_text" x="288.8700" text-length="22.2600px" y="396.1000" style="font-size: 14px; font-family: 'Arial'; fill: #2e3436; fill-opacity: 1.00; stroke: none;">Sep</text><text id="ezcGraphTextBox_29_text" x="282.6400" text-length="34.7200px" y="411.5000" style="font-size: 14px; font-family: 'Arial'; fill: #2e3436; fill-opacity: 1.00; stroke: none;">2021</text></g><g id="ezcGraphTextBox_32"><path d=" M 327.8543,413.3000 L 327.8543,383.7000 L 364.0743,383.7000 L 364.0743,413.3000 L 327.8543,413.3000 z " style="fill: #ffffff; fill-opacity: 0.00; stroke: none;" id="ezcGraphPolygon_126"/><text id="ezcGraphTextBox_32_text" x="334.5843" text-length="22.2600px" y="396.1000" style="font-size: 14px; font-family: 'Arial'; fill: #2e3436; fill-opacity: 1.00; stroke: none;">Nov</text><text id="ezcGraphTextBox_32_text" x="328.3543" text-length="34.7200px" y="411.5000" style="font-size: 14px; font-family: 'Arial'; fill: #2e3436; fill-opacity: 1.00; stroke: none;">2021</text></g><g id="ezcGraphTextBox_35"><path d=" M 373.5686,413.3000 L 373.5686,383.7000 L 409.7886,383.7000 L 409.7886,413.3000 L 373.5686,413.3000 z " style="fill: #ffffff; fill-opacity: 0.00; stroke: none;" id="ezcGraphPolygon_127"/><text id="ezcGraphTextBox_35_text" x="380.2986" text-length="22.2600px" y="396.1000" style="font-size: 14px; font-family: 'Arial'; fill: #2e3436; fill-opacity: 1.00; stroke: none;">Jan</text><text id="ezcGraphTextBox_35_text" x="374.0686" text-length="34.7200px" y="411.5000" style="font-size: 14px; font-family: 'Arial'; fill: #2e3436; fill-opacity: 1.00; stroke: none;">2022</text></g><g id="ezcGraphTextBox_38"><path d=" M 419.2829,413.3000 L 419.2829,383.7000 L 455.5029,383.7000 L 455.5029,413.3000 L 419.2829,413.3000 z " style="fill: #ffffff; fill-opacity: 0.00; stroke: none;" id="ezcGraphPolygon_128"/><text id="ezcGraphTextBox_38_text" x="426.0129" text-length="22.2600px" y="396.1000" style="font-size: 14px; font-family: 'Arial'; fill: #2e3436; fill-opacity: 1.00; stroke: none;">Mar</text><text id="ezcGraphTextBox_38_text" x="419.7829" text-length="34.7200px" y="411.5000" style="font-size: 14px; font-family: 'Arial'; fill: #2e3436; fill-opacity: 1.00; stroke: none;">2022</text></g><g id="ezcGraphTextBox_43" transform="rotate( 0.00 147.0000 49.0000 )"><path d=" M 141.5000,59.0000 L 141.5000,43.5000 L 358.1800,43.5000 L 358.1800,59.0000 L 141.5000,59.0000 z " style="fill: #ffffff; fill-opacity: 0.00; stroke: none;" id="ezcGraphPolygon_129"/><text id="ezcGraphTextBox_43_text" x="142.0000" text-length="215.1800px" y="55.9000" style="font-size: 14px; font-family: 'Arial'; fill: #2e3436; fill-opacity: 1.00; stroke: none;">Computers by "CPU Model" in %</text></g><g id="ezcGraphTextBox_44"><path d=" M 128.8200,381.2000 L 128.8200,365.7000 L 139.0000,365.7000 L 139.0000,381.2000 L 128.8200,381.2000 z " style="fill: #ffffff; fill-opacity: 0.00; stroke: none;" id="ezcGraphPolygon_130"/><text id="ezcGraphTextBox_44_text" x="129.3200" text-length="8.6800px" y="378.1000" style="font-size: 14px; font-family: 'Arial'; fill: #2e3436; fill-opacity: 1.00; stroke: none;">0</text></g><g id="ezcGraphTextBox_47"><path d=" M 120.1400,230.0000 L 120.1400,214.5000 L 139.0000,214.5000 L 139.0000,230.0000 L 120.1400,230.0000 z " style="fill: #ffffff; fill-opacity: 0.00; stroke: none;" id="ezcGraphPolygon_131"/><text id="ezcGraphTextBox_47_text" x="120.6400" text-length="17.3600px" y="226.9000" style="font-size: 14px; font-family: 'Arial'; fill: #2e3436; fill-opacity: 1.00; stroke: none;">50</text></g><g id="ezcGraphTextBox_50"><path d=" M 111.4600,96.8000 L 111.4600,81.3000 L 139.0000,81.3000 L 139.0000,96.8000 L 111.4600,96.8000 z " style="fill: #ffffff; fill-opacity: 0.00; stroke: none;" id="ezcGraphPolygon_132"/><text id="ezcGraphTextBox_50_text" x="111.9600" text-length="26.0400px" y="93.7000" style="font-size: 14px; font-family: 'Arial'; fill: #2e3436; fill-opacity: 1.00; stroke: none;">100</text></g><g id="ezcGraphTextBox_52"><path d=" M 335.9143,367.5232 L 335.9143,356.0232 L 356.0143,356.0232 L 356.0143,367.5232 L 335.9143,367.5232 z " style="fill: #ffffff; fill-opacity: 0.00; stroke: none;" id="ezcGraphPolygon_133"/><text id="ezcGraphTextBox_52_text" x="336.4143" text-length="18.6000px" y="365.0232" style="font-size: 10px; font-family: 'Arial'; fill: #2e3436; fill-opacity: 1.00; stroke: none;">3.2</text></g><g id="ezcGraphTextBox_54"><path d=" M 381.6286,362.3824 L 381.6286,350.8824 L 401.7286,350.8824 L 401.7286,362.3824 L 381.6286,362.3824 z " style="fill: #ffffff; fill-opacity: 0.00; stroke: none;" id="ezcGraphPolygon_134"/><text id="ezcGraphTextBox_54_text" x="382.1286" text-length="18.6000px" y="359.8824" style="font-size: 10px; font-family: 'Arial'; fill: #2e3436; fill-opacity: 1.00; stroke: none;">4.9</text></g><g id="ezcGraphTextBox_56"><path d=" M 424.2429,320.0464 L 424.2429,308.5464 L 450.5429,308.5464 L 450.5429,320.0464 L 424.2429,320.0464 z " style="fill: #ffffff; fill-opacity: 0.00; stroke: none;" id="ezcGraphPolygon_135"/><text id="ezcGraphTextBox_56_text" x="424.7429" text-length="24.8000px" y="317.5464" style="font-size: 10px; font-family: 'Arial'; fill: #2e3436; fill-opacity: 1.00; stroke: none;">18.9</text></g><g id="ezcGraphTextBox_58"><path d=" M 335.9143,367.5232 L 335.9143,356.0232 L 356.0143,356.0232 L 356.0143,367.5232 L 335.9143,367.5232 z " style="fill: #ffffff; fill-opacity: 0.00; stroke: none;" id="ezcGraphPolygon_136"/><text id="ezcGraphTextBox_58_text" x="336.4143" text-length="18.6000px" y="365.0232" style="font-size: 10px; font-family: 'Arial'; fill: #2e3436; fill-opacity: 1.00; stroke: none;">3.2</text></g><g id="ezcGraphTextBox_60"><path d=" M 378.5286,303.4144 L 378.5286,291.9144 L 404.8286,291.9144 L 404.8286,303.4144 L 378.5286,303.4144 z " style="fill: #ffffff; fill-opacity: 0.00; stroke: none;" id="ezcGraphPolygon_137"/><text id="ezcGraphTextBox_60_text" x="379.0286" text-length="24.8000px" y="300.9144" style="font-size: 10px; font-family: 'Arial'; fill: #2e3436; fill-opacity: 1.00; stroke: none;">24.4</text></g><g id="ezcGraphTextBox_62"><path d=" M 424.2429,320.0464 L 424.2429,308.5464 L 450.5429,308.5464 L 450.5429,320.0464 L 424.2429,320.0464 z " style="fill: #ffffff; fill-opacity: 0.00; stroke: none;" id="ezcGraphPolygon_138"/><text id="ezcGraphTextBox_62_text" x="424.7429" text-length="24.8000px" y="317.5464" style="font-size: 10px; font-family: 'Arial'; fill: #2e3436; fill-opacity: 1.00; stroke: none;">18.9</text></g><g id="ezcGraphTextBox_64"><path d=" M 149.9571,315.5104 L 149.9571,304.0104 L 176.2571,304.0104 L 176.2571,315.5104 L 149.9571,315.5104 z " style="fill: #ffffff; fill-opacity: 0.00; stroke: none;" id="ezcGraphPolygon_139"/><text id="ezcGraphTextBox_64_text" x="150.4571" text-length="24.8000px" y="313.0104" style="font-size: 10px; font-family: 'Arial'; fill: #2e3436; fill-opacity: 1.00; stroke: none;">20.4</text></g><g id="ezcGraphTextBox_66"><path d=" M 195.6714,298.2736 L 195.6714,286.7736 L 221.9714,286.7736 L 221.9714,298.2736 L 195.6714,298.2736 z " style="fill: #ffffff; fill-opacity: 0.00; stroke: none;" id="ezcGraphPolygon_140"/><text id="ezcGraphTextBox_66_text" x="196.1714" text-length="24.8000px" y="295.7736" style="font-size: 10px; font-family: 'Arial'; fill: #2e3436; fill-opacity: 1.00; stroke: none;">26.1</text></g><g id="ezcGraphTextBox_68"><path d=" M 241.3857,332.7472 L 241.3857,321.2472 L 267.6857,321.2472 L 267.6857,332.7472 L 241.3857,332.7472 z " style="fill: #ffffff; fill-opacity: 0.00; stroke: none;" id="ezcGraphPolygon_141"/><text id="ezcGraphTextBox_68_text" x="241.8857" text-length="24.8000px" y="330.2472" style="font-size: 10px; font-family: 'Arial'; fill: #2e3436; fill-opacity: 1.00; stroke: none;">14.7</text></g><g id="ezcGraphTextBox_70"><path d=" M 290.2000,369.3376 L 290.2000,357.8376 L 310.3000,357.8376 L 310.3000,369.3376 L 290.2000,369.3376 z " style="fill: #ffffff; fill-opacity: 0.00; stroke: none;" id="ezcGraphPolygon_142"/><text id="ezcGraphTextBox_70_text" x="290.7000" text-length="18.6000px" y="366.8376" style="font-size: 10px; font-family: 'Arial'; fill: #2e3436; fill-opacity: 1.00; stroke: none;">2.6</text></g><g id="ezcGraphTextBox_72"><path d=" M 381.6286,362.3824 L 381.6286,350.8824 L 401.7286,350.8824 L 401.7286,362.3824 L 381.6286,362.3824 z " style="fill: #ffffff; fill-opacity: 0.00; stroke: none;" id="ezcGraphPolygon_143"/><text id="ezcGraphTextBox_72_text" x="382.1286" text-length="18.6000px" y="359.8824" style="font-size: 10px; font-family: 'Arial'; fill: #2e3436; fill-opacity: 1.00; stroke: none;">4.9</text></g><g id="ezcGraphTextBox_74"><path d=" M 427.3429,352.7056 L 427.3429,341.2056 L 447.4429,341.2056 L 447.4429,352.7056 L 427.3429,352.7056 z " style="fill: #ffffff; fill-opacity: 0.00; stroke: none;" id="ezcGraphPolygon_144"/><text id="ezcGraphTextBox_74_text" x="427.8429" text-length="18.6000px" y="350.2056" style="font-size: 10px; font-family: 'Arial'; fill: #2e3436; fill-opacity: 1.00; stroke: none;">8.1</text></g><g id="ezcGraphTextBox_76"><path d=" M 427.3429,360.8704 L 427.3429,349.3704 L 447.4429,349.3704 L 447.4429,360.8704 L 427.3429,360.8704 z " style="fill: #ffffff; fill-opacity: 0.00; stroke: none;" id="ezcGraphPolygon_145"/><text id="ezcGraphTextBox_76_text" x="427.8429" text-length="18.6000px" y="358.3704" style="font-size: 10px; font-family: 'Arial'; fill: #2e3436; fill-opacity: 1.00; stroke: none;">5.4</text></g><g id="ezcGraphTextBox_78"><path d=" M 427.3429,369.0352 L 427.3429,357.5352 L 447.4429,357.5352 L 447.4429,369.0352 L 427.3429,369.0352 z " style="fill: #ffffff; fill-opacity: 0.00; stroke: none;" id="ezcGraphPolygon_146"/><text id="ezcGraphTextBox_78_text" x="427.8429" text-length="18.6000px" y="366.5352" style="font-size: 10px; font-family: 'Arial'; fill: #2e3436; fill-opacity: 1.00; stroke: none;">2.7</text></g><g id="ezcGraphTextBox_80"><path d=" M 149.9571,136.4896 L 149.9571,124.9896 L 176.2571,124.9896 L 176.2571,136.4896 L 149.9571,136.4896 z " style="fill: #ffffff; fill-opacity: 0.00; stroke: none;" id="ezcGraphPolygon_147"/><text id="ezcGraphTextBox_80_text" x="150.4571" text-length="24.8000px" y="133.9896" style="font-size: 10px; font-family: 'Arial'; fill: #2e3436; fill-opacity: 1.00; stroke: none;">79.6</text></g><g id="ezcGraphTextBox_82"><path d=" M 195.6714,153.7264 L 195.6714,142.2264 L 221.9714,142.2264 L 221.9714,153.7264 L 195.6714,153.7264 z " style="fill: #ffffff; fill-opacity: 0.00; stroke: none;" id="ezcGraphPolygon_148"/><text id="ezcGraphTextBox_82_text" x="196.1714" text-length="24.8000px" y="151.2264" style="font-size: 10px; font-family: 'Arial'; fill: #2e3436; fill-opacity: 1.00; stroke: none;">73.9</text></g><g id="ezcGraphTextBox_84"><path d=" M 241.3857,119.2528 L 241.3857,107.7528 L 267.6857,107.7528 L 267.6857,119.2528 L 241.3857,119.2528 z " style="fill: #ffffff; fill-opacity: 0.00; stroke: none;" id="ezcGraphPolygon_149"/><text id="ezcGraphTextBox_84_text" x="241.8857" text-length="24.8000px" y="116.7528" style="font-size: 10px; font-family: 'Arial'; fill: #2e3436; fill-opacity: 1.00; stroke: none;">85.3</text></g><g id="ezcGraphTextBox_86"><path d=" M 287.1000,82.6624 L 287.1000,71.1624 L 313.4000,71.1624 L 313.4000,82.6624 L 287.1000,82.6624 z " style="fill: #ffffff; fill-opacity: 0.00; stroke: none;" id="ezcGraphPolygon_150"/><text id="ezcGraphTextBox_86_text" x="287.6000" text-length="24.8000px" y="80.1624" style="font-size: 10px; font-family: 'Arial'; fill: #2e3436; fill-opacity: 1.00; stroke: none;">97.4</text></g><g id="ezcGraphTextBox_88"><path d=" M 332.8143,94.4560 L 332.8143,82.9560 L 359.1143,82.9560 L 359.1143,94.4560 L 332.8143,94.4560 z " style="fill: #ffffff; fill-opacity: 0.00; stroke: none;" id="ezcGraphPolygon_151"/><text id="ezcGraphTextBox_88_text" x="333.3143" text-length="24.8000px" y="91.9560" style="font-size: 10px; font-family: 'Arial'; fill: #2e3436; fill-opacity: 1.00; stroke: none;">93.5</text></g><g id="ezcGraphTextBox_90"><path d=" M 378.5286,177.9184 L 378.5286,166.4184 L 404.8286,166.4184 L 404.8286,177.9184 L 378.5286,177.9184 z " style="fill: #ffffff; fill-opacity: 0.00; stroke: none;" id="ezcGraphPolygon_152"/><text id="ezcGraphTextBox_90_text" x="379.0286" text-length="24.8000px" y="175.4184" style="font-size: 10px; font-family: 'Arial'; fill: #2e3436; fill-opacity: 1.00; stroke: none;">65.9</text></g><g id="ezcGraphTextBox_92"><path d=" M 424.2429,238.3984 L 424.2429,226.8984 L 450.5429,226.8984 L 450.5429,238.3984 L 424.2429,238.3984 z " style="fill: #ffffff; fill-opacity: 0.00; stroke: none;" id="ezcGraphPolygon_153"/><text id="ezcGraphTextBox_92_text" x="424.7429" text-length="24.8000px" y="235.8984" style="font-size: 10px; font-family: 'Arial'; fill: #2e3436; fill-opacity: 1.00; stroke: none;">45.9</text></g></g></svg>
