<?xml version="1.0"?>
<svg xmlns="http://www.w3.org/2000/svg" width="500" height="420" version="1.0" id="ezcGraph"><defs/><g id="ezcGraphChart" color-rendering="optimizeQuality" shape-rendering="geometricPrecision" text-rendering="optimizeLegibility"><path d=" M 0.0000,420.0000 L 0.0000,0.0000 L 500.0000,0.0000 L 500.0000,420.0000 L 0.0000,420.0000 z " style="fill: #eeeeec; fill-opacity: 1.00; stroke: none;" id="ezcGraphPolygon_1"/><path d=" M 0.0000,42.0000 L 0.0000,0.0000 L 500.0000,0.0000 L 500.0000,42.0000 L 0.0000,42.0000 z " style="fill: #000000; fill-opacity: 0.00; stroke: none;" id="ezcGraphPolygon_2"/><path d=" M 0.0000,420.0000 L 0.0000,42.0000 L 100.0000,42.0000 L 100.0000,420.0000 L 0.0000,420.0000 z " style="fill: #000000; fill-opacity: 0.00; stroke: none;" id="ezcGraphPolygon_4"/><path d=" M 2.0000,58.0000 L 2.0000,44.0000 L 16.0000,44.0000 L 16.0000,58.0000 L 2.0000,58.0000 z " style="fill: #3465a4; fill-opacity: 1.00; stroke: none; cursor: pointer;" id="ezcGraphPolygon_5" onclick="top.location = 'https://bsd-hardware.info/?view=computers&amp;f=cpu_family&amp;v=Other&amp;p=99'"/><path d=" M 2.0000,76.0000 L 2.0000,62.0000 L 16.0000,62.0000 L 16.0000,76.0000 L 2.0000,76.0000 z " style="fill: #4e9a06; fill-opacity: 1.00; stroke: none; cursor: pointer;" id="ezcGraphPolygon_7" onclick="top.location = 'https://bsd-hardware.info/?view=computers&amp;f=cpu_family&amp;v=Intel+Xeon&amp;p=99'"/><path d=" M 2.0000,94.0000 L 2.0000,80.0000 L 16.0000,80.0000 L 16.0000,94.0000 L 2.0000,94.0000 z " style="fill: #cc0000; fill-opacity: 1.00; stroke: none; cursor: pointer;" id="ezcGraphPolygon_9" onclick="top.location = 'https://bsd-hardware.info/?view=computers&amp;f=cpu_family&amp;v=Intel+Core+i9&amp;p=99'"/><path d=" M 2.0000,112.0000 L 2.0000,98.0000 L 16.0000,98.0000 L 16.0000,112.0000 L 2.0000,112.0000 z " style="fill: #edd400; fill-opacity: 1.00; stroke: none; cursor: pointer;" id="ezcGraphPolygon_11" onclick="top.location = 'https://bsd-hardware.info/?view=computers&amp;f=cpu_family&amp;v=Intel+Core+i5&amp;p=99'"/><path d=" M 2.0000,130.0000 L 2.0000,116.0000 L 16.0000,116.0000 L 16.0000,130.0000 L 2.0000,130.0000 z " style="fill: #75505b; fill-opacity: 1.00; stroke: none; cursor: pointer;" id="ezcGraphPolygon_13" onclick="top.location = 'https://bsd-hardware.info/?view=computers&amp;f=cpu_family&amp;v=Intel+Xeon+Silver&amp;p=99'"/><path d=" M 2.0000,148.0000 L 2.0000,134.0000 L 16.0000,134.0000 L 16.0000,148.0000 L 2.0000,148.0000 z " style="fill: #f57900; fill-opacity: 1.00; stroke: none;" id="ezcGraphPolygon_15"/><path d=" M 100.0000,382.2000 L 500.0000,382.2000" style="fill: none; stroke: #2e3436; stroke-width: 1; stroke-opacity: 1.00; stroke-linecap: round; stroke-linejoin: round;" id="ezcGraphLine_17"/><path d=" M 492.0000,378.2000 L 500.0000,382.2000 L 492.0000,386.2000 L 492.0000,378.2000 z " style="fill: #2e3436; fill-opacity: 1.00; stroke: none;" id="ezcGraphPolygon_18"/><path d=" M 185.7143,79.8000 L 185.7143,382.2000" style="fill: none; stroke: #000000; stroke-width: 1; stroke-opacity: 0.00; stroke-linecap: round; stroke-linejoin: round;" id="ezcGraphLine_21"/><path d=" M 185.7143,379.2000 L 185.7143,385.2000" style="fill: none; stroke: #2e3436; stroke-width: 1; stroke-opacity: 1.00; stroke-linecap: round; stroke-linejoin: round;" id="ezcGraphLine_22"/><path d=" M 231.4286,79.8000 L 231.4286,382.2000" style="fill: none; stroke: #000000; stroke-width: 1; stroke-opacity: 0.00; stroke-linecap: round; stroke-linejoin: round;" id="ezcGraphLine_24"/><path d=" M 231.4286,379.2000 L 231.4286,385.2000" style="fill: none; stroke: #2e3436; stroke-width: 1; stroke-opacity: 1.00; stroke-linecap: round; stroke-linejoin: round;" id="ezcGraphLine_25"/><path d=" M 277.1429,79.8000 L 277.1429,382.2000" style="fill: none; stroke: #000000; stroke-width: 1; stroke-opacity: 0.00; stroke-linecap: round; stroke-linejoin: round;" id="ezcGraphLine_27"/><path d=" M 277.1429,379.2000 L 277.1429,385.2000" style="fill: none; stroke: #2e3436; stroke-width: 1; stroke-opacity: 1.00; stroke-linecap: round; stroke-linejoin: round;" id="ezcGraphLine_28"/><path d=" M 322.8571,79.8000 L 322.8571,382.2000" style="fill: none; stroke: #000000; stroke-width: 1; stroke-opacity: 0.00; stroke-linecap: round; stroke-linejoin: round;" id="ezcGraphLine_30"/><path d=" M 322.8571,379.2000 L 322.8571,385.2000" style="fill: none; stroke: #2e3436; stroke-width: 1; stroke-opacity: 1.00; stroke-linecap: round; stroke-linejoin: round;" id="ezcGraphLine_31"/><path d=" M 368.5714,79.8000 L 368.5714,382.2000" style="fill: none; stroke: #000000; stroke-width: 1; stroke-opacity: 0.00; stroke-linecap: round; stroke-linejoin: round;" id="ezcGraphLine_33"/><path d=" M 368.5714,379.2000 L 368.5714,385.2000" style="fill: none; stroke: #2e3436; stroke-width: 1; stroke-opacity: 1.00; stroke-linecap: round; stroke-linejoin: round;" id="ezcGraphLine_34"/><path d=" M 414.2857,79.8000 L 414.2857,382.2000" style="fill: none; stroke: #000000; stroke-width: 1; stroke-opacity: 0.00; stroke-linecap: round; stroke-linejoin: round;" id="ezcGraphLine_36"/><path d=" M 414.2857,379.2000 L 414.2857,385.2000" style="fill: none; stroke: #2e3436; stroke-width: 1; stroke-opacity: 1.00; stroke-linecap: round; stroke-linejoin: round;" id="ezcGraphLine_37"/><path d=" M 460.0000,79.8000 L 460.0000,382.2000" style="fill: none; stroke: #000000; stroke-width: 1; stroke-opacity: 0.00; stroke-linecap: round; stroke-linejoin: round;" id="ezcGraphLine_39"/><path d=" M 460.0000,379.2000 L 460.0000,385.2000" style="fill: none; stroke: #2e3436; stroke-width: 1; stroke-opacity: 1.00; stroke-linecap: round; stroke-linejoin: round;" id="ezcGraphLine_40"/><path d=" M 140.0000,420.0000 L 140.0000,42.0000" style="fill: none; stroke: #2e3436; stroke-width: 1; stroke-opacity: 1.00; stroke-linecap: round; stroke-linejoin: round;" id="ezcGraphLine_41"/><path d=" M 136.0000,50.0000 L 140.0000,42.0000 L 144.0000,50.0000 L 136.0000,50.0000 z " style="fill: #2e3436; fill-opacity: 1.00; stroke: none;" id="ezcGraphPolygon_42"/><path d=" M 140.0000,231.0000 L 460.0000,231.0000" style="fill: none; stroke: #000000; stroke-width: 1; stroke-opacity: 0.00; stroke-linecap: round; stroke-linejoin: round;" id="ezcGraphLine_45"/><path d=" M 140.0000,231.0000 L 143.0000,231.0000" style="fill: none; stroke: #2e3436; stroke-width: 1; stroke-opacity: 1.00; stroke-linecap: round; stroke-linejoin: round;" id="ezcGraphLine_46"/><path d=" M 140.0000,79.8000 L 460.0000,79.8000" style="fill: none; stroke: #000000; stroke-width: 1; stroke-opacity: 0.00; stroke-linecap: round; stroke-linejoin: round;" id="ezcGraphLine_48"/><path d=" M 140.0000,79.8000 L 143.0000,79.8000" style="fill: none; stroke: #2e3436; stroke-width: 1; stroke-opacity: 1.00; stroke-linecap: round; stroke-linejoin: round;" id="ezcGraphLine_49"/><path d=" M 162.8571,227.9760 L 162.8571,227.9760" style="fill: none; stroke: #3465a4; stroke-width: 1; stroke-opacity: 1.00; stroke-linecap: round; stroke-linejoin: round;" id="ezcGraphLine_51"/><path d=" M 162.8571,227.9760 L 208.5714,224.3472" style="fill: none; stroke: #3465a4; stroke-width: 1; stroke-opacity: 1.00; stroke-linecap: round; stroke-linejoin: round;" id="ezcGraphLine_53"/><path d=" M 208.5714,224.3472 L 254.2857,204.3888" style="fill: none; stroke: #3465a4; stroke-width: 1; stroke-opacity: 1.00; stroke-linecap: round; stroke-linejoin: round;" id="ezcGraphLine_55"/><path d=" M 254.2857,204.3888 L 300.0000,227.0688" style="fill: none; stroke: #3465a4; stroke-width: 1; stroke-opacity: 1.00; stroke-linecap: round; stroke-linejoin: round;" id="ezcGraphLine_57"/><path d=" M 300.0000,227.0688 L 345.7143,196.8288" style="fill: none; stroke: #3465a4; stroke-width: 1; stroke-opacity: 1.00; stroke-linecap: round; stroke-linejoin: round;" id="ezcGraphLine_59"/><path d=" M 345.7143,196.8288 L 391.4286,197.7360" style="fill: none; stroke: #3465a4; stroke-width: 1; stroke-opacity: 1.00; stroke-linecap: round; stroke-linejoin: round;" id="ezcGraphLine_61"/><path d=" M 391.4286,197.7360 L 437.1429,218.6016" style="fill: none; stroke: #3465a4; stroke-width: 1; stroke-opacity: 1.00; stroke-linecap: round; stroke-linejoin: round;" id="ezcGraphLine_63"/><path d=" M 162.8571,326.5584 L 162.8571,326.5584" style="fill: none; stroke: #4e9a06; stroke-width: 1; stroke-opacity: 1.00; stroke-linecap: round; stroke-linejoin: round;" id="ezcGraphLine_65"/><path d=" M 162.8571,326.5584 L 208.5714,342.8880" style="fill: none; stroke: #4e9a06; stroke-width: 1; stroke-opacity: 1.00; stroke-linecap: round; stroke-linejoin: round;" id="ezcGraphLine_67"/><path d=" M 208.5714,342.8880 L 254.2857,346.5168" style="fill: none; stroke: #4e9a06; stroke-width: 1; stroke-opacity: 1.00; stroke-linecap: round; stroke-linejoin: round;" id="ezcGraphLine_69"/><path d=" M 254.2857,346.5168 L 300.0000,320.2080" style="fill: none; stroke: #4e9a06; stroke-width: 1; stroke-opacity: 1.00; stroke-linecap: round; stroke-linejoin: round;" id="ezcGraphLine_71"/><path d=" M 300.0000,320.2080 L 345.7143,352.8672" style="fill: none; stroke: #4e9a06; stroke-width: 1; stroke-opacity: 1.00; stroke-linecap: round; stroke-linejoin: round;" id="ezcGraphLine_73"/><path d=" M 345.7143,352.8672 L 391.4286,330.4896" style="fill: none; stroke: #4e9a06; stroke-width: 1; stroke-opacity: 1.00; stroke-linecap: round; stroke-linejoin: round;" id="ezcGraphLine_75"/><path d=" M 391.4286,330.4896 L 437.1429,325.0464" style="fill: none; stroke: #4e9a06; stroke-width: 1; stroke-opacity: 1.00; stroke-linecap: round; stroke-linejoin: round;" id="ezcGraphLine_77"/><path d=" M 254.2857,373.4304 L 254.2857,373.4304" style="fill: none; stroke: #cc0000; stroke-width: 1; stroke-opacity: 1.00; stroke-linecap: round; stroke-linejoin: round;" id="ezcGraphLine_79"/><path d=" M 254.2857,373.4304 L 437.1429,365.8704" style="fill: none; stroke: #cc0000; stroke-width: 1; stroke-opacity: 1.00; stroke-linecap: round; stroke-linejoin: round;" id="ezcGraphLine_81"/><path d=" M 162.8571,363.7536 L 162.8571,363.7536" style="fill: none; stroke: #edd400; stroke-width: 1; stroke-opacity: 1.00; stroke-linecap: round; stroke-linejoin: round;" id="ezcGraphLine_83"/><path d=" M 162.8571,363.7536 L 208.5714,329.5824" style="fill: none; stroke: #edd400; stroke-width: 1; stroke-opacity: 1.00; stroke-linecap: round; stroke-linejoin: round;" id="ezcGraphLine_85"/><path d=" M 208.5714,329.5824 L 300.0000,358.9152" style="fill: none; stroke: #edd400; stroke-width: 1; stroke-opacity: 1.00; stroke-linecap: round; stroke-linejoin: round;" id="ezcGraphLine_87"/><path d=" M 300.0000,358.9152 L 345.7143,372.5232" style="fill: none; stroke: #edd400; stroke-width: 1; stroke-opacity: 1.00; stroke-linecap: round; stroke-linejoin: round;" id="ezcGraphLine_89"/><path d=" M 345.7143,372.5232 L 391.4286,367.3824" style="fill: none; stroke: #edd400; stroke-width: 1; stroke-opacity: 1.00; stroke-linecap: round; stroke-linejoin: round;" id="ezcGraphLine_91"/><path d=" M 391.4286,367.3824 L 437.1429,365.8704" style="fill: none; stroke: #edd400; stroke-width: 1; stroke-opacity: 1.00; stroke-linecap: round; stroke-linejoin: round;" id="ezcGraphLine_93"/><path d=" M 162.8571,376.1520 L 162.8571,376.1520" style="fill: none; stroke: #75505b; stroke-width: 1; stroke-opacity: 1.00; stroke-linecap: round; stroke-linejoin: round;" id="ezcGraphLine_95"/><path d=" M 162.8571,376.1520 L 208.5714,369.1968" style="fill: none; stroke: #75505b; stroke-width: 1; stroke-opacity: 1.00; stroke-linecap: round; stroke-linejoin: round;" id="ezcGraphLine_97"/><path d=" M 208.5714,369.1968 L 300.0000,374.3376" style="fill: none; stroke: #75505b; stroke-width: 1; stroke-opacity: 1.00; stroke-linecap: round; stroke-linejoin: round;" id="ezcGraphLine_99"/><path d=" M 300.0000,374.3376 L 437.1429,374.0352" style="fill: none; stroke: #75505b; stroke-width: 1; stroke-opacity: 1.00; stroke-linecap: round; stroke-linejoin: round;" id="ezcGraphLine_101"/><path d=" M 162.8571,314.4624 L 162.8571,314.4624" style="fill: none; stroke: #f57900; stroke-width: 1; stroke-opacity: 1.00; stroke-linecap: round; stroke-linejoin: round;" id="ezcGraphLine_103"/><path d=" M 162.8571,314.4624 L 208.5714,342.8880" style="fill: none; stroke: #f57900; stroke-width: 1; stroke-opacity: 1.00; stroke-linecap: round; stroke-linejoin: round;" id="ezcGraphLine_105"/><path d=" M 208.5714,342.8880 L 254.2857,302.0640" style="fill: none; stroke: #f57900; stroke-width: 1; stroke-opacity: 1.00; stroke-linecap: round; stroke-linejoin: round;" id="ezcGraphLine_107"/><path d=" M 254.2857,302.0640 L 300.0000,328.0704" style="fill: none; stroke: #f57900; stroke-width: 1; stroke-opacity: 1.00; stroke-linecap: round; stroke-linejoin: round;" id="ezcGraphLine_109"/><path d=" M 300.0000,328.0704 L 345.7143,304.1808" style="fill: none; stroke: #f57900; stroke-width: 1; stroke-opacity: 1.00; stroke-linecap: round; stroke-linejoin: round;" id="ezcGraphLine_111"/><path d=" M 345.7143,304.1808 L 391.4286,330.4896" style="fill: none; stroke: #f57900; stroke-width: 1; stroke-opacity: 1.00; stroke-linecap: round; stroke-linejoin: round;" id="ezcGraphLine_113"/><path d=" M 391.4286,330.4896 L 437.1429,341.3760" style="fill: none; stroke: #f57900; stroke-width: 1; stroke-opacity: 1.00; stroke-linecap: round; stroke-linejoin: round;" id="ezcGraphLine_115"/><path d=" M 159.8571,230.9760 L 159.8571,224.9760 L 165.8571,224.9760 L 165.8571,230.9760 L 159.8571,230.9760 z " style="fill: #3465a4; fill-opacity: 1.00; stroke: none; cursor: pointer;" id="ezcGraphPolygon_117" onclick="top.location = 'https://bsd-hardware.info/?view=computers&amp;f=cpu_family&amp;v=Other&amp;p=99&amp;p=87'"/><path d=" M 205.5714,227.3472 L 205.5714,221.3472 L 211.5714,221.3472 L 211.5714,227.3472 L 205.5714,227.3472 z " style="fill: #3465a4; fill-opacity: 1.00; stroke: none; cursor: pointer;" id="ezcGraphPolygon_118" onclick="top.location = 'https://bsd-hardware.info/?view=computers&amp;f=cpu_family&amp;v=Other&amp;p=99&amp;p=89'"/><path d=" M 251.2857,207.3888 L 251.2857,201.3888 L 257.2857,201.3888 L 257.2857,207.3888 L 251.2857,207.3888 z " style="fill: #3465a4; fill-opacity: 1.00; stroke: none; cursor: pointer;" id="ezcGraphPolygon_119" onclick="top.location = 'https://bsd-hardware.info/?view=computers&amp;f=cpu_family&amp;v=Other&amp;p=99&amp;p=91'"/><path d=" M 297.0000,230.0688 L 297.0000,224.0688 L 303.0000,224.0688 L 303.0000,230.0688 L 297.0000,230.0688 z " style="fill: #3465a4; fill-opacity: 1.00; stroke: none; cursor: pointer;" id="ezcGraphPolygon_120" onclick="top.location = 'https://bsd-hardware.info/?view=computers&amp;f=cpu_family&amp;v=Other&amp;p=99&amp;p=93'"/><path d=" M 342.7143,199.8288 L 342.7143,193.8288 L 348.7143,193.8288 L 348.7143,199.8288 L 342.7143,199.8288 z " style="fill: #3465a4; fill-opacity: 1.00; stroke: none; cursor: pointer;" id="ezcGraphPolygon_121" onclick="top.location = 'https://bsd-hardware.info/?view=computers&amp;f=cpu_family&amp;v=Other&amp;p=99&amp;p=95'"/><path d=" M 388.4286,200.7360 L 388.4286,194.7360 L 394.4286,194.7360 L 394.4286,200.7360 L 388.4286,200.7360 z " style="fill: #3465a4; fill-opacity: 1.00; stroke: none; cursor: pointer;" id="ezcGraphPolygon_122" onclick="top.location = 'https://bsd-hardware.info/?view=computers&amp;f=cpu_family&amp;v=Other&amp;p=99&amp;p=97'"/><path d=" M 434.1429,221.6016 L 434.1429,215.6016 L 440.1429,215.6016 L 440.1429,221.6016 L 434.1429,221.6016 z " style="fill: #3465a4; fill-opacity: 1.00; stroke: none; cursor: pointer;" id="ezcGraphPolygon_123" onclick="top.location = 'https://bsd-hardware.info/?view=computers&amp;f=cpu_family&amp;v=Other&amp;p=99&amp;p=99'"/><path d=" M 159.8571,329.5584 L 159.8571,323.5584 L 165.8571,323.5584 L 165.8571,329.5584 L 159.8571,329.5584 z " style="fill: #4e9a06; fill-opacity: 1.00; stroke: none; cursor: pointer;" id="ezcGraphPolygon_124" onclick="top.location = 'https://bsd-hardware.info/?view=computers&amp;f=cpu_family&amp;v=Intel+Xeon&amp;p=99&amp;p=87'"/><path d=" M 205.5714,345.8880 L 205.5714,339.8880 L 211.5714,339.8880 L 211.5714,345.8880 L 205.5714,345.8880 z " style="fill: #4e9a06; fill-opacity: 1.00; stroke: none; cursor: pointer;" id="ezcGraphPolygon_125" onclick="top.location = 'https://bsd-hardware.info/?view=computers&amp;f=cpu_family&amp;v=Intel+Xeon&amp;p=99&amp;p=89'"/><path d=" M 251.2857,349.5168 L 251.2857,343.5168 L 257.2857,343.5168 L 257.2857,349.5168 L 251.2857,349.5168 z " style="fill: #4e9a06; fill-opacity: 1.00; stroke: none; cursor: pointer;" id="ezcGraphPolygon_126" onclick="top.location = 'https://bsd-hardware.info/?view=computers&amp;f=cpu_family&amp;v=Intel+Xeon&amp;p=99&amp;p=91'"/><path d=" M 297.0000,323.2080 L 297.0000,317.2080 L 303.0000,317.2080 L 303.0000,323.2080 L 297.0000,323.2080 z " style="fill: #4e9a06; fill-opacity: 1.00; stroke: none; cursor: pointer;" id="ezcGraphPolygon_127" onclick="top.location = 'https://bsd-hardware.info/?view=computers&amp;f=cpu_family&amp;v=Intel+Xeon&amp;p=99&amp;p=93'"/><path d=" M 342.7143,355.8672 L 342.7143,349.8672 L 348.7143,349.8672 L 348.7143,355.8672 L 342.7143,355.8672 z " style="fill: #4e9a06; fill-opacity: 1.00; stroke: none; cursor: pointer;" id="ezcGraphPolygon_128" onclick="top.location = 'https://bsd-hardware.info/?view=computers&amp;f=cpu_family&amp;v=Intel+Xeon&amp;p=99&amp;p=95'"/><path d=" M 388.4286,333.4896 L 388.4286,327.4896 L 394.4286,327.4896 L 394.4286,333.4896 L 388.4286,333.4896 z " style="fill: #4e9a06; fill-opacity: 1.00; stroke: none; cursor: pointer;" id="ezcGraphPolygon_129" onclick="top.location = 'https://bsd-hardware.info/?view=computers&amp;f=cpu_family&amp;v=Intel+Xeon&amp;p=99&amp;p=97'"/><path d=" M 434.1429,328.0464 L 434.1429,322.0464 L 440.1429,322.0464 L 440.1429,328.0464 L 434.1429,328.0464 z " style="fill: #4e9a06; fill-opacity: 1.00; stroke: none; cursor: pointer;" id="ezcGraphPolygon_130" onclick="top.location = 'https://bsd-hardware.info/?view=computers&amp;f=cpu_family&amp;v=Intel+Xeon&amp;p=99&amp;p=99'"/><path d=" M 251.2857,376.4304 L 251.2857,370.4304 L 257.2857,370.4304 L 257.2857,376.4304 L 251.2857,376.4304 z " style="fill: #cc0000; fill-opacity: 1.00; stroke: none; cursor: pointer;" id="ezcGraphPolygon_131" onclick="top.location = 'https://bsd-hardware.info/?view=computers&amp;f=cpu_family&amp;v=Intel+Core+i9&amp;p=99&amp;p=91'"/><path d=" M 434.1429,368.8704 L 434.1429,362.8704 L 440.1429,362.8704 L 440.1429,368.8704 L 434.1429,368.8704 z " style="fill: #cc0000; fill-opacity: 1.00; stroke: none; cursor: pointer;" id="ezcGraphPolygon_132" onclick="top.location = 'https://bsd-hardware.info/?view=computers&amp;f=cpu_family&amp;v=Intel+Core+i9&amp;p=99&amp;p=99'"/><path d=" M 159.8571,366.7536 L 159.8571,360.7536 L 165.8571,360.7536 L 165.8571,366.7536 L 159.8571,366.7536 z " style="fill: #edd400; fill-opacity: 1.00; stroke: none; cursor: pointer;" id="ezcGraphPolygon_133" onclick="top.location = 'https://bsd-hardware.info/?view=computers&amp;f=cpu_family&amp;v=Intel+Core+i5&amp;p=99&amp;p=87'"/><path d=" M 205.5714,332.5824 L 205.5714,326.5824 L 211.5714,326.5824 L 211.5714,332.5824 L 205.5714,332.5824 z " style="fill: #edd400; fill-opacity: 1.00; stroke: none; cursor: pointer;" id="ezcGraphPolygon_134" onclick="top.location = 'https://bsd-hardware.info/?view=computers&amp;f=cpu_family&amp;v=Intel+Core+i5&amp;p=99&amp;p=89'"/><path d=" M 297.0000,361.9152 L 297.0000,355.9152 L 303.0000,355.9152 L 303.0000,361.9152 L 297.0000,361.9152 z " style="fill: #edd400; fill-opacity: 1.00; stroke: none; cursor: pointer;" id="ezcGraphPolygon_135" onclick="top.location = 'https://bsd-hardware.info/?view=computers&amp;f=cpu_family&amp;v=Intel+Core+i5&amp;p=99&amp;p=93'"/><path d=" M 342.7143,375.5232 L 342.7143,369.5232 L 348.7143,369.5232 L 348.7143,375.5232 L 342.7143,375.5232 z " style="fill: #edd400; fill-opacity: 1.00; stroke: none; cursor: pointer;" id="ezcGraphPolygon_136" onclick="top.location = 'https://bsd-hardware.info/?view=computers&amp;f=cpu_family&amp;v=Intel+Core+i5&amp;p=99&amp;p=95'"/><path d=" M 388.4286,370.3824 L 388.4286,364.3824 L 394.4286,364.3824 L 394.4286,370.3824 L 388.4286,370.3824 z " style="fill: #edd400; fill-opacity: 1.00; stroke: none; cursor: pointer;" id="ezcGraphPolygon_137" onclick="top.location = 'https://bsd-hardware.info/?view=computers&amp;f=cpu_family&amp;v=Intel+Core+i5&amp;p=99&amp;p=97'"/><path d=" M 434.1429,368.8704 L 434.1429,362.8704 L 440.1429,362.8704 L 440.1429,368.8704 L 434.1429,368.8704 z " style="fill: #edd400; fill-opacity: 1.00; stroke: none; cursor: pointer;" id="ezcGraphPolygon_138" onclick="top.location = 'https://bsd-hardware.info/?view=computers&amp;f=cpu_family&amp;v=Intel+Core+i5&amp;p=99&amp;p=99'"/><path d=" M 159.8571,379.1520 L 159.8571,373.1520 L 165.8571,373.1520 L 165.8571,379.1520 L 159.8571,379.1520 z " style="fill: #75505b; fill-opacity: 1.00; stroke: none; cursor: pointer;" id="ezcGraphPolygon_139" onclick="top.location = 'https://bsd-hardware.info/?view=computers&amp;f=cpu_family&amp;v=Intel+Xeon+Silver&amp;p=99&amp;p=87'"/><path d=" M 205.5714,372.1968 L 205.5714,366.1968 L 211.5714,366.1968 L 211.5714,372.1968 L 205.5714,372.1968 z " style="fill: #75505b; fill-opacity: 1.00; stroke: none; cursor: pointer;" id="ezcGraphPolygon_140" onclick="top.location = 'https://bsd-hardware.info/?view=computers&amp;f=cpu_family&amp;v=Intel+Xeon+Silver&amp;p=99&amp;p=89'"/><path d=" M 297.0000,377.3376 L 297.0000,371.3376 L 303.0000,371.3376 L 303.0000,377.3376 L 297.0000,377.3376 z " style="fill: #75505b; fill-opacity: 1.00; stroke: none; cursor: pointer;" id="ezcGraphPolygon_141" onclick="top.location = 'https://bsd-hardware.info/?view=computers&amp;f=cpu_family&amp;v=Intel+Xeon+Silver&amp;p=99&amp;p=93'"/><path d=" M 434.1429,377.0352 L 434.1429,371.0352 L 440.1429,371.0352 L 440.1429,377.0352 L 434.1429,377.0352 z " style="fill: #75505b; fill-opacity: 1.00; stroke: none; cursor: pointer;" id="ezcGraphPolygon_142" onclick="top.location = 'https://bsd-hardware.info/?view=computers&amp;f=cpu_family&amp;v=Intel+Xeon+Silver&amp;p=99&amp;p=99'"/><path d=" M 159.8571,317.4624 L 159.8571,311.4624 L 165.8571,311.4624 L 165.8571,317.4624 L 159.8571,317.4624 z " style="fill: #f57900; fill-opacity: 1.00; stroke: none;" id="ezcGraphPolygon_143"/><path d=" M 205.5714,345.8880 L 205.5714,339.8880 L 211.5714,339.8880 L 211.5714,345.8880 L 205.5714,345.8880 z " style="fill: #f57900; fill-opacity: 1.00; stroke: none;" id="ezcGraphPolygon_144"/><path d=" M 251.2857,305.0640 L 251.2857,299.0640 L 257.2857,299.0640 L 257.2857,305.0640 L 251.2857,305.0640 z " style="fill: #f57900; fill-opacity: 1.00; stroke: none;" id="ezcGraphPolygon_145"/><path d=" M 297.0000,331.0704 L 297.0000,325.0704 L 303.0000,325.0704 L 303.0000,331.0704 L 297.0000,331.0704 z " style="fill: #f57900; fill-opacity: 1.00; stroke: none;" id="ezcGraphPolygon_146"/><path d=" M 342.7143,307.1808 L 342.7143,301.1808 L 348.7143,301.1808 L 348.7143,307.1808 L 342.7143,307.1808 z " style="fill: #f57900; fill-opacity: 1.00; stroke: none;" id="ezcGraphPolygon_147"/><path d=" M 388.4286,333.4896 L 388.4286,327.4896 L 394.4286,327.4896 L 394.4286,333.4896 L 388.4286,333.4896 z " style="fill: #f57900; fill-opacity: 1.00; stroke: none;" id="ezcGraphPolygon_148"/><path d=" M 434.1429,344.3760 L 434.1429,338.3760 L 440.1429,338.3760 L 440.1429,344.3760 L 434.1429,344.3760 z " style="fill: #f57900; fill-opacity: 1.00; stroke: none;" id="ezcGraphPolygon_149"/><g id="ezcGraphTextBox_3"><path d=" M 79.9000,42.0000 L 79.9000,0.5000 L 420.6000,0.5000 L 420.6000,42.0000 L 79.9000,42.0000 z " style="fill: #ffffff; fill-opacity: 0.00; stroke: none;" id="ezcGraphPolygon_150"/><text id="ezcGraphTextBox_3_text" x="80.4000" text-length="339.2000px" y="35.0000" style="font-size: 40px; font-family: 'Arial'; fill: #2e3436; fill-opacity: 1.00; stroke: none;">CPU Model Family</text></g><g id="ezcGraphTextBox_6" style=" cursor: pointer;" onclick="top.location = 'https://bsd-hardware.info/?view=computers&amp;f=cpu_family&amp;v=Other&amp;p=99'"><path d=" M 16.5000,58.5000 L 16.5000,44.0000 L 52.4500,44.0000 L 52.4500,58.5000 L 16.5000,58.5000 z " style="fill: #ffffff; fill-opacity: 0.00; stroke: none;" id="ezcGraphPolygon_151"/><text id="ezcGraphTextBox_6_text" x="17.0000" text-length="34.4500px" y="55.5500" style="font-size: 13px; font-family: 'Arial'; fill: #2e3436; fill-opacity: 1.00; stroke: none;">Other</text></g><g id="ezcGraphTextBox_8" style=" cursor: pointer;" onclick="top.location = 'https://bsd-hardware.info/?view=computers&amp;f=cpu_family&amp;v=Intel+Xeon&amp;p=99'"><path d=" M 16.5000,76.5000 L 16.5000,62.0000 L 45.5600,62.0000 L 45.5600,76.5000 L 16.5000,76.5000 z " style="fill: #ffffff; fill-opacity: 0.00; stroke: none;" id="ezcGraphPolygon_152"/><text id="ezcGraphTextBox_8_text" x="17.0000" text-length="27.5600px" y="73.5500" style="font-size: 13px; font-family: 'Arial'; fill: #2e3436; fill-opacity: 1.00; stroke: none;">Xeon</text></g><g id="ezcGraphTextBox_10" style=" cursor: pointer;" onclick="top.location = 'https://bsd-hardware.info/?view=computers&amp;f=cpu_family&amp;v=Intel+Core+i9&amp;p=99'"><path d=" M 16.5000,94.5000 L 16.5000,80.0000 L 66.2300,80.0000 L 66.2300,94.5000 L 16.5000,94.5000 z " style="fill: #ffffff; fill-opacity: 0.00; stroke: none;" id="ezcGraphPolygon_153"/><text id="ezcGraphTextBox_10_text" x="17.0000" text-length="48.2300px" y="91.5500" style="font-size: 13px; font-family: 'Arial'; fill: #2e3436; fill-opacity: 1.00; stroke: none;">Core i9</text></g><g id="ezcGraphTextBox_12" style=" cursor: pointer;" onclick="top.location = 'https://bsd-hardware.info/?view=computers&amp;f=cpu_family&amp;v=Intel+Core+i5&amp;p=99'"><path d=" M 16.5000,112.5000 L 16.5000,98.0000 L 66.2300,98.0000 L 66.2300,112.5000 L 16.5000,112.5000 z " style="fill: #ffffff; fill-opacity: 0.00; stroke: none;" id="ezcGraphPolygon_154"/><text id="ezcGraphTextBox_12_text" x="17.0000" text-length="48.2300px" y="109.5500" style="font-size: 13px; font-family: 'Arial'; fill: #2e3436; fill-opacity: 1.00; stroke: none;">Core i5</text></g><g id="ezcGraphTextBox_14" style=" cursor: pointer;" onclick="top.location = 'https://bsd-hardware.info/?view=computers&amp;f=cpu_family&amp;v=Intel+Xeon+Silver&amp;p=99'"><path d=" M 16.5000,130.5000 L 16.5000,116.0000 L 93.7900,116.0000 L 93.7900,130.5000 L 16.5000,130.5000 z " style="fill: #ffffff; fill-opacity: 0.00; stroke: none;" id="ezcGraphPolygon_155"/><text id="ezcGraphTextBox_14_text" x="17.0000" text-length="75.7900px" y="127.5500" style="font-size: 13px; font-family: 'Arial'; fill: #2e3436; fill-opacity: 1.00; stroke: none;">Xeon Silver</text></g><g id="ezcGraphTextBox_16"><path d=" M 16.5000,148.5000 L 16.5000,134.0000 L 59.3400,134.0000 L 59.3400,148.5000 L 16.5000,148.5000 z " style="fill: #ffffff; fill-opacity: 0.00; stroke: none;" id="ezcGraphPolygon_156"/><text id="ezcGraphTextBox_16_text" x="17.0000" text-length="41.3400px" y="145.5500" style="font-size: 13px; font-family: 'Arial'; fill: #2e3436; fill-opacity: 1.00; stroke: none;">Others</text></g><g id="ezcGraphTextBox_19" transform="rotate( 0.00 493.0000 375.2000 )"><path d=" M 463.0500,381.2000 L 463.0500,366.7000 L 499.0000,366.7000 L 499.0000,381.2000 L 463.0500,381.2000 z " style="fill: #ffffff; fill-opacity: 0.00; stroke: none;" id="ezcGraphPolygon_157"/><text id="ezcGraphTextBox_19_text" x="463.5500" text-length="34.4500px" y="378.2500" style="font-size: 13px; font-family: 'Arial'; fill: #2e3436; fill-opacity: 1.00; stroke: none;">Time </text></g><g id="ezcGraphTextBox_20"><path d=" M 146.2371,411.3000 L 146.2371,383.7000 L 179.9771,383.7000 L 179.9771,411.3000 L 146.2371,411.3000 z " style="fill: #ffffff; fill-opacity: 0.00; stroke: none;" id="ezcGraphPolygon_158"/><text id="ezcGraphTextBox_20_text" x="152.5221" text-length="20.6700px" y="395.2500" style="font-size: 13px; font-family: 'Arial'; fill: #2e3436; fill-opacity: 1.00; stroke: none;">Mar</text><text id="ezcGraphTextBox_20_text" x="146.7371" text-length="32.2400px" y="409.5500" style="font-size: 13px; font-family: 'Arial'; fill: #2e3436; fill-opacity: 1.00; stroke: none;">2021</text></g><g id="ezcGraphTextBox_23"><path d=" M 191.9514,411.3000 L 191.9514,383.7000 L 225.6914,383.7000 L 225.6914,411.3000 L 191.9514,411.3000 z " style="fill: #ffffff; fill-opacity: 0.00; stroke: none;" id="ezcGraphPolygon_159"/><text id="ezcGraphTextBox_23_text" x="198.2364" text-length="20.6700px" y="395.2500" style="font-size: 13px; font-family: 'Arial'; fill: #2e3436; fill-opacity: 1.00; stroke: none;">May</text><text id="ezcGraphTextBox_23_text" x="192.4514" text-length="32.2400px" y="409.5500" style="font-size: 13px; font-family: 'Arial'; fill: #2e3436; fill-opacity: 1.00; stroke: none;">2021</text></g><g id="ezcGraphTextBox_26"><path d=" M 237.6657,411.3000 L 237.6657,383.7000 L 271.4057,383.7000 L 271.4057,411.3000 L 237.6657,411.3000 z " style="fill: #ffffff; fill-opacity: 0.00; stroke: none;" id="ezcGraphPolygon_160"/><text id="ezcGraphTextBox_26_text" x="243.9507" text-length="20.6700px" y="395.2500" style="font-size: 13px; font-family: 'Arial'; fill: #2e3436; fill-opacity: 1.00; stroke: none;">Jul</text><text id="ezcGraphTextBox_26_text" x="238.1657" text-length="32.2400px" y="409.5500" style="font-size: 13px; font-family: 'Arial'; fill: #2e3436; fill-opacity: 1.00; stroke: none;">2021</text></g><g id="ezcGraphTextBox_29"><path d=" M 283.3800,411.3000 L 283.3800,383.7000 L 317.1200,383.7000 L 317.1200,411.3000 L 283.3800,411.3000 z " style="fill: #ffffff; fill-opacity: 0.00; stroke: none;" id="ezcGraphPolygon_161"/><text id="ezcGraphTextBox_29_text" x="289.6650" text-length="20.6700px" y="395.2500" style="font-size: 13px; font-family: 'Arial'; fill: #2e3436; fill-opacity: 1.00; stroke: none;">Sep</text><text id="ezcGraphTextBox_29_text" x="283.8800" text-length="32.2400px" y="409.5500" style="font-size: 13px; font-family: 'Arial'; fill: #2e3436; fill-opacity: 1.00; stroke: none;">2021</text></g><g id="ezcGraphTextBox_32"><path d=" M 329.0943,411.3000 L 329.0943,383.7000 L 362.8343,383.7000 L 362.8343,411.3000 L 329.0943,411.3000 z " style="fill: #ffffff; fill-opacity: 0.00; stroke: none;" id="ezcGraphPolygon_162"/><text id="ezcGraphTextBox_32_text" x="335.3793" text-length="20.6700px" y="395.2500" style="font-size: 13px; font-family: 'Arial'; fill: #2e3436; fill-opacity: 1.00; stroke: none;">Nov</text><text id="ezcGraphTextBox_32_text" x="329.5943" text-length="32.2400px" y="409.5500" style="font-size: 13px; font-family: 'Arial'; fill: #2e3436; fill-opacity: 1.00; stroke: none;">2021</text></g><g id="ezcGraphTextBox_35"><path d=" M 374.8086,411.3000 L 374.8086,383.7000 L 408.5486,383.7000 L 408.5486,411.3000 L 374.8086,411.3000 z " style="fill: #ffffff; fill-opacity: 0.00; stroke: none;" id="ezcGraphPolygon_163"/><text id="ezcGraphTextBox_35_text" x="381.0936" text-length="20.6700px" y="395.2500" style="font-size: 13px; font-family: 'Arial'; fill: #2e3436; fill-opacity: 1.00; stroke: none;">Jan</text><text id="ezcGraphTextBox_35_text" x="375.3086" text-length="32.2400px" y="409.5500" style="font-size: 13px; font-family: 'Arial'; fill: #2e3436; fill-opacity: 1.00; stroke: none;">2022</text></g><g id="ezcGraphTextBox_38"><path d=" M 420.5229,411.3000 L 420.5229,383.7000 L 454.2629,383.7000 L 454.2629,411.3000 L 420.5229,411.3000 z " style="fill: #ffffff; fill-opacity: 0.00; stroke: none;" id="ezcGraphPolygon_164"/><text id="ezcGraphTextBox_38_text" x="426.8079" text-length="20.6700px" y="395.2500" style="font-size: 13px; font-family: 'Arial'; fill: #2e3436; fill-opacity: 1.00; stroke: none;">Mar</text><text id="ezcGraphTextBox_38_text" x="421.0229" text-length="32.2400px" y="409.5500" style="font-size: 13px; font-family: 'Arial'; fill: #2e3436; fill-opacity: 1.00; stroke: none;">2022</text></g><g id="ezcGraphTextBox_43" transform="rotate( 0.00 147.0000 49.0000 )"><path d=" M 141.5000,58.0000 L 141.5000,43.5000 L 391.0400,43.5000 L 391.0400,58.0000 L 141.5000,58.0000 z " style="fill: #ffffff; fill-opacity: 0.00; stroke: none;" id="ezcGraphPolygon_165"/><text id="ezcGraphTextBox_43_text" x="142.0000" text-length="248.0400px" y="55.0500" style="font-size: 13px; font-family: 'Arial'; fill: #2e3436; fill-opacity: 1.00; stroke: none;">Computers by "CPU Model Family" in %</text></g><g id="ezcGraphTextBox_44"><path d=" M 129.4400,381.2000 L 129.4400,366.7000 L 139.0000,366.7000 L 139.0000,381.2000 L 129.4400,381.2000 z " style="fill: #ffffff; fill-opacity: 0.00; stroke: none;" id="ezcGraphPolygon_166"/><text id="ezcGraphTextBox_44_text" x="129.9400" text-length="8.0600px" y="378.2500" style="font-size: 13px; font-family: 'Arial'; fill: #2e3436; fill-opacity: 1.00; stroke: none;">0</text></g><g id="ezcGraphTextBox_47"><path d=" M 121.3800,230.0000 L 121.3800,215.5000 L 139.0000,215.5000 L 139.0000,230.0000 L 121.3800,230.0000 z " style="fill: #ffffff; fill-opacity: 0.00; stroke: none;" id="ezcGraphPolygon_167"/><text id="ezcGraphTextBox_47_text" x="121.8800" text-length="16.1200px" y="227.0500" style="font-size: 13px; font-family: 'Arial'; fill: #2e3436; fill-opacity: 1.00; stroke: none;">50</text></g><g id="ezcGraphTextBox_50"><path d=" M 113.3200,95.8000 L 113.3200,81.3000 L 139.0000,81.3000 L 139.0000,95.8000 L 113.3200,95.8000 z " style="fill: #ffffff; fill-opacity: 0.00; stroke: none;" id="ezcGraphPolygon_168"/><text id="ezcGraphTextBox_50_text" x="113.8200" text-length="24.1800px" y="92.8500" style="font-size: 13px; font-family: 'Arial'; fill: #2e3436; fill-opacity: 1.00; stroke: none;">100</text></g><g id="ezcGraphTextBox_52"><path d=" M 156.1571,222.9760 L 156.1571,211.4760 L 170.0571,211.4760 L 170.0571,222.9760 L 156.1571,222.9760 z " style="fill: #ffffff; fill-opacity: 0.00; stroke: none;" id="ezcGraphPolygon_169"/><text id="ezcGraphTextBox_52_text" x="156.6571" text-length="12.4000px" y="220.4760" style="font-size: 10px; font-family: 'Arial'; fill: #2e3436; fill-opacity: 1.00; stroke: none;">51</text></g><g id="ezcGraphTextBox_54"><path d=" M 195.6714,219.3472 L 195.6714,207.8472 L 221.9714,207.8472 L 221.9714,219.3472 L 195.6714,219.3472 z " style="fill: #ffffff; fill-opacity: 0.00; stroke: none;" id="ezcGraphPolygon_170"/><text id="ezcGraphTextBox_54_text" x="196.1714" text-length="24.8000px" y="216.8472" style="font-size: 10px; font-family: 'Arial'; fill: #2e3436; fill-opacity: 1.00; stroke: none;">52.2</text></g><g id="ezcGraphTextBox_56"><path d=" M 241.3857,199.3888 L 241.3857,187.8888 L 267.6857,187.8888 L 267.6857,199.3888 L 241.3857,199.3888 z " style="fill: #ffffff; fill-opacity: 0.00; stroke: none;" id="ezcGraphPolygon_171"/><text id="ezcGraphTextBox_56_text" x="241.8857" text-length="24.8000px" y="196.8888" style="font-size: 10px; font-family: 'Arial'; fill: #2e3436; fill-opacity: 1.00; stroke: none;">58.8</text></g><g id="ezcGraphTextBox_58"><path d=" M 287.1000,222.0688 L 287.1000,210.5688 L 313.4000,210.5688 L 313.4000,222.0688 L 287.1000,222.0688 z " style="fill: #ffffff; fill-opacity: 0.00; stroke: none;" id="ezcGraphPolygon_172"/><text id="ezcGraphTextBox_58_text" x="287.6000" text-length="24.8000px" y="219.5688" style="font-size: 10px; font-family: 'Arial'; fill: #2e3436; fill-opacity: 1.00; stroke: none;">51.3</text></g><g id="ezcGraphTextBox_60"><path d=" M 332.8143,191.8288 L 332.8143,180.3288 L 359.1143,180.3288 L 359.1143,191.8288 L 332.8143,191.8288 z " style="fill: #ffffff; fill-opacity: 0.00; stroke: none;" id="ezcGraphPolygon_173"/><text id="ezcGraphTextBox_60_text" x="333.3143" text-length="24.8000px" y="189.3288" style="font-size: 10px; font-family: 'Arial'; fill: #2e3436; fill-opacity: 1.00; stroke: none;">61.3</text></g><g id="ezcGraphTextBox_62"><path d=" M 384.7286,192.7360 L 384.7286,181.2360 L 398.6286,181.2360 L 398.6286,192.7360 L 384.7286,192.7360 z " style="fill: #ffffff; fill-opacity: 0.00; stroke: none;" id="ezcGraphPolygon_174"/><text id="ezcGraphTextBox_62_text" x="385.2286" text-length="12.4000px" y="190.2360" style="font-size: 10px; font-family: 'Arial'; fill: #2e3436; fill-opacity: 1.00; stroke: none;">61</text></g><g id="ezcGraphTextBox_64"><path d=" M 424.2429,213.6016 L 424.2429,202.1016 L 450.5429,202.1016 L 450.5429,213.6016 L 424.2429,213.6016 z " style="fill: #ffffff; fill-opacity: 0.00; stroke: none;" id="ezcGraphPolygon_175"/><text id="ezcGraphTextBox_64_text" x="424.7429" text-length="24.8000px" y="211.1016" style="font-size: 10px; font-family: 'Arial'; fill: #2e3436; fill-opacity: 1.00; stroke: none;">54.1</text></g><g id="ezcGraphTextBox_66"><path d=" M 149.9571,321.5584 L 149.9571,310.0584 L 176.2571,310.0584 L 176.2571,321.5584 L 149.9571,321.5584 z " style="fill: #ffffff; fill-opacity: 0.00; stroke: none;" id="ezcGraphPolygon_176"/><text id="ezcGraphTextBox_66_text" x="150.4571" text-length="24.8000px" y="319.0584" style="font-size: 10px; font-family: 'Arial'; fill: #2e3436; fill-opacity: 1.00; stroke: none;">18.4</text></g><g id="ezcGraphTextBox_68"><path d=" M 201.8714,337.8880 L 201.8714,326.3880 L 215.7714,326.3880 L 215.7714,337.8880 L 201.8714,337.8880 z " style="fill: #ffffff; fill-opacity: 0.00; stroke: none;" id="ezcGraphPolygon_177"/><text id="ezcGraphTextBox_68_text" x="202.3714" text-length="12.4000px" y="335.3880" style="font-size: 10px; font-family: 'Arial'; fill: #2e3436; fill-opacity: 1.00; stroke: none;">13</text></g><g id="ezcGraphTextBox_70"><path d=" M 241.3857,341.5168 L 241.3857,330.0168 L 267.6857,330.0168 L 267.6857,341.5168 L 241.3857,341.5168 z " style="fill: #ffffff; fill-opacity: 0.00; stroke: none;" id="ezcGraphPolygon_178"/><text id="ezcGraphTextBox_70_text" x="241.8857" text-length="24.8000px" y="339.0168" style="font-size: 10px; font-family: 'Arial'; fill: #2e3436; fill-opacity: 1.00; stroke: none;">11.8</text></g><g id="ezcGraphTextBox_72"><path d=" M 287.1000,315.2080 L 287.1000,303.7080 L 313.4000,303.7080 L 313.4000,315.2080 L 287.1000,315.2080 z " style="fill: #ffffff; fill-opacity: 0.00; stroke: none;" id="ezcGraphPolygon_179"/><text id="ezcGraphTextBox_72_text" x="287.6000" text-length="24.8000px" y="312.7080" style="font-size: 10px; font-family: 'Arial'; fill: #2e3436; fill-opacity: 1.00; stroke: none;">20.5</text></g><g id="ezcGraphTextBox_74"><path d=" M 335.9143,347.8672 L 335.9143,336.3672 L 356.0143,336.3672 L 356.0143,347.8672 L 335.9143,347.8672 z " style="fill: #ffffff; fill-opacity: 0.00; stroke: none;" id="ezcGraphPolygon_180"/><text id="ezcGraphTextBox_74_text" x="336.4143" text-length="18.6000px" y="345.3672" style="font-size: 10px; font-family: 'Arial'; fill: #2e3436; fill-opacity: 1.00; stroke: none;">9.7</text></g><g id="ezcGraphTextBox_76"><path d=" M 378.5286,325.4896 L 378.5286,313.9896 L 404.8286,313.9896 L 404.8286,325.4896 L 378.5286,325.4896 z " style="fill: #ffffff; fill-opacity: 0.00; stroke: none;" id="ezcGraphPolygon_181"/><text id="ezcGraphTextBox_76_text" x="379.0286" text-length="24.8000px" y="322.9896" style="font-size: 10px; font-family: 'Arial'; fill: #2e3436; fill-opacity: 1.00; stroke: none;">17.1</text></g><g id="ezcGraphTextBox_78"><path d=" M 424.2429,320.0464 L 424.2429,308.5464 L 450.5429,308.5464 L 450.5429,320.0464 L 424.2429,320.0464 z " style="fill: #ffffff; fill-opacity: 0.00; stroke: none;" id="ezcGraphPolygon_182"/><text id="ezcGraphTextBox_78_text" x="424.7429" text-length="24.8000px" y="317.5464" style="font-size: 10px; font-family: 'Arial'; fill: #2e3436; fill-opacity: 1.00; stroke: none;">18.9</text></g><g id="ezcGraphTextBox_80"><path d=" M 244.4857,368.4304 L 244.4857,356.9304 L 264.5857,356.9304 L 264.5857,368.4304 L 244.4857,368.4304 z " style="fill: #ffffff; fill-opacity: 0.00; stroke: none;" id="ezcGraphPolygon_183"/><text id="ezcGraphTextBox_80_text" x="244.9857" text-length="18.6000px" y="365.9304" style="font-size: 10px; font-family: 'Arial'; fill: #2e3436; fill-opacity: 1.00; stroke: none;">2.9</text></g><g id="ezcGraphTextBox_82"><path d=" M 427.3429,360.8704 L 427.3429,349.3704 L 447.4429,349.3704 L 447.4429,360.8704 L 427.3429,360.8704 z " style="fill: #ffffff; fill-opacity: 0.00; stroke: none;" id="ezcGraphPolygon_184"/><text id="ezcGraphTextBox_82_text" x="427.8429" text-length="18.6000px" y="358.3704" style="font-size: 10px; font-family: 'Arial'; fill: #2e3436; fill-opacity: 1.00; stroke: none;">5.4</text></g><g id="ezcGraphTextBox_84"><path d=" M 153.0571,358.7536 L 153.0571,347.2536 L 173.1571,347.2536 L 173.1571,358.7536 L 153.0571,358.7536 z " style="fill: #ffffff; fill-opacity: 0.00; stroke: none;" id="ezcGraphPolygon_185"/><text id="ezcGraphTextBox_84_text" x="153.5571" text-length="18.6000px" y="356.2536" style="font-size: 10px; font-family: 'Arial'; fill: #2e3436; fill-opacity: 1.00; stroke: none;">6.1</text></g><g id="ezcGraphTextBox_86"><path d=" M 195.6714,324.5824 L 195.6714,313.0824 L 221.9714,313.0824 L 221.9714,324.5824 L 195.6714,324.5824 z " style="fill: #ffffff; fill-opacity: 0.00; stroke: none;" id="ezcGraphPolygon_186"/><text id="ezcGraphTextBox_86_text" x="196.1714" text-length="24.8000px" y="322.0824" style="font-size: 10px; font-family: 'Arial'; fill: #2e3436; fill-opacity: 1.00; stroke: none;">17.4</text></g><g id="ezcGraphTextBox_88"><path d=" M 290.2000,353.9152 L 290.2000,342.4152 L 310.3000,342.4152 L 310.3000,353.9152 L 290.2000,353.9152 z " style="fill: #ffffff; fill-opacity: 0.00; stroke: none;" id="ezcGraphPolygon_187"/><text id="ezcGraphTextBox_88_text" x="290.7000" text-length="18.6000px" y="351.4152" style="font-size: 10px; font-family: 'Arial'; fill: #2e3436; fill-opacity: 1.00; stroke: none;">7.7</text></g><g id="ezcGraphTextBox_90"><path d=" M 335.9143,367.5232 L 335.9143,356.0232 L 356.0143,356.0232 L 356.0143,367.5232 L 335.9143,367.5232 z " style="fill: #ffffff; fill-opacity: 0.00; stroke: none;" id="ezcGraphPolygon_188"/><text id="ezcGraphTextBox_90_text" x="336.4143" text-length="18.6000px" y="365.0232" style="font-size: 10px; font-family: 'Arial'; fill: #2e3436; fill-opacity: 1.00; stroke: none;">3.2</text></g><g id="ezcGraphTextBox_92"><path d=" M 381.6286,362.3824 L 381.6286,350.8824 L 401.7286,350.8824 L 401.7286,362.3824 L 381.6286,362.3824 z " style="fill: #ffffff; fill-opacity: 0.00; stroke: none;" id="ezcGraphPolygon_189"/><text id="ezcGraphTextBox_92_text" x="382.1286" text-length="18.6000px" y="359.8824" style="font-size: 10px; font-family: 'Arial'; fill: #2e3436; fill-opacity: 1.00; stroke: none;">4.9</text></g><g id="ezcGraphTextBox_94"><path d=" M 427.3429,360.8704 L 427.3429,349.3704 L 447.4429,349.3704 L 447.4429,360.8704 L 427.3429,360.8704 z " style="fill: #ffffff; fill-opacity: 0.00; stroke: none;" id="ezcGraphPolygon_190"/><text id="ezcGraphTextBox_94_text" x="427.8429" text-length="18.6000px" y="358.3704" style="font-size: 10px; font-family: 'Arial'; fill: #2e3436; fill-opacity: 1.00; stroke: none;">5.4</text></g><g id="ezcGraphTextBox_96"><path d=" M 159.2571,371.1520 L 159.2571,359.6520 L 166.9571,359.6520 L 166.9571,371.1520 L 159.2571,371.1520 z " style="fill: #ffffff; fill-opacity: 0.00; stroke: none;" id="ezcGraphPolygon_191"/><text id="ezcGraphTextBox_96_text" x="159.7571" text-length="6.2000px" y="368.6520" style="font-size: 10px; font-family: 'Arial'; fill: #2e3436; fill-opacity: 1.00; stroke: none;">2</text></g><g id="ezcGraphTextBox_98"><path d=" M 198.7714,364.1968 L 198.7714,352.6968 L 218.8714,352.6968 L 218.8714,364.1968 L 198.7714,364.1968 z " style="fill: #ffffff; fill-opacity: 0.00; stroke: none;" id="ezcGraphPolygon_192"/><text id="ezcGraphTextBox_98_text" x="199.2714" text-length="18.6000px" y="361.6968" style="font-size: 10px; font-family: 'Arial'; fill: #2e3436; fill-opacity: 1.00; stroke: none;">4.3</text></g><g id="ezcGraphTextBox_100"><path d=" M 290.2000,369.3376 L 290.2000,357.8376 L 310.3000,357.8376 L 310.3000,369.3376 L 290.2000,369.3376 z " style="fill: #ffffff; fill-opacity: 0.00; stroke: none;" id="ezcGraphPolygon_193"/><text id="ezcGraphTextBox_100_text" x="290.7000" text-length="18.6000px" y="366.8376" style="font-size: 10px; font-family: 'Arial'; fill: #2e3436; fill-opacity: 1.00; stroke: none;">2.6</text></g><g id="ezcGraphTextBox_102"><path d=" M 427.3429,369.0352 L 427.3429,357.5352 L 447.4429,357.5352 L 447.4429,369.0352 L 427.3429,369.0352 z " style="fill: #ffffff; fill-opacity: 0.00; stroke: none;" id="ezcGraphPolygon_194"/><text id="ezcGraphTextBox_102_text" x="427.8429" text-length="18.6000px" y="366.5352" style="font-size: 10px; font-family: 'Arial'; fill: #2e3436; fill-opacity: 1.00; stroke: none;">2.7</text></g><g id="ezcGraphTextBox_104"><path d=" M 149.9571,309.4624 L 149.9571,297.9624 L 176.2571,297.9624 L 176.2571,309.4624 L 149.9571,309.4624 z " style="fill: #ffffff; fill-opacity: 0.00; stroke: none;" id="ezcGraphPolygon_195"/><text id="ezcGraphTextBox_104_text" x="150.4571" text-length="24.8000px" y="306.9624" style="font-size: 10px; font-family: 'Arial'; fill: #2e3436; fill-opacity: 1.00; stroke: none;">22.4</text></g><g id="ezcGraphTextBox_106"><path d=" M 201.8714,337.8880 L 201.8714,326.3880 L 215.7714,326.3880 L 215.7714,337.8880 L 201.8714,337.8880 z " style="fill: #ffffff; fill-opacity: 0.00; stroke: none;" id="ezcGraphPolygon_196"/><text id="ezcGraphTextBox_106_text" x="202.3714" text-length="12.4000px" y="335.3880" style="font-size: 10px; font-family: 'Arial'; fill: #2e3436; fill-opacity: 1.00; stroke: none;">13</text></g><g id="ezcGraphTextBox_108"><path d=" M 241.3857,297.0640 L 241.3857,285.5640 L 267.6857,285.5640 L 267.6857,297.0640 L 241.3857,297.0640 z " style="fill: #ffffff; fill-opacity: 0.00; stroke: none;" id="ezcGraphPolygon_197"/><text id="ezcGraphTextBox_108_text" x="241.8857" text-length="24.8000px" y="294.5640" style="font-size: 10px; font-family: 'Arial'; fill: #2e3436; fill-opacity: 1.00; stroke: none;">26.5</text></g><g id="ezcGraphTextBox_110"><path d=" M 287.1000,323.0704 L 287.1000,311.5704 L 313.4000,311.5704 L 313.4000,323.0704 L 287.1000,323.0704 z " style="fill: #ffffff; fill-opacity: 0.00; stroke: none;" id="ezcGraphPolygon_198"/><text id="ezcGraphTextBox_110_text" x="287.6000" text-length="24.8000px" y="320.5704" style="font-size: 10px; font-family: 'Arial'; fill: #2e3436; fill-opacity: 1.00; stroke: none;">17.9</text></g><g id="ezcGraphTextBox_112"><path d=" M 332.8143,299.1808 L 332.8143,287.6808 L 359.1143,287.6808 L 359.1143,299.1808 L 332.8143,299.1808 z " style="fill: #ffffff; fill-opacity: 0.00; stroke: none;" id="ezcGraphPolygon_199"/><text id="ezcGraphTextBox_112_text" x="333.3143" text-length="24.8000px" y="296.6808" style="font-size: 10px; font-family: 'Arial'; fill: #2e3436; fill-opacity: 1.00; stroke: none;">25.8</text></g><g id="ezcGraphTextBox_114"><path d=" M 378.5286,325.4896 L 378.5286,313.9896 L 404.8286,313.9896 L 404.8286,325.4896 L 378.5286,325.4896 z " style="fill: #ffffff; fill-opacity: 0.00; stroke: none;" id="ezcGraphPolygon_200"/><text id="ezcGraphTextBox_114_text" x="379.0286" text-length="24.8000px" y="322.9896" style="font-size: 10px; font-family: 'Arial'; fill: #2e3436; fill-opacity: 1.00; stroke: none;">17.1</text></g><g id="ezcGraphTextBox_116"><path d=" M 424.2429,336.3760 L 424.2429,324.8760 L 450.5429,324.8760 L 450.5429,336.3760 L 424.2429,336.3760 z " style="fill: #ffffff; fill-opacity: 0.00; stroke: none;" id="ezcGraphPolygon_201"/><text id="ezcGraphTextBox_116_text" x="424.7429" text-length="24.8000px" y="333.8760" style="font-size: 10px; font-family: 'Arial'; fill: #2e3436; fill-opacity: 1.00; stroke: none;">13.5</text></g></g></svg>
