<?xml version="1.0"?>
<svg xmlns="http://www.w3.org/2000/svg" width="500" height="420" version="1.0" id="ezcGraph"><defs/><g id="ezcGraphChart" color-rendering="optimizeQuality" shape-rendering="geometricPrecision" text-rendering="optimizeLegibility"><path d=" M 0.0000,420.0000 L 0.0000,0.0000 L 500.0000,0.0000 L 500.0000,420.0000 L 0.0000,420.0000 z " style="fill: #eeeeec; fill-opacity: 1.00; stroke: none;" id="ezcGraphPolygon_1"/><path d=" M 0.0000,42.0000 L 0.0000,0.0000 L 500.0000,0.0000 L 500.0000,42.0000 L 0.0000,42.0000 z " style="fill: #000000; fill-opacity: 0.00; stroke: none;" id="ezcGraphPolygon_2"/><path d=" M 0.0000,420.0000 L 0.0000,42.0000 L 100.0000,42.0000 L 100.0000,420.0000 L 0.0000,420.0000 z " style="fill: #000000; fill-opacity: 0.00; stroke: none;" id="ezcGraphPolygon_4"/><path d=" M 2.0000,58.0000 L 2.0000,44.0000 L 16.0000,44.0000 L 16.0000,58.0000 L 2.0000,58.0000 z " style="fill: #3465a4; fill-opacity: 1.00; stroke: none; cursor: pointer;" id="ezcGraphPolygon_5" onclick="top.location = 'https://bsd-hardware.info/?view=computers&amp;f=net_vendor&amp;v=Red+Hat&amp;p=99'"/><path d=" M 2.0000,76.0000 L 2.0000,62.0000 L 16.0000,62.0000 L 16.0000,76.0000 L 2.0000,76.0000 z " style="fill: #4e9a06; fill-opacity: 1.00; stroke: none; cursor: pointer;" id="ezcGraphPolygon_7" onclick="top.location = 'https://bsd-hardware.info/?view=computers&amp;f=net_vendor&amp;v=Intel&amp;p=99'"/><path d=" M 2.0000,94.0000 L 2.0000,80.0000 L 16.0000,80.0000 L 16.0000,94.0000 L 2.0000,94.0000 z " style="fill: #cc0000; fill-opacity: 1.00; stroke: none; cursor: pointer;" id="ezcGraphPolygon_9" onclick="top.location = 'https://bsd-hardware.info/?view=computers&amp;f=net_vendor&amp;v=VMware&amp;p=99'"/><path d=" M 2.0000,112.0000 L 2.0000,98.0000 L 16.0000,98.0000 L 16.0000,112.0000 L 2.0000,112.0000 z " style="fill: #edd400; fill-opacity: 1.00; stroke: none; cursor: pointer;" id="ezcGraphPolygon_11" onclick="top.location = 'https://bsd-hardware.info/?view=computers&amp;f=net_vendor&amp;v=Realtek+Semiconductor&amp;p=99'"/><path d=" M 2.0000,130.0000 L 2.0000,116.0000 L 16.0000,116.0000 L 16.0000,130.0000 L 2.0000,130.0000 z " style="fill: #75505b; fill-opacity: 1.00; stroke: none; cursor: pointer;" id="ezcGraphPolygon_13" onclick="top.location = 'https://bsd-hardware.info/?view=computers&amp;f=net_vendor&amp;v=Qumranet&amp;p=99'"/><path d=" M 2.0000,148.0000 L 2.0000,134.0000 L 16.0000,134.0000 L 16.0000,148.0000 L 2.0000,148.0000 z " style="fill: #f57900; fill-opacity: 1.00; stroke: none;" id="ezcGraphPolygon_15"/><path d=" M 100.0000,382.2000 L 500.0000,382.2000" style="fill: none; stroke: #2e3436; stroke-width: 1; stroke-opacity: 1.00; stroke-linecap: round; stroke-linejoin: round;" id="ezcGraphLine_17"/><path d=" M 492.0000,378.2000 L 500.0000,382.2000 L 492.0000,386.2000 L 492.0000,378.2000 z " style="fill: #2e3436; fill-opacity: 1.00; stroke: none;" id="ezcGraphPolygon_18"/><path d=" M 185.7143,79.8000 L 185.7143,382.2000" style="fill: none; stroke: #000000; stroke-width: 1; stroke-opacity: 0.00; stroke-linecap: round; stroke-linejoin: round;" id="ezcGraphLine_21"/><path d=" M 185.7143,379.2000 L 185.7143,385.2000" style="fill: none; stroke: #2e3436; stroke-width: 1; stroke-opacity: 1.00; stroke-linecap: round; stroke-linejoin: round;" id="ezcGraphLine_22"/><path d=" M 231.4286,79.8000 L 231.4286,382.2000" style="fill: none; stroke: #000000; stroke-width: 1; stroke-opacity: 0.00; stroke-linecap: round; stroke-linejoin: round;" id="ezcGraphLine_24"/><path d=" M 231.4286,379.2000 L 231.4286,385.2000" style="fill: none; stroke: #2e3436; stroke-width: 1; stroke-opacity: 1.00; stroke-linecap: round; stroke-linejoin: round;" id="ezcGraphLine_25"/><path d=" M 277.1429,79.8000 L 277.1429,382.2000" style="fill: none; stroke: #000000; stroke-width: 1; stroke-opacity: 0.00; stroke-linecap: round; stroke-linejoin: round;" id="ezcGraphLine_27"/><path d=" M 277.1429,379.2000 L 277.1429,385.2000" style="fill: none; stroke: #2e3436; stroke-width: 1; stroke-opacity: 1.00; stroke-linecap: round; stroke-linejoin: round;" id="ezcGraphLine_28"/><path d=" M 322.8571,79.8000 L 322.8571,382.2000" style="fill: none; stroke: #000000; stroke-width: 1; stroke-opacity: 0.00; stroke-linecap: round; stroke-linejoin: round;" id="ezcGraphLine_30"/><path d=" M 322.8571,379.2000 L 322.8571,385.2000" style="fill: none; stroke: #2e3436; stroke-width: 1; stroke-opacity: 1.00; stroke-linecap: round; stroke-linejoin: round;" id="ezcGraphLine_31"/><path d=" M 368.5714,79.8000 L 368.5714,382.2000" style="fill: none; stroke: #000000; stroke-width: 1; stroke-opacity: 0.00; stroke-linecap: round; stroke-linejoin: round;" id="ezcGraphLine_33"/><path d=" M 368.5714,379.2000 L 368.5714,385.2000" style="fill: none; stroke: #2e3436; stroke-width: 1; stroke-opacity: 1.00; stroke-linecap: round; stroke-linejoin: round;" id="ezcGraphLine_34"/><path d=" M 414.2857,79.8000 L 414.2857,382.2000" style="fill: none; stroke: #000000; stroke-width: 1; stroke-opacity: 0.00; stroke-linecap: round; stroke-linejoin: round;" id="ezcGraphLine_36"/><path d=" M 414.2857,379.2000 L 414.2857,385.2000" style="fill: none; stroke: #2e3436; stroke-width: 1; stroke-opacity: 1.00; stroke-linecap: round; stroke-linejoin: round;" id="ezcGraphLine_37"/><path d=" M 460.0000,79.8000 L 460.0000,382.2000" style="fill: none; stroke: #000000; stroke-width: 1; stroke-opacity: 0.00; stroke-linecap: round; stroke-linejoin: round;" id="ezcGraphLine_39"/><path d=" M 460.0000,379.2000 L 460.0000,385.2000" style="fill: none; stroke: #2e3436; stroke-width: 1; stroke-opacity: 1.00; stroke-linecap: round; stroke-linejoin: round;" id="ezcGraphLine_40"/><path d=" M 140.0000,420.0000 L 140.0000,42.0000" style="fill: none; stroke: #2e3436; stroke-width: 1; stroke-opacity: 1.00; stroke-linecap: round; stroke-linejoin: round;" id="ezcGraphLine_41"/><path d=" M 136.0000,50.0000 L 140.0000,42.0000 L 144.0000,50.0000 L 136.0000,50.0000 z " style="fill: #2e3436; fill-opacity: 1.00; stroke: none;" id="ezcGraphPolygon_42"/><path d=" M 140.0000,79.8000 L 460.0000,79.8000" style="fill: none; stroke: #000000; stroke-width: 1; stroke-opacity: 0.00; stroke-linecap: round; stroke-linejoin: round;" id="ezcGraphLine_45"/><path d=" M 140.0000,79.8000 L 143.0000,79.8000" style="fill: none; stroke: #2e3436; stroke-width: 1; stroke-opacity: 1.00; stroke-linecap: round; stroke-linejoin: round;" id="ezcGraphLine_46"/><path d=" M 162.8571,98.5488 L 162.8571,98.5488" style="fill: none; stroke: #3465a4; stroke-width: 1; stroke-opacity: 1.00; stroke-linecap: round; stroke-linejoin: round;" id="ezcGraphLine_48"/><path d=" M 162.8571,98.5488 L 208.5714,134.8368" style="fill: none; stroke: #3465a4; stroke-width: 1; stroke-opacity: 1.00; stroke-linecap: round; stroke-linejoin: round;" id="ezcGraphLine_50"/><path d=" M 208.5714,134.8368 L 254.2857,180.8016" style="fill: none; stroke: #3465a4; stroke-width: 1; stroke-opacity: 1.00; stroke-linecap: round; stroke-linejoin: round;" id="ezcGraphLine_52"/><path d=" M 254.2857,180.8016 L 300.0000,158.4240" style="fill: none; stroke: #3465a4; stroke-width: 1; stroke-opacity: 1.00; stroke-linecap: round; stroke-linejoin: round;" id="ezcGraphLine_54"/><path d=" M 300.0000,158.4240 L 345.7143,113.6688" style="fill: none; stroke: #3465a4; stroke-width: 1; stroke-opacity: 1.00; stroke-linecap: round; stroke-linejoin: round;" id="ezcGraphLine_56"/><path d=" M 345.7143,113.6688 L 391.4286,209.2272" style="fill: none; stroke: #3465a4; stroke-width: 1; stroke-opacity: 1.00; stroke-linecap: round; stroke-linejoin: round;" id="ezcGraphLine_58"/><path d=" M 391.4286,209.2272 L 437.1429,131.2080" style="fill: none; stroke: #3465a4; stroke-width: 1; stroke-opacity: 1.00; stroke-linecap: round; stroke-linejoin: round;" id="ezcGraphLine_60"/><path d=" M 162.8571,135.4416 L 162.8571,135.4416" style="fill: none; stroke: #4e9a06; stroke-width: 1; stroke-opacity: 1.00; stroke-linecap: round; stroke-linejoin: round;" id="ezcGraphLine_62"/><path d=" M 162.8571,135.4416 L 208.5714,79.8000" style="fill: none; stroke: #4e9a06; stroke-width: 1; stroke-opacity: 1.00; stroke-linecap: round; stroke-linejoin: round;" id="ezcGraphLine_64"/><path d=" M 208.5714,79.8000 L 254.2857,87.6624" style="fill: none; stroke: #4e9a06; stroke-width: 1; stroke-opacity: 1.00; stroke-linecap: round; stroke-linejoin: round;" id="ezcGraphLine_66"/><path d=" M 254.2857,87.6624 L 300.0000,145.7232" style="fill: none; stroke: #4e9a06; stroke-width: 1; stroke-opacity: 1.00; stroke-linecap: round; stroke-linejoin: round;" id="ezcGraphLine_68"/><path d=" M 300.0000,145.7232 L 345.7143,113.6688" style="fill: none; stroke: #4e9a06; stroke-width: 1; stroke-opacity: 1.00; stroke-linecap: round; stroke-linejoin: round;" id="ezcGraphLine_70"/><path d=" M 345.7143,113.6688 L 391.4286,94.3152" style="fill: none; stroke: #4e9a06; stroke-width: 1; stroke-opacity: 1.00; stroke-linecap: round; stroke-linejoin: round;" id="ezcGraphLine_72"/><path d=" M 391.4286,94.3152 L 437.1429,190.4784" style="fill: none; stroke: #4e9a06; stroke-width: 1; stroke-opacity: 1.00; stroke-linecap: round; stroke-linejoin: round;" id="ezcGraphLine_74"/><path d=" M 162.8571,308.4144 L 162.8571,308.4144" style="fill: none; stroke: #cc0000; stroke-width: 1; stroke-opacity: 1.00; stroke-linecap: round; stroke-linejoin: round;" id="ezcGraphLine_76"/><path d=" M 162.8571,308.4144 L 208.5714,327.1632" style="fill: none; stroke: #cc0000; stroke-width: 1; stroke-opacity: 1.00; stroke-linecap: round; stroke-linejoin: round;" id="ezcGraphLine_78"/><path d=" M 208.5714,327.1632 L 254.2857,273.9408" style="fill: none; stroke: #cc0000; stroke-width: 1; stroke-opacity: 1.00; stroke-linecap: round; stroke-linejoin: round;" id="ezcGraphLine_80"/><path d=" M 254.2857,273.9408 L 300.0000,250.9584" style="fill: none; stroke: #cc0000; stroke-width: 1; stroke-opacity: 1.00; stroke-linecap: round; stroke-linejoin: round;" id="ezcGraphLine_82"/><path d=" M 300.0000,250.9584 L 345.7143,315.0672" style="fill: none; stroke: #cc0000; stroke-width: 1; stroke-opacity: 1.00; stroke-linecap: round; stroke-linejoin: round;" id="ezcGraphLine_84"/><path d=" M 345.7143,315.0672 L 391.4286,281.1984" style="fill: none; stroke: #cc0000; stroke-width: 1; stroke-opacity: 1.00; stroke-linecap: round; stroke-linejoin: round;" id="ezcGraphLine_86"/><path d=" M 391.4286,281.1984 L 437.1429,264.2640" style="fill: none; stroke: #cc0000; stroke-width: 1; stroke-opacity: 1.00; stroke-linecap: round; stroke-linejoin: round;" id="ezcGraphLine_88"/><path d=" M 300.0000,368.8944 L 300.0000,368.8944" style="fill: none; stroke: #edd400; stroke-width: 1; stroke-opacity: 1.00; stroke-linecap: round; stroke-linejoin: round;" id="ezcGraphLine_90"/><path d=" M 300.0000,368.8944 L 391.4286,367.6848" style="fill: none; stroke: #edd400; stroke-width: 1; stroke-opacity: 1.00; stroke-linecap: round; stroke-linejoin: round;" id="ezcGraphLine_92"/><path d=" M 391.4286,367.6848 L 437.1429,352.5648" style="fill: none; stroke: #edd400; stroke-width: 1; stroke-opacity: 1.00; stroke-linecap: round; stroke-linejoin: round;" id="ezcGraphLine_94"/><path d=" M 437.1429,367.6848 L 437.1429,367.6848" style="fill: none; stroke: #75505b; stroke-width: 1; stroke-opacity: 1.00; stroke-linecap: round; stroke-linejoin: round;" id="ezcGraphLine_96"/><path d=" M 391.4286,353.1696 L 391.4286,353.1696" style="fill: none; stroke: #f57900; stroke-width: 1; stroke-opacity: 1.00; stroke-linecap: round; stroke-linejoin: round;" id="ezcGraphLine_98"/><path d=" M 159.8571,101.5488 L 159.8571,95.5488 L 165.8571,95.5488 L 165.8571,101.5488 L 159.8571,101.5488 z " style="fill: #3465a4; fill-opacity: 1.00; stroke: none; cursor: pointer;" id="ezcGraphPolygon_100" onclick="top.location = 'https://bsd-hardware.info/?view=computers&amp;f=net_vendor&amp;v=Red+Hat&amp;p=99&amp;p=87'"/><path d=" M 205.5714,137.8368 L 205.5714,131.8368 L 211.5714,131.8368 L 211.5714,137.8368 L 205.5714,137.8368 z " style="fill: #3465a4; fill-opacity: 1.00; stroke: none; cursor: pointer;" id="ezcGraphPolygon_101" onclick="top.location = 'https://bsd-hardware.info/?view=computers&amp;f=net_vendor&amp;v=Red+Hat&amp;p=99&amp;p=89'"/><path d=" M 251.2857,183.8016 L 251.2857,177.8016 L 257.2857,177.8016 L 257.2857,183.8016 L 251.2857,183.8016 z " style="fill: #3465a4; fill-opacity: 1.00; stroke: none; cursor: pointer;" id="ezcGraphPolygon_102" onclick="top.location = 'https://bsd-hardware.info/?view=computers&amp;f=net_vendor&amp;v=Red+Hat&amp;p=99&amp;p=91'"/><path d=" M 297.0000,161.4240 L 297.0000,155.4240 L 303.0000,155.4240 L 303.0000,161.4240 L 297.0000,161.4240 z " style="fill: #3465a4; fill-opacity: 1.00; stroke: none; cursor: pointer;" id="ezcGraphPolygon_103" onclick="top.location = 'https://bsd-hardware.info/?view=computers&amp;f=net_vendor&amp;v=Red+Hat&amp;p=99&amp;p=93'"/><path d=" M 342.7143,116.6688 L 342.7143,110.6688 L 348.7143,110.6688 L 348.7143,116.6688 L 342.7143,116.6688 z " style="fill: #3465a4; fill-opacity: 1.00; stroke: none; cursor: pointer;" id="ezcGraphPolygon_104" onclick="top.location = 'https://bsd-hardware.info/?view=computers&amp;f=net_vendor&amp;v=Red+Hat&amp;p=99&amp;p=95'"/><path d=" M 388.4286,212.2272 L 388.4286,206.2272 L 394.4286,206.2272 L 394.4286,212.2272 L 388.4286,212.2272 z " style="fill: #3465a4; fill-opacity: 1.00; stroke: none; cursor: pointer;" id="ezcGraphPolygon_105" onclick="top.location = 'https://bsd-hardware.info/?view=computers&amp;f=net_vendor&amp;v=Red+Hat&amp;p=99&amp;p=97'"/><path d=" M 434.1429,134.2080 L 434.1429,128.2080 L 440.1429,128.2080 L 440.1429,134.2080 L 434.1429,134.2080 z " style="fill: #3465a4; fill-opacity: 1.00; stroke: none; cursor: pointer;" id="ezcGraphPolygon_106" onclick="top.location = 'https://bsd-hardware.info/?view=computers&amp;f=net_vendor&amp;v=Red+Hat&amp;p=99&amp;p=99'"/><path d=" M 159.8571,138.4416 L 159.8571,132.4416 L 165.8571,132.4416 L 165.8571,138.4416 L 159.8571,138.4416 z " style="fill: #4e9a06; fill-opacity: 1.00; stroke: none; cursor: pointer;" id="ezcGraphPolygon_107" onclick="top.location = 'https://bsd-hardware.info/?view=computers&amp;f=net_vendor&amp;v=Intel&amp;p=99&amp;p=87'"/><path d=" M 205.5714,82.8000 L 205.5714,76.8000 L 211.5714,76.8000 L 211.5714,82.8000 L 205.5714,82.8000 z " style="fill: #4e9a06; fill-opacity: 1.00; stroke: none; cursor: pointer;" id="ezcGraphPolygon_108" onclick="top.location = 'https://bsd-hardware.info/?view=computers&amp;f=net_vendor&amp;v=Intel&amp;p=99&amp;p=89'"/><path d=" M 251.2857,90.6624 L 251.2857,84.6624 L 257.2857,84.6624 L 257.2857,90.6624 L 251.2857,90.6624 z " style="fill: #4e9a06; fill-opacity: 1.00; stroke: none; cursor: pointer;" id="ezcGraphPolygon_109" onclick="top.location = 'https://bsd-hardware.info/?view=computers&amp;f=net_vendor&amp;v=Intel&amp;p=99&amp;p=91'"/><path d=" M 297.0000,148.7232 L 297.0000,142.7232 L 303.0000,142.7232 L 303.0000,148.7232 L 297.0000,148.7232 z " style="fill: #4e9a06; fill-opacity: 1.00; stroke: none; cursor: pointer;" id="ezcGraphPolygon_110" onclick="top.location = 'https://bsd-hardware.info/?view=computers&amp;f=net_vendor&amp;v=Intel&amp;p=99&amp;p=93'"/><path d=" M 342.7143,116.6688 L 342.7143,110.6688 L 348.7143,110.6688 L 348.7143,116.6688 L 342.7143,116.6688 z " style="fill: #4e9a06; fill-opacity: 1.00; stroke: none; cursor: pointer;" id="ezcGraphPolygon_111" onclick="top.location = 'https://bsd-hardware.info/?view=computers&amp;f=net_vendor&amp;v=Intel&amp;p=99&amp;p=95'"/><path d=" M 388.4286,97.3152 L 388.4286,91.3152 L 394.4286,91.3152 L 394.4286,97.3152 L 388.4286,97.3152 z " style="fill: #4e9a06; fill-opacity: 1.00; stroke: none; cursor: pointer;" id="ezcGraphPolygon_112" onclick="top.location = 'https://bsd-hardware.info/?view=computers&amp;f=net_vendor&amp;v=Intel&amp;p=99&amp;p=97'"/><path d=" M 434.1429,193.4784 L 434.1429,187.4784 L 440.1429,187.4784 L 440.1429,193.4784 L 434.1429,193.4784 z " style="fill: #4e9a06; fill-opacity: 1.00; stroke: none; cursor: pointer;" id="ezcGraphPolygon_113" onclick="top.location = 'https://bsd-hardware.info/?view=computers&amp;f=net_vendor&amp;v=Intel&amp;p=99&amp;p=99'"/><path d=" M 159.8571,311.4144 L 159.8571,305.4144 L 165.8571,305.4144 L 165.8571,311.4144 L 159.8571,311.4144 z " style="fill: #cc0000; fill-opacity: 1.00; stroke: none; cursor: pointer;" id="ezcGraphPolygon_114" onclick="top.location = 'https://bsd-hardware.info/?view=computers&amp;f=net_vendor&amp;v=VMware&amp;p=99&amp;p=87'"/><path d=" M 205.5714,330.1632 L 205.5714,324.1632 L 211.5714,324.1632 L 211.5714,330.1632 L 205.5714,330.1632 z " style="fill: #cc0000; fill-opacity: 1.00; stroke: none; cursor: pointer;" id="ezcGraphPolygon_115" onclick="top.location = 'https://bsd-hardware.info/?view=computers&amp;f=net_vendor&amp;v=VMware&amp;p=99&amp;p=89'"/><path d=" M 251.2857,276.9408 L 251.2857,270.9408 L 257.2857,270.9408 L 257.2857,276.9408 L 251.2857,276.9408 z " style="fill: #cc0000; fill-opacity: 1.00; stroke: none; cursor: pointer;" id="ezcGraphPolygon_116" onclick="top.location = 'https://bsd-hardware.info/?view=computers&amp;f=net_vendor&amp;v=VMware&amp;p=99&amp;p=91'"/><path d=" M 297.0000,253.9584 L 297.0000,247.9584 L 303.0000,247.9584 L 303.0000,253.9584 L 297.0000,253.9584 z " style="fill: #cc0000; fill-opacity: 1.00; stroke: none; cursor: pointer;" id="ezcGraphPolygon_117" onclick="top.location = 'https://bsd-hardware.info/?view=computers&amp;f=net_vendor&amp;v=VMware&amp;p=99&amp;p=93'"/><path d=" M 342.7143,318.0672 L 342.7143,312.0672 L 348.7143,312.0672 L 348.7143,318.0672 L 342.7143,318.0672 z " style="fill: #cc0000; fill-opacity: 1.00; stroke: none; cursor: pointer;" id="ezcGraphPolygon_118" onclick="top.location = 'https://bsd-hardware.info/?view=computers&amp;f=net_vendor&amp;v=VMware&amp;p=99&amp;p=95'"/><path d=" M 388.4286,284.1984 L 388.4286,278.1984 L 394.4286,278.1984 L 394.4286,284.1984 L 388.4286,284.1984 z " style="fill: #cc0000; fill-opacity: 1.00; stroke: none; cursor: pointer;" id="ezcGraphPolygon_119" onclick="top.location = 'https://bsd-hardware.info/?view=computers&amp;f=net_vendor&amp;v=VMware&amp;p=99&amp;p=97'"/><path d=" M 434.1429,267.2640 L 434.1429,261.2640 L 440.1429,261.2640 L 440.1429,267.2640 L 434.1429,267.2640 z " style="fill: #cc0000; fill-opacity: 1.00; stroke: none; cursor: pointer;" id="ezcGraphPolygon_120" onclick="top.location = 'https://bsd-hardware.info/?view=computers&amp;f=net_vendor&amp;v=VMware&amp;p=99&amp;p=99'"/><path d=" M 297.0000,371.8944 L 297.0000,365.8944 L 303.0000,365.8944 L 303.0000,371.8944 L 297.0000,371.8944 z " style="fill: #edd400; fill-opacity: 1.00; stroke: none; cursor: pointer;" id="ezcGraphPolygon_121" onclick="top.location = 'https://bsd-hardware.info/?view=computers&amp;f=net_vendor&amp;v=Realtek+Semiconductor&amp;p=99&amp;p=93'"/><path d=" M 388.4286,370.6848 L 388.4286,364.6848 L 394.4286,364.6848 L 394.4286,370.6848 L 388.4286,370.6848 z " style="fill: #edd400; fill-opacity: 1.00; stroke: none; cursor: pointer;" id="ezcGraphPolygon_122" onclick="top.location = 'https://bsd-hardware.info/?view=computers&amp;f=net_vendor&amp;v=Realtek+Semiconductor&amp;p=99&amp;p=97'"/><path d=" M 434.1429,355.5648 L 434.1429,349.5648 L 440.1429,349.5648 L 440.1429,355.5648 L 434.1429,355.5648 z " style="fill: #edd400; fill-opacity: 1.00; stroke: none; cursor: pointer;" id="ezcGraphPolygon_123" onclick="top.location = 'https://bsd-hardware.info/?view=computers&amp;f=net_vendor&amp;v=Realtek+Semiconductor&amp;p=99&amp;p=99'"/><path d=" M 434.1429,370.6848 L 434.1429,364.6848 L 440.1429,364.6848 L 440.1429,370.6848 L 434.1429,370.6848 z " style="fill: #75505b; fill-opacity: 1.00; stroke: none; cursor: pointer;" id="ezcGraphPolygon_124" onclick="top.location = 'https://bsd-hardware.info/?view=computers&amp;f=net_vendor&amp;v=Qumranet&amp;p=99&amp;p=99'"/><path d=" M 388.4286,356.1696 L 388.4286,350.1696 L 394.4286,350.1696 L 394.4286,356.1696 L 388.4286,356.1696 z " style="fill: #f57900; fill-opacity: 1.00; stroke: none;" id="ezcGraphPolygon_125"/><g id="ezcGraphTextBox_3"><path d=" M 26.9000,42.0000 L 26.9000,0.5000 L 473.6000,0.5000 L 473.6000,42.0000 L 26.9000,42.0000 z " style="fill: #ffffff; fill-opacity: 0.00; stroke: none;" id="ezcGraphPolygon_126"/><text id="ezcGraphTextBox_3_text" x="27.4000" text-length="445.2000px" y="35.0000" style="font-size: 40px; font-family: 'Arial'; fill: #2e3436; fill-opacity: 1.00; stroke: none;">Net Controller Vendor</text></g><g id="ezcGraphTextBox_6" style=" cursor: pointer;" onclick="top.location = 'https://bsd-hardware.info/?view=computers&amp;f=net_vendor&amp;v=Red+Hat&amp;p=99'"><path d=" M 16.5000,59.0000 L 16.5000,43.5000 L 69.9400,43.5000 L 69.9400,59.0000 L 16.5000,59.0000 z " style="fill: #ffffff; fill-opacity: 0.00; stroke: none;" id="ezcGraphPolygon_127"/><text id="ezcGraphTextBox_6_text" x="17.0000" text-length="51.9400px" y="55.9000" style="font-size: 14px; font-family: 'Arial'; fill: #2e3436; fill-opacity: 1.00; stroke: none;">Red Hat</text></g><g id="ezcGraphTextBox_8" style=" cursor: pointer;" onclick="top.location = 'https://bsd-hardware.info/?view=computers&amp;f=net_vendor&amp;v=Intel&amp;p=99'"><path d=" M 16.5000,77.0000 L 16.5000,61.5000 L 55.1000,61.5000 L 55.1000,77.0000 L 16.5000,77.0000 z " style="fill: #ffffff; fill-opacity: 0.00; stroke: none;" id="ezcGraphPolygon_128"/><text id="ezcGraphTextBox_8_text" x="17.0000" text-length="37.1000px" y="73.9000" style="font-size: 14px; font-family: 'Arial'; fill: #2e3436; fill-opacity: 1.00; stroke: none;">Intel</text></g><g id="ezcGraphTextBox_10" style=" cursor: pointer;" onclick="top.location = 'https://bsd-hardware.info/?view=computers&amp;f=net_vendor&amp;v=VMware&amp;p=99'"><path d=" M 16.5000,95.0000 L 16.5000,79.5000 L 62.5200,79.5000 L 62.5200,95.0000 L 16.5000,95.0000 z " style="fill: #ffffff; fill-opacity: 0.00; stroke: none;" id="ezcGraphPolygon_129"/><text id="ezcGraphTextBox_10_text" x="17.0000" text-length="44.5200px" y="91.9000" style="font-size: 14px; font-family: 'Arial'; fill: #2e3436; fill-opacity: 1.00; stroke: none;">VMware</text></g><g id="ezcGraphTextBox_12" style=" cursor: pointer;" onclick="top.location = 'https://bsd-hardware.info/?view=computers&amp;f=net_vendor&amp;v=Realtek+Semiconductor&amp;p=99'"><path d=" M 16.5000,113.0000 L 16.5000,97.5000 L 69.9400,97.5000 L 69.9400,113.0000 L 16.5000,113.0000 z " style="fill: #ffffff; fill-opacity: 0.00; stroke: none;" id="ezcGraphPolygon_130"/><text id="ezcGraphTextBox_12_text" x="17.0000" text-length="51.9400px" y="109.9000" style="font-size: 14px; font-family: 'Arial'; fill: #2e3436; fill-opacity: 1.00; stroke: none;">Realtek</text></g><g id="ezcGraphTextBox_14" style=" cursor: pointer;" onclick="top.location = 'https://bsd-hardware.info/?view=computers&amp;f=net_vendor&amp;v=Qumranet&amp;p=99'"><path d=" M 16.5000,131.0000 L 16.5000,115.5000 L 77.3600,115.5000 L 77.3600,131.0000 L 16.5000,131.0000 z " style="fill: #ffffff; fill-opacity: 0.00; stroke: none;" id="ezcGraphPolygon_131"/><text id="ezcGraphTextBox_14_text" x="17.0000" text-length="59.3600px" y="127.9000" style="font-size: 14px; font-family: 'Arial'; fill: #2e3436; fill-opacity: 1.00; stroke: none;">Qumranet</text></g><g id="ezcGraphTextBox_16"><path d=" M 16.5000,149.0000 L 16.5000,133.5000 L 62.5200,133.5000 L 62.5200,149.0000 L 16.5000,149.0000 z " style="fill: #ffffff; fill-opacity: 0.00; stroke: none;" id="ezcGraphPolygon_132"/><text id="ezcGraphTextBox_16_text" x="17.0000" text-length="44.5200px" y="145.9000" style="font-size: 14px; font-family: 'Arial'; fill: #2e3436; fill-opacity: 1.00; stroke: none;">Others</text></g><g id="ezcGraphTextBox_19" transform="rotate( 0.00 493.0000 375.2000 )"><path d=" M 468.3500,381.2000 L 468.3500,368.7000 L 499.0000,368.7000 L 499.0000,381.2000 L 468.3500,381.2000 z " style="fill: #ffffff; fill-opacity: 0.00; stroke: none;" id="ezcGraphPolygon_133"/><text id="ezcGraphTextBox_19_text" x="468.8500" text-length="29.1500px" y="378.5500" style="font-size: 11px; font-family: 'Arial'; fill: #2e3436; fill-opacity: 1.00; stroke: none;">Time </text></g><g id="ezcGraphTextBox_20"><path d=" M 148.7171,407.3000 L 148.7171,383.7000 L 177.4971,383.7000 L 177.4971,407.3000 L 148.7171,407.3000 z " style="fill: #ffffff; fill-opacity: 0.00; stroke: none;" id="ezcGraphPolygon_134"/><text id="ezcGraphTextBox_20_text" x="154.1121" text-length="17.4900px" y="393.5500" style="font-size: 11px; font-family: 'Arial'; fill: #2e3436; fill-opacity: 1.00; stroke: none;">Mar</text><text id="ezcGraphTextBox_20_text" x="149.2171" text-length="27.2800px" y="405.6500" style="font-size: 11px; font-family: 'Arial'; fill: #2e3436; fill-opacity: 1.00; stroke: none;">2021</text></g><g id="ezcGraphTextBox_23"><path d=" M 194.4314,407.3000 L 194.4314,383.7000 L 223.2114,383.7000 L 223.2114,407.3000 L 194.4314,407.3000 z " style="fill: #ffffff; fill-opacity: 0.00; stroke: none;" id="ezcGraphPolygon_135"/><text id="ezcGraphTextBox_23_text" x="199.8264" text-length="17.4900px" y="393.5500" style="font-size: 11px; font-family: 'Arial'; fill: #2e3436; fill-opacity: 1.00; stroke: none;">May</text><text id="ezcGraphTextBox_23_text" x="194.9314" text-length="27.2800px" y="405.6500" style="font-size: 11px; font-family: 'Arial'; fill: #2e3436; fill-opacity: 1.00; stroke: none;">2021</text></g><g id="ezcGraphTextBox_26"><path d=" M 240.1457,407.3000 L 240.1457,383.7000 L 268.9257,383.7000 L 268.9257,407.3000 L 240.1457,407.3000 z " style="fill: #ffffff; fill-opacity: 0.00; stroke: none;" id="ezcGraphPolygon_136"/><text id="ezcGraphTextBox_26_text" x="245.5407" text-length="17.4900px" y="393.5500" style="font-size: 11px; font-family: 'Arial'; fill: #2e3436; fill-opacity: 1.00; stroke: none;">Jul</text><text id="ezcGraphTextBox_26_text" x="240.6457" text-length="27.2800px" y="405.6500" style="font-size: 11px; font-family: 'Arial'; fill: #2e3436; fill-opacity: 1.00; stroke: none;">2021</text></g><g id="ezcGraphTextBox_29"><path d=" M 285.8600,407.3000 L 285.8600,383.7000 L 314.6400,383.7000 L 314.6400,407.3000 L 285.8600,407.3000 z " style="fill: #ffffff; fill-opacity: 0.00; stroke: none;" id="ezcGraphPolygon_137"/><text id="ezcGraphTextBox_29_text" x="291.2550" text-length="17.4900px" y="393.5500" style="font-size: 11px; font-family: 'Arial'; fill: #2e3436; fill-opacity: 1.00; stroke: none;">Sep</text><text id="ezcGraphTextBox_29_text" x="286.3600" text-length="27.2800px" y="405.6500" style="font-size: 11px; font-family: 'Arial'; fill: #2e3436; fill-opacity: 1.00; stroke: none;">2021</text></g><g id="ezcGraphTextBox_32"><path d=" M 331.5743,407.3000 L 331.5743,383.7000 L 360.3543,383.7000 L 360.3543,407.3000 L 331.5743,407.3000 z " style="fill: #ffffff; fill-opacity: 0.00; stroke: none;" id="ezcGraphPolygon_138"/><text id="ezcGraphTextBox_32_text" x="336.9693" text-length="17.4900px" y="393.5500" style="font-size: 11px; font-family: 'Arial'; fill: #2e3436; fill-opacity: 1.00; stroke: none;">Nov</text><text id="ezcGraphTextBox_32_text" x="332.0743" text-length="27.2800px" y="405.6500" style="font-size: 11px; font-family: 'Arial'; fill: #2e3436; fill-opacity: 1.00; stroke: none;">2021</text></g><g id="ezcGraphTextBox_35"><path d=" M 377.2886,407.3000 L 377.2886,383.7000 L 406.0686,383.7000 L 406.0686,407.3000 L 377.2886,407.3000 z " style="fill: #ffffff; fill-opacity: 0.00; stroke: none;" id="ezcGraphPolygon_139"/><text id="ezcGraphTextBox_35_text" x="382.6836" text-length="17.4900px" y="393.5500" style="font-size: 11px; font-family: 'Arial'; fill: #2e3436; fill-opacity: 1.00; stroke: none;">Jan</text><text id="ezcGraphTextBox_35_text" x="377.7886" text-length="27.2800px" y="405.6500" style="font-size: 11px; font-family: 'Arial'; fill: #2e3436; fill-opacity: 1.00; stroke: none;">2022</text></g><g id="ezcGraphTextBox_38"><path d=" M 423.0029,407.3000 L 423.0029,383.7000 L 451.7829,383.7000 L 451.7829,407.3000 L 423.0029,407.3000 z " style="fill: #ffffff; fill-opacity: 0.00; stroke: none;" id="ezcGraphPolygon_140"/><text id="ezcGraphTextBox_38_text" x="428.3979" text-length="17.4900px" y="393.5500" style="font-size: 11px; font-family: 'Arial'; fill: #2e3436; fill-opacity: 1.00; stroke: none;">Mar</text><text id="ezcGraphTextBox_38_text" x="423.5029" text-length="27.2800px" y="405.6500" style="font-size: 11px; font-family: 'Arial'; fill: #2e3436; fill-opacity: 1.00; stroke: none;">2022</text></g><g id="ezcGraphTextBox_43" transform="rotate( 0.00 147.0000 49.0000 )"><path d=" M 141.5000,56.0000 L 141.5000,43.5000 L 382.0300,43.5000 L 382.0300,56.0000 L 141.5000,56.0000 z " style="fill: #ffffff; fill-opacity: 0.00; stroke: none;" id="ezcGraphPolygon_141"/><text id="ezcGraphTextBox_43_text" x="142.0000" text-length="239.0300px" y="53.3500" style="font-size: 11px; font-family: 'Arial'; fill: #2e3436; fill-opacity: 1.00; stroke: none;">Computers by "Net Controller Vendor" in %</text></g><g id="ezcGraphTextBox_44"><path d=" M 130.6800,381.2000 L 130.6800,368.7000 L 139.0000,368.7000 L 139.0000,381.2000 L 130.6800,381.2000 z " style="fill: #ffffff; fill-opacity: 0.00; stroke: none;" id="ezcGraphPolygon_142"/><text id="ezcGraphTextBox_44_text" x="131.1800" text-length="6.8200px" y="378.5500" style="font-size: 11px; font-family: 'Arial'; fill: #2e3436; fill-opacity: 1.00; stroke: none;">0</text></g><g id="ezcGraphTextBox_47"><path d=" M 123.8600,93.8000 L 123.8600,81.3000 L 139.0000,81.3000 L 139.0000,93.8000 L 123.8600,93.8000 z " style="fill: #ffffff; fill-opacity: 0.00; stroke: none;" id="ezcGraphPolygon_143"/><text id="ezcGraphTextBox_47_text" x="124.3600" text-length="13.6400px" y="91.1500" style="font-size: 11px; font-family: 'Arial'; fill: #2e3436; fill-opacity: 1.00; stroke: none;">50</text></g><g id="ezcGraphTextBox_49"><path d=" M 149.9571,93.5488 L 149.9571,82.0488 L 176.2571,82.0488 L 176.2571,93.5488 L 149.9571,93.5488 z " style="fill: #ffffff; fill-opacity: 0.00; stroke: none;" id="ezcGraphPolygon_144"/><text id="ezcGraphTextBox_49_text" x="150.4571" text-length="24.8000px" y="91.0488" style="font-size: 10px; font-family: 'Arial'; fill: #2e3436; fill-opacity: 1.00; stroke: none;">46.9</text></g><g id="ezcGraphTextBox_51"><path d=" M 195.6714,129.8368 L 195.6714,118.3368 L 221.9714,118.3368 L 221.9714,129.8368 L 195.6714,129.8368 z " style="fill: #ffffff; fill-opacity: 0.00; stroke: none;" id="ezcGraphPolygon_145"/><text id="ezcGraphTextBox_51_text" x="196.1714" text-length="24.8000px" y="127.3368" style="font-size: 10px; font-family: 'Arial'; fill: #2e3436; fill-opacity: 1.00; stroke: none;">40.9</text></g><g id="ezcGraphTextBox_53"><path d=" M 241.3857,175.8016 L 241.3857,164.3016 L 267.6857,164.3016 L 267.6857,175.8016 L 241.3857,175.8016 z " style="fill: #ffffff; fill-opacity: 0.00; stroke: none;" id="ezcGraphPolygon_146"/><text id="ezcGraphTextBox_53_text" x="241.8857" text-length="24.8000px" y="173.3016" style="font-size: 10px; font-family: 'Arial'; fill: #2e3436; fill-opacity: 1.00; stroke: none;">33.3</text></g><g id="ezcGraphTextBox_55"><path d=" M 293.3000,153.4240 L 293.3000,141.9240 L 307.2000,141.9240 L 307.2000,153.4240 L 293.3000,153.4240 z " style="fill: #ffffff; fill-opacity: 0.00; stroke: none;" id="ezcGraphPolygon_147"/><text id="ezcGraphTextBox_55_text" x="293.8000" text-length="12.4000px" y="150.9240" style="font-size: 10px; font-family: 'Arial'; fill: #2e3436; fill-opacity: 1.00; stroke: none;">37</text></g><g id="ezcGraphTextBox_57"><path d=" M 332.8143,108.6688 L 332.8143,97.1688 L 359.1143,97.1688 L 359.1143,108.6688 L 332.8143,108.6688 z " style="fill: #ffffff; fill-opacity: 0.00; stroke: none;" id="ezcGraphPolygon_148"/><text id="ezcGraphTextBox_57_text" x="333.3143" text-length="24.8000px" y="106.1688" style="font-size: 10px; font-family: 'Arial'; fill: #2e3436; fill-opacity: 1.00; stroke: none;">44.4</text></g><g id="ezcGraphTextBox_59"><path d=" M 378.5286,204.2272 L 378.5286,192.7272 L 404.8286,192.7272 L 404.8286,204.2272 L 378.5286,204.2272 z " style="fill: #ffffff; fill-opacity: 0.00; stroke: none;" id="ezcGraphPolygon_149"/><text id="ezcGraphTextBox_59_text" x="379.0286" text-length="24.8000px" y="201.7272" style="font-size: 10px; font-family: 'Arial'; fill: #2e3436; fill-opacity: 1.00; stroke: none;">28.6</text></g><g id="ezcGraphTextBox_61"><path d=" M 424.2429,126.2080 L 424.2429,114.7080 L 450.5429,114.7080 L 450.5429,126.2080 L 424.2429,126.2080 z " style="fill: #ffffff; fill-opacity: 0.00; stroke: none;" id="ezcGraphPolygon_150"/><text id="ezcGraphTextBox_61_text" x="424.7429" text-length="24.8000px" y="123.7080" style="font-size: 10px; font-family: 'Arial'; fill: #2e3436; fill-opacity: 1.00; stroke: none;">41.5</text></g><g id="ezcGraphTextBox_63"><path d=" M 149.9571,130.4416 L 149.9571,118.9416 L 176.2571,118.9416 L 176.2571,130.4416 L 149.9571,130.4416 z " style="fill: #ffffff; fill-opacity: 0.00; stroke: none;" id="ezcGraphPolygon_151"/><text id="ezcGraphTextBox_63_text" x="150.4571" text-length="24.8000px" y="127.9416" style="font-size: 10px; font-family: 'Arial'; fill: #2e3436; fill-opacity: 1.00; stroke: none;">40.8</text></g><g id="ezcGraphTextBox_65"><path d=" M 201.8714,74.8000 L 201.8714,63.3000 L 215.7714,63.3000 L 215.7714,74.8000 L 201.8714,74.8000 z " style="fill: #ffffff; fill-opacity: 0.00; stroke: none;" id="ezcGraphPolygon_152"/><text id="ezcGraphTextBox_65_text" x="202.3714" text-length="12.4000px" y="72.3000" style="font-size: 10px; font-family: 'Arial'; fill: #2e3436; fill-opacity: 1.00; stroke: none;">50</text></g><g id="ezcGraphTextBox_67"><path d=" M 241.3857,82.6624 L 241.3857,71.1624 L 267.6857,71.1624 L 267.6857,82.6624 L 241.3857,82.6624 z " style="fill: #ffffff; fill-opacity: 0.00; stroke: none;" id="ezcGraphPolygon_153"/><text id="ezcGraphTextBox_67_text" x="241.8857" text-length="24.8000px" y="80.1624" style="font-size: 10px; font-family: 'Arial'; fill: #2e3436; fill-opacity: 1.00; stroke: none;">48.7</text></g><g id="ezcGraphTextBox_69"><path d=" M 287.1000,140.7232 L 287.1000,129.2232 L 313.4000,129.2232 L 313.4000,140.7232 L 287.1000,140.7232 z " style="fill: #ffffff; fill-opacity: 0.00; stroke: none;" id="ezcGraphPolygon_154"/><text id="ezcGraphTextBox_69_text" x="287.6000" text-length="24.8000px" y="138.2232" style="font-size: 10px; font-family: 'Arial'; fill: #2e3436; fill-opacity: 1.00; stroke: none;">39.1</text></g><g id="ezcGraphTextBox_71"><path d=" M 332.8143,108.6688 L 332.8143,97.1688 L 359.1143,97.1688 L 359.1143,108.6688 L 332.8143,108.6688 z " style="fill: #ffffff; fill-opacity: 0.00; stroke: none;" id="ezcGraphPolygon_155"/><text id="ezcGraphTextBox_71_text" x="333.3143" text-length="24.8000px" y="106.1688" style="font-size: 10px; font-family: 'Arial'; fill: #2e3436; fill-opacity: 1.00; stroke: none;">44.4</text></g><g id="ezcGraphTextBox_73"><path d=" M 378.5286,89.3152 L 378.5286,77.8152 L 404.8286,77.8152 L 404.8286,89.3152 L 378.5286,89.3152 z " style="fill: #ffffff; fill-opacity: 0.00; stroke: none;" id="ezcGraphPolygon_156"/><text id="ezcGraphTextBox_73_text" x="379.0286" text-length="24.8000px" y="86.8152" style="font-size: 10px; font-family: 'Arial'; fill: #2e3436; fill-opacity: 1.00; stroke: none;">47.6</text></g><g id="ezcGraphTextBox_75"><path d=" M 424.2429,185.4784 L 424.2429,173.9784 L 450.5429,173.9784 L 450.5429,185.4784 L 424.2429,185.4784 z " style="fill: #ffffff; fill-opacity: 0.00; stroke: none;" id="ezcGraphPolygon_157"/><text id="ezcGraphTextBox_75_text" x="424.7429" text-length="24.8000px" y="182.9784" style="font-size: 10px; font-family: 'Arial'; fill: #2e3436; fill-opacity: 1.00; stroke: none;">31.7</text></g><g id="ezcGraphTextBox_77"><path d=" M 149.9571,303.4144 L 149.9571,291.9144 L 176.2571,291.9144 L 176.2571,303.4144 L 149.9571,303.4144 z " style="fill: #ffffff; fill-opacity: 0.00; stroke: none;" id="ezcGraphPolygon_158"/><text id="ezcGraphTextBox_77_text" x="150.4571" text-length="24.8000px" y="300.9144" style="font-size: 10px; font-family: 'Arial'; fill: #2e3436; fill-opacity: 1.00; stroke: none;">12.2</text></g><g id="ezcGraphTextBox_79"><path d=" M 198.7714,322.1632 L 198.7714,310.6632 L 218.8714,310.6632 L 218.8714,322.1632 L 198.7714,322.1632 z " style="fill: #ffffff; fill-opacity: 0.00; stroke: none;" id="ezcGraphPolygon_159"/><text id="ezcGraphTextBox_79_text" x="199.2714" text-length="18.6000px" y="319.6632" style="font-size: 10px; font-family: 'Arial'; fill: #2e3436; fill-opacity: 1.00; stroke: none;">9.1</text></g><g id="ezcGraphTextBox_81"><path d=" M 241.3857,268.9408 L 241.3857,257.4408 L 267.6857,257.4408 L 267.6857,268.9408 L 241.3857,268.9408 z " style="fill: #ffffff; fill-opacity: 0.00; stroke: none;" id="ezcGraphPolygon_160"/><text id="ezcGraphTextBox_81_text" x="241.8857" text-length="24.8000px" y="266.4408" style="font-size: 10px; font-family: 'Arial'; fill: #2e3436; fill-opacity: 1.00; stroke: none;">17.9</text></g><g id="ezcGraphTextBox_83"><path d=" M 287.1000,245.9584 L 287.1000,234.4584 L 313.4000,234.4584 L 313.4000,245.9584 L 287.1000,245.9584 z " style="fill: #ffffff; fill-opacity: 0.00; stroke: none;" id="ezcGraphPolygon_161"/><text id="ezcGraphTextBox_83_text" x="287.6000" text-length="24.8000px" y="243.4584" style="font-size: 10px; font-family: 'Arial'; fill: #2e3436; fill-opacity: 1.00; stroke: none;">21.7</text></g><g id="ezcGraphTextBox_85"><path d=" M 332.8143,310.0672 L 332.8143,298.5672 L 359.1143,298.5672 L 359.1143,310.0672 L 332.8143,310.0672 z " style="fill: #ffffff; fill-opacity: 0.00; stroke: none;" id="ezcGraphPolygon_162"/><text id="ezcGraphTextBox_85_text" x="333.3143" text-length="24.8000px" y="307.5672" style="font-size: 10px; font-family: 'Arial'; fill: #2e3436; fill-opacity: 1.00; stroke: none;">11.1</text></g><g id="ezcGraphTextBox_87"><path d=" M 378.5286,276.1984 L 378.5286,264.6984 L 404.8286,264.6984 L 404.8286,276.1984 L 378.5286,276.1984 z " style="fill: #ffffff; fill-opacity: 0.00; stroke: none;" id="ezcGraphPolygon_163"/><text id="ezcGraphTextBox_87_text" x="379.0286" text-length="24.8000px" y="273.6984" style="font-size: 10px; font-family: 'Arial'; fill: #2e3436; fill-opacity: 1.00; stroke: none;">16.7</text></g><g id="ezcGraphTextBox_89"><path d=" M 424.2429,259.2640 L 424.2429,247.7640 L 450.5429,247.7640 L 450.5429,259.2640 L 424.2429,259.2640 z " style="fill: #ffffff; fill-opacity: 0.00; stroke: none;" id="ezcGraphPolygon_164"/><text id="ezcGraphTextBox_89_text" x="424.7429" text-length="24.8000px" y="256.7640" style="font-size: 10px; font-family: 'Arial'; fill: #2e3436; fill-opacity: 1.00; stroke: none;">19.5</text></g><g id="ezcGraphTextBox_91"><path d=" M 290.2000,363.8944 L 290.2000,352.3944 L 310.3000,352.3944 L 310.3000,363.8944 L 290.2000,363.8944 z " style="fill: #ffffff; fill-opacity: 0.00; stroke: none;" id="ezcGraphPolygon_165"/><text id="ezcGraphTextBox_91_text" x="290.7000" text-length="18.6000px" y="361.3944" style="font-size: 10px; font-family: 'Arial'; fill: #2e3436; fill-opacity: 1.00; stroke: none;">2.2</text></g><g id="ezcGraphTextBox_93"><path d=" M 381.6286,362.6848 L 381.6286,351.1848 L 401.7286,351.1848 L 401.7286,362.6848 L 381.6286,362.6848 z " style="fill: #ffffff; fill-opacity: 0.00; stroke: none;" id="ezcGraphPolygon_166"/><text id="ezcGraphTextBox_93_text" x="382.1286" text-length="18.6000px" y="360.1848" style="font-size: 10px; font-family: 'Arial'; fill: #2e3436; fill-opacity: 1.00; stroke: none;">2.4</text></g><g id="ezcGraphTextBox_95"><path d=" M 427.3429,347.5648 L 427.3429,336.0648 L 447.4429,336.0648 L 447.4429,347.5648 L 427.3429,347.5648 z " style="fill: #ffffff; fill-opacity: 0.00; stroke: none;" id="ezcGraphPolygon_167"/><text id="ezcGraphTextBox_95_text" x="427.8429" text-length="18.6000px" y="345.0648" style="font-size: 10px; font-family: 'Arial'; fill: #2e3436; fill-opacity: 1.00; stroke: none;">4.9</text></g><g id="ezcGraphTextBox_97"><path d=" M 427.3429,362.6848 L 427.3429,351.1848 L 447.4429,351.1848 L 447.4429,362.6848 L 427.3429,362.6848 z " style="fill: #ffffff; fill-opacity: 0.00; stroke: none;" id="ezcGraphPolygon_168"/><text id="ezcGraphTextBox_97_text" x="427.8429" text-length="18.6000px" y="360.1848" style="font-size: 10px; font-family: 'Arial'; fill: #2e3436; fill-opacity: 1.00; stroke: none;">2.4</text></g><g id="ezcGraphTextBox_99"><path d=" M 381.6286,348.1696 L 381.6286,336.6696 L 401.7286,336.6696 L 401.7286,348.1696 L 381.6286,348.1696 z " style="fill: #ffffff; fill-opacity: 0.00; stroke: none;" id="ezcGraphPolygon_169"/><text id="ezcGraphTextBox_99_text" x="382.1286" text-length="18.6000px" y="345.6696" style="font-size: 10px; font-family: 'Arial'; fill: #2e3436; fill-opacity: 1.00; stroke: none;">4.8</text></g></g></svg>
