<?xml version="1.0"?>
<svg xmlns="http://www.w3.org/2000/svg" width="500" height="420" version="1.0" id="ezcGraph"><defs/><g id="ezcGraphChart" color-rendering="optimizeQuality" shape-rendering="geometricPrecision" text-rendering="optimizeLegibility"><path d=" M 0.0000,420.0000 L 0.0000,0.0000 L 500.0000,0.0000 L 500.0000,420.0000 L 0.0000,420.0000 z " style="fill: #eeeeec; fill-opacity: 1.00; stroke: none;" id="ezcGraphPolygon_1"/><path d=" M 0.0000,42.0000 L 0.0000,0.0000 L 500.0000,0.0000 L 500.0000,42.0000 L 0.0000,42.0000 z " style="fill: #000000; fill-opacity: 0.00; stroke: none;" id="ezcGraphPolygon_2"/><path d=" M 0.0000,420.0000 L 0.0000,42.0000 L 100.0000,42.0000 L 100.0000,420.0000 L 0.0000,420.0000 z " style="fill: #000000; fill-opacity: 0.00; stroke: none;" id="ezcGraphPolygon_4"/><path d=" M 2.0000,58.0000 L 2.0000,44.0000 L 16.0000,44.0000 L 16.0000,58.0000 L 2.0000,58.0000 z " style="fill: #3465a4; fill-opacity: 1.00; stroke: none; cursor: pointer;" id="ezcGraphPolygon_5" onclick="top.location = 'https://bsd-hardware.info/?view=computers&amp;f=net_vendor&amp;v=Intel&amp;p=99'"/><path d=" M 2.0000,76.0000 L 2.0000,62.0000 L 16.0000,62.0000 L 16.0000,76.0000 L 2.0000,76.0000 z " style="fill: #4e9a06; fill-opacity: 1.00; stroke: none; cursor: pointer;" id="ezcGraphPolygon_7" onclick="top.location = 'https://bsd-hardware.info/?view=computers&amp;f=net_vendor&amp;v=Red+Hat&amp;p=99'"/><path d=" M 2.0000,94.0000 L 2.0000,80.0000 L 16.0000,80.0000 L 16.0000,94.0000 L 2.0000,94.0000 z " style="fill: #cc0000; fill-opacity: 1.00; stroke: none; cursor: pointer;" id="ezcGraphPolygon_9" onclick="top.location = 'https://bsd-hardware.info/?view=computers&amp;f=net_vendor&amp;v=Realtek+Semiconductor&amp;p=99'"/><path d=" M 2.0000,112.0000 L 2.0000,98.0000 L 16.0000,98.0000 L 16.0000,112.0000 L 2.0000,112.0000 z " style="fill: #edd400; fill-opacity: 1.00; stroke: none; cursor: pointer;" id="ezcGraphPolygon_11" onclick="top.location = 'https://bsd-hardware.info/?view=computers&amp;f=net_vendor&amp;v=Qumranet&amp;p=99'"/><path d=" M 2.0000,130.0000 L 2.0000,116.0000 L 16.0000,116.0000 L 16.0000,130.0000 L 2.0000,130.0000 z " style="fill: #75505b; fill-opacity: 1.00; stroke: none;" id="ezcGraphPolygon_13"/><path d=" M 100.0000,382.2000 L 500.0000,382.2000" style="fill: none; stroke: #2e3436; stroke-width: 1; stroke-opacity: 1.00; stroke-linecap: round; stroke-linejoin: round;" id="ezcGraphLine_15"/><path d=" M 492.0000,378.2000 L 500.0000,382.2000 L 492.0000,386.2000 L 492.0000,378.2000 z " style="fill: #2e3436; fill-opacity: 1.00; stroke: none;" id="ezcGraphPolygon_16"/><path d=" M 185.7143,79.8000 L 185.7143,382.2000" style="fill: none; stroke: #000000; stroke-width: 1; stroke-opacity: 0.00; stroke-linecap: round; stroke-linejoin: round;" id="ezcGraphLine_19"/><path d=" M 185.7143,379.2000 L 185.7143,385.2000" style="fill: none; stroke: #2e3436; stroke-width: 1; stroke-opacity: 1.00; stroke-linecap: round; stroke-linejoin: round;" id="ezcGraphLine_20"/><path d=" M 231.4286,79.8000 L 231.4286,382.2000" style="fill: none; stroke: #000000; stroke-width: 1; stroke-opacity: 0.00; stroke-linecap: round; stroke-linejoin: round;" id="ezcGraphLine_22"/><path d=" M 231.4286,379.2000 L 231.4286,385.2000" style="fill: none; stroke: #2e3436; stroke-width: 1; stroke-opacity: 1.00; stroke-linecap: round; stroke-linejoin: round;" id="ezcGraphLine_23"/><path d=" M 277.1429,79.8000 L 277.1429,382.2000" style="fill: none; stroke: #000000; stroke-width: 1; stroke-opacity: 0.00; stroke-linecap: round; stroke-linejoin: round;" id="ezcGraphLine_25"/><path d=" M 277.1429,379.2000 L 277.1429,385.2000" style="fill: none; stroke: #2e3436; stroke-width: 1; stroke-opacity: 1.00; stroke-linecap: round; stroke-linejoin: round;" id="ezcGraphLine_26"/><path d=" M 322.8571,79.8000 L 322.8571,382.2000" style="fill: none; stroke: #000000; stroke-width: 1; stroke-opacity: 0.00; stroke-linecap: round; stroke-linejoin: round;" id="ezcGraphLine_28"/><path d=" M 322.8571,379.2000 L 322.8571,385.2000" style="fill: none; stroke: #2e3436; stroke-width: 1; stroke-opacity: 1.00; stroke-linecap: round; stroke-linejoin: round;" id="ezcGraphLine_29"/><path d=" M 368.5714,79.8000 L 368.5714,382.2000" style="fill: none; stroke: #000000; stroke-width: 1; stroke-opacity: 0.00; stroke-linecap: round; stroke-linejoin: round;" id="ezcGraphLine_31"/><path d=" M 368.5714,379.2000 L 368.5714,385.2000" style="fill: none; stroke: #2e3436; stroke-width: 1; stroke-opacity: 1.00; stroke-linecap: round; stroke-linejoin: round;" id="ezcGraphLine_32"/><path d=" M 414.2857,79.8000 L 414.2857,382.2000" style="fill: none; stroke: #000000; stroke-width: 1; stroke-opacity: 0.00; stroke-linecap: round; stroke-linejoin: round;" id="ezcGraphLine_34"/><path d=" M 414.2857,379.2000 L 414.2857,385.2000" style="fill: none; stroke: #2e3436; stroke-width: 1; stroke-opacity: 1.00; stroke-linecap: round; stroke-linejoin: round;" id="ezcGraphLine_35"/><path d=" M 460.0000,79.8000 L 460.0000,382.2000" style="fill: none; stroke: #000000; stroke-width: 1; stroke-opacity: 0.00; stroke-linecap: round; stroke-linejoin: round;" id="ezcGraphLine_37"/><path d=" M 460.0000,379.2000 L 460.0000,385.2000" style="fill: none; stroke: #2e3436; stroke-width: 1; stroke-opacity: 1.00; stroke-linecap: round; stroke-linejoin: round;" id="ezcGraphLine_38"/><path d=" M 140.0000,420.0000 L 140.0000,42.0000" style="fill: none; stroke: #2e3436; stroke-width: 1; stroke-opacity: 1.00; stroke-linecap: round; stroke-linejoin: round;" id="ezcGraphLine_39"/><path d=" M 136.0000,50.0000 L 140.0000,42.0000 L 144.0000,50.0000 L 136.0000,50.0000 z " style="fill: #2e3436; fill-opacity: 1.00; stroke: none;" id="ezcGraphPolygon_40"/><path d=" M 140.0000,231.0000 L 460.0000,231.0000" style="fill: none; stroke: #000000; stroke-width: 1; stroke-opacity: 0.00; stroke-linecap: round; stroke-linejoin: round;" id="ezcGraphLine_43"/><path d=" M 140.0000,231.0000 L 143.0000,231.0000" style="fill: none; stroke: #2e3436; stroke-width: 1; stroke-opacity: 1.00; stroke-linecap: round; stroke-linejoin: round;" id="ezcGraphLine_44"/><path d=" M 140.0000,79.8000 L 460.0000,79.8000" style="fill: none; stroke: #000000; stroke-width: 1; stroke-opacity: 0.00; stroke-linecap: round; stroke-linejoin: round;" id="ezcGraphLine_46"/><path d=" M 140.0000,79.8000 L 143.0000,79.8000" style="fill: none; stroke: #2e3436; stroke-width: 1; stroke-opacity: 1.00; stroke-linecap: round; stroke-linejoin: round;" id="ezcGraphLine_47"/><path d=" M 162.8571,141.4896 L 162.8571,141.4896" style="fill: none; stroke: #3465a4; stroke-width: 1; stroke-opacity: 1.00; stroke-linecap: round; stroke-linejoin: round;" id="ezcGraphLine_49"/><path d=" M 162.8571,141.4896 L 208.5714,140.2800" style="fill: none; stroke: #3465a4; stroke-width: 1; stroke-opacity: 1.00; stroke-linecap: round; stroke-linejoin: round;" id="ezcGraphLine_51"/><path d=" M 208.5714,140.2800 L 254.2857,180.4992" style="fill: none; stroke: #3465a4; stroke-width: 1; stroke-opacity: 1.00; stroke-linecap: round; stroke-linejoin: round;" id="ezcGraphLine_53"/><path d=" M 254.2857,180.4992 L 300.0000,140.2800" style="fill: none; stroke: #3465a4; stroke-width: 1; stroke-opacity: 1.00; stroke-linecap: round; stroke-linejoin: round;" id="ezcGraphLine_55"/><path d=" M 300.0000,140.2800 L 345.7143,168.7056" style="fill: none; stroke: #3465a4; stroke-width: 1; stroke-opacity: 1.00; stroke-linecap: round; stroke-linejoin: round;" id="ezcGraphLine_57"/><path d=" M 345.7143,168.7056 L 391.4286,151.7712" style="fill: none; stroke: #3465a4; stroke-width: 1; stroke-opacity: 1.00; stroke-linecap: round; stroke-linejoin: round;" id="ezcGraphLine_59"/><path d=" M 391.4286,151.7712 L 437.1429,149.0496" style="fill: none; stroke: #3465a4; stroke-width: 1; stroke-opacity: 1.00; stroke-linecap: round; stroke-linejoin: round;" id="ezcGraphLine_61"/><path d=" M 162.8571,348.6336 L 162.8571,348.6336" style="fill: none; stroke: #4e9a06; stroke-width: 1; stroke-opacity: 1.00; stroke-linecap: round; stroke-linejoin: round;" id="ezcGraphLine_63"/><path d=" M 162.8571,348.6336 L 254.2857,303.8784" style="fill: none; stroke: #4e9a06; stroke-width: 1; stroke-opacity: 1.00; stroke-linecap: round; stroke-linejoin: round;" id="ezcGraphLine_65"/><path d=" M 254.2857,303.8784 L 300.0000,321.7200" style="fill: none; stroke: #4e9a06; stroke-width: 1; stroke-opacity: 1.00; stroke-linecap: round; stroke-linejoin: round;" id="ezcGraphLine_67"/><path d=" M 300.0000,321.7200 L 345.7143,311.1360" style="fill: none; stroke: #4e9a06; stroke-width: 1; stroke-opacity: 1.00; stroke-linecap: round; stroke-linejoin: round;" id="ezcGraphLine_69"/><path d=" M 345.7143,311.1360 L 391.4286,334.1184" style="fill: none; stroke: #4e9a06; stroke-width: 1; stroke-opacity: 1.00; stroke-linecap: round; stroke-linejoin: round;" id="ezcGraphLine_71"/><path d=" M 391.4286,334.1184 L 437.1429,347.7264" style="fill: none; stroke: #4e9a06; stroke-width: 1; stroke-opacity: 1.00; stroke-linecap: round; stroke-linejoin: round;" id="ezcGraphLine_73"/><path d=" M 162.8571,359.8224 L 162.8571,359.8224" style="fill: none; stroke: #cc0000; stroke-width: 1; stroke-opacity: 1.00; stroke-linecap: round; stroke-linejoin: round;" id="ezcGraphLine_75"/><path d=" M 162.8571,359.8224 L 254.2857,371.0112" style="fill: none; stroke: #cc0000; stroke-width: 1; stroke-opacity: 1.00; stroke-linecap: round; stroke-linejoin: round;" id="ezcGraphLine_77"/><path d=" M 254.2857,371.0112 L 345.7143,364.3584" style="fill: none; stroke: #cc0000; stroke-width: 1; stroke-opacity: 1.00; stroke-linecap: round; stroke-linejoin: round;" id="ezcGraphLine_79"/><path d=" M 345.7143,364.3584 L 391.4286,367.6848" style="fill: none; stroke: #cc0000; stroke-width: 1; stroke-opacity: 1.00; stroke-linecap: round; stroke-linejoin: round;" id="ezcGraphLine_81"/><path d=" M 391.4286,367.6848 L 437.1429,356.1936" style="fill: none; stroke: #cc0000; stroke-width: 1; stroke-opacity: 1.00; stroke-linecap: round; stroke-linejoin: round;" id="ezcGraphLine_83"/><path d=" M 391.4286,372.5232 L 391.4286,372.5232" style="fill: none; stroke: #edd400; stroke-width: 1; stroke-opacity: 1.00; stroke-linecap: round; stroke-linejoin: round;" id="ezcGraphLine_85"/><path d=" M 391.4286,372.5232 L 437.1429,373.4304" style="fill: none; stroke: #edd400; stroke-width: 1; stroke-opacity: 1.00; stroke-linecap: round; stroke-linejoin: round;" id="ezcGraphLine_87"/><path d=" M 162.8571,376.4544 L 162.8571,376.4544" style="fill: none; stroke: #75505b; stroke-width: 1; stroke-opacity: 1.00; stroke-linecap: round; stroke-linejoin: round;" id="ezcGraphLine_89"/><path d=" M 162.8571,376.4544 L 208.5714,321.7200" style="fill: none; stroke: #75505b; stroke-width: 1; stroke-opacity: 1.00; stroke-linecap: round; stroke-linejoin: round;" id="ezcGraphLine_91"/><path d=" M 208.5714,321.7200 L 254.2857,371.0112" style="fill: none; stroke: #75505b; stroke-width: 1; stroke-opacity: 1.00; stroke-linecap: round; stroke-linejoin: round;" id="ezcGraphLine_93"/><path d=" M 159.8571,144.4896 L 159.8571,138.4896 L 165.8571,138.4896 L 165.8571,144.4896 L 159.8571,144.4896 z " style="fill: #3465a4; fill-opacity: 1.00; stroke: none; cursor: pointer;" id="ezcGraphPolygon_95" onclick="top.location = 'https://bsd-hardware.info/?view=computers&amp;f=net_vendor&amp;v=Intel&amp;p=99&amp;p=87'"/><path d=" M 205.5714,143.2800 L 205.5714,137.2800 L 211.5714,137.2800 L 211.5714,143.2800 L 205.5714,143.2800 z " style="fill: #3465a4; fill-opacity: 1.00; stroke: none; cursor: pointer;" id="ezcGraphPolygon_96" onclick="top.location = 'https://bsd-hardware.info/?view=computers&amp;f=net_vendor&amp;v=Intel&amp;p=99&amp;p=89'"/><path d=" M 251.2857,183.4992 L 251.2857,177.4992 L 257.2857,177.4992 L 257.2857,183.4992 L 251.2857,183.4992 z " style="fill: #3465a4; fill-opacity: 1.00; stroke: none; cursor: pointer;" id="ezcGraphPolygon_97" onclick="top.location = 'https://bsd-hardware.info/?view=computers&amp;f=net_vendor&amp;v=Intel&amp;p=99&amp;p=91'"/><path d=" M 297.0000,143.2800 L 297.0000,137.2800 L 303.0000,137.2800 L 303.0000,143.2800 L 297.0000,143.2800 z " style="fill: #3465a4; fill-opacity: 1.00; stroke: none; cursor: pointer;" id="ezcGraphPolygon_98" onclick="top.location = 'https://bsd-hardware.info/?view=computers&amp;f=net_vendor&amp;v=Intel&amp;p=99&amp;p=93'"/><path d=" M 342.7143,171.7056 L 342.7143,165.7056 L 348.7143,165.7056 L 348.7143,171.7056 L 342.7143,171.7056 z " style="fill: #3465a4; fill-opacity: 1.00; stroke: none; cursor: pointer;" id="ezcGraphPolygon_99" onclick="top.location = 'https://bsd-hardware.info/?view=computers&amp;f=net_vendor&amp;v=Intel&amp;p=99&amp;p=95'"/><path d=" M 388.4286,154.7712 L 388.4286,148.7712 L 394.4286,148.7712 L 394.4286,154.7712 L 388.4286,154.7712 z " style="fill: #3465a4; fill-opacity: 1.00; stroke: none; cursor: pointer;" id="ezcGraphPolygon_100" onclick="top.location = 'https://bsd-hardware.info/?view=computers&amp;f=net_vendor&amp;v=Intel&amp;p=99&amp;p=97'"/><path d=" M 434.1429,152.0496 L 434.1429,146.0496 L 440.1429,146.0496 L 440.1429,152.0496 L 434.1429,152.0496 z " style="fill: #3465a4; fill-opacity: 1.00; stroke: none; cursor: pointer;" id="ezcGraphPolygon_101" onclick="top.location = 'https://bsd-hardware.info/?view=computers&amp;f=net_vendor&amp;v=Intel&amp;p=99&amp;p=99'"/><path d=" M 159.8571,351.6336 L 159.8571,345.6336 L 165.8571,345.6336 L 165.8571,351.6336 L 159.8571,351.6336 z " style="fill: #4e9a06; fill-opacity: 1.00; stroke: none; cursor: pointer;" id="ezcGraphPolygon_102" onclick="top.location = 'https://bsd-hardware.info/?view=computers&amp;f=net_vendor&amp;v=Red+Hat&amp;p=99&amp;p=87'"/><path d=" M 251.2857,306.8784 L 251.2857,300.8784 L 257.2857,300.8784 L 257.2857,306.8784 L 251.2857,306.8784 z " style="fill: #4e9a06; fill-opacity: 1.00; stroke: none; cursor: pointer;" id="ezcGraphPolygon_103" onclick="top.location = 'https://bsd-hardware.info/?view=computers&amp;f=net_vendor&amp;v=Red+Hat&amp;p=99&amp;p=91'"/><path d=" M 297.0000,324.7200 L 297.0000,318.7200 L 303.0000,318.7200 L 303.0000,324.7200 L 297.0000,324.7200 z " style="fill: #4e9a06; fill-opacity: 1.00; stroke: none; cursor: pointer;" id="ezcGraphPolygon_104" onclick="top.location = 'https://bsd-hardware.info/?view=computers&amp;f=net_vendor&amp;v=Red+Hat&amp;p=99&amp;p=93'"/><path d=" M 342.7143,314.1360 L 342.7143,308.1360 L 348.7143,308.1360 L 348.7143,314.1360 L 342.7143,314.1360 z " style="fill: #4e9a06; fill-opacity: 1.00; stroke: none; cursor: pointer;" id="ezcGraphPolygon_105" onclick="top.location = 'https://bsd-hardware.info/?view=computers&amp;f=net_vendor&amp;v=Red+Hat&amp;p=99&amp;p=95'"/><path d=" M 388.4286,337.1184 L 388.4286,331.1184 L 394.4286,331.1184 L 394.4286,337.1184 L 388.4286,337.1184 z " style="fill: #4e9a06; fill-opacity: 1.00; stroke: none; cursor: pointer;" id="ezcGraphPolygon_106" onclick="top.location = 'https://bsd-hardware.info/?view=computers&amp;f=net_vendor&amp;v=Red+Hat&amp;p=99&amp;p=97'"/><path d=" M 434.1429,350.7264 L 434.1429,344.7264 L 440.1429,344.7264 L 440.1429,350.7264 L 434.1429,350.7264 z " style="fill: #4e9a06; fill-opacity: 1.00; stroke: none; cursor: pointer;" id="ezcGraphPolygon_107" onclick="top.location = 'https://bsd-hardware.info/?view=computers&amp;f=net_vendor&amp;v=Red+Hat&amp;p=99&amp;p=99'"/><path d=" M 159.8571,362.8224 L 159.8571,356.8224 L 165.8571,356.8224 L 165.8571,362.8224 L 159.8571,362.8224 z " style="fill: #cc0000; fill-opacity: 1.00; stroke: none; cursor: pointer;" id="ezcGraphPolygon_108" onclick="top.location = 'https://bsd-hardware.info/?view=computers&amp;f=net_vendor&amp;v=Realtek+Semiconductor&amp;p=99&amp;p=87'"/><path d=" M 251.2857,374.0112 L 251.2857,368.0112 L 257.2857,368.0112 L 257.2857,374.0112 L 251.2857,374.0112 z " style="fill: #cc0000; fill-opacity: 1.00; stroke: none; cursor: pointer;" id="ezcGraphPolygon_109" onclick="top.location = 'https://bsd-hardware.info/?view=computers&amp;f=net_vendor&amp;v=Realtek+Semiconductor&amp;p=99&amp;p=91'"/><path d=" M 342.7143,367.3584 L 342.7143,361.3584 L 348.7143,361.3584 L 348.7143,367.3584 L 342.7143,367.3584 z " style="fill: #cc0000; fill-opacity: 1.00; stroke: none; cursor: pointer;" id="ezcGraphPolygon_110" onclick="top.location = 'https://bsd-hardware.info/?view=computers&amp;f=net_vendor&amp;v=Realtek+Semiconductor&amp;p=99&amp;p=95'"/><path d=" M 388.4286,370.6848 L 388.4286,364.6848 L 394.4286,364.6848 L 394.4286,370.6848 L 388.4286,370.6848 z " style="fill: #cc0000; fill-opacity: 1.00; stroke: none; cursor: pointer;" id="ezcGraphPolygon_111" onclick="top.location = 'https://bsd-hardware.info/?view=computers&amp;f=net_vendor&amp;v=Realtek+Semiconductor&amp;p=99&amp;p=97'"/><path d=" M 434.1429,359.1936 L 434.1429,353.1936 L 440.1429,353.1936 L 440.1429,359.1936 L 434.1429,359.1936 z " style="fill: #cc0000; fill-opacity: 1.00; stroke: none; cursor: pointer;" id="ezcGraphPolygon_112" onclick="top.location = 'https://bsd-hardware.info/?view=computers&amp;f=net_vendor&amp;v=Realtek+Semiconductor&amp;p=99&amp;p=99'"/><path d=" M 388.4286,375.5232 L 388.4286,369.5232 L 394.4286,369.5232 L 394.4286,375.5232 L 388.4286,375.5232 z " style="fill: #edd400; fill-opacity: 1.00; stroke: none; cursor: pointer;" id="ezcGraphPolygon_113" onclick="top.location = 'https://bsd-hardware.info/?view=computers&amp;f=net_vendor&amp;v=Qumranet&amp;p=99&amp;p=97'"/><path d=" M 434.1429,376.4304 L 434.1429,370.4304 L 440.1429,370.4304 L 440.1429,376.4304 L 434.1429,376.4304 z " style="fill: #edd400; fill-opacity: 1.00; stroke: none; cursor: pointer;" id="ezcGraphPolygon_114" onclick="top.location = 'https://bsd-hardware.info/?view=computers&amp;f=net_vendor&amp;v=Qumranet&amp;p=99&amp;p=99'"/><path d=" M 159.8571,379.4544 L 159.8571,373.4544 L 165.8571,373.4544 L 165.8571,379.4544 L 159.8571,379.4544 z " style="fill: #75505b; fill-opacity: 1.00; stroke: none;" id="ezcGraphPolygon_115"/><path d=" M 205.5714,324.7200 L 205.5714,318.7200 L 211.5714,318.7200 L 211.5714,324.7200 L 205.5714,324.7200 z " style="fill: #75505b; fill-opacity: 1.00; stroke: none;" id="ezcGraphPolygon_116"/><path d=" M 251.2857,374.0112 L 251.2857,368.0112 L 257.2857,368.0112 L 257.2857,374.0112 L 251.2857,374.0112 z " style="fill: #75505b; fill-opacity: 1.00; stroke: none;" id="ezcGraphPolygon_117"/><g id="ezcGraphTextBox_3"><path d=" M 26.9000,42.0000 L 26.9000,0.5000 L 473.6000,0.5000 L 473.6000,42.0000 L 26.9000,42.0000 z " style="fill: #ffffff; fill-opacity: 0.00; stroke: none;" id="ezcGraphPolygon_118"/><text id="ezcGraphTextBox_3_text" x="27.4000" text-length="445.2000px" y="35.0000" style="font-size: 40px; font-family: 'Arial'; fill: #2e3436; fill-opacity: 1.00; stroke: none;">Net Controller Vendor</text></g><g id="ezcGraphTextBox_6" style=" cursor: pointer;" onclick="top.location = 'https://bsd-hardware.info/?view=computers&amp;f=net_vendor&amp;v=Intel&amp;p=99'"><path d=" M 16.5000,59.0000 L 16.5000,43.5000 L 55.1000,43.5000 L 55.1000,59.0000 L 16.5000,59.0000 z " style="fill: #ffffff; fill-opacity: 0.00; stroke: none;" id="ezcGraphPolygon_119"/><text id="ezcGraphTextBox_6_text" x="17.0000" text-length="37.1000px" y="55.9000" style="font-size: 14px; font-family: 'Arial'; fill: #2e3436; fill-opacity: 1.00; stroke: none;">Intel</text></g><g id="ezcGraphTextBox_8" style=" cursor: pointer;" onclick="top.location = 'https://bsd-hardware.info/?view=computers&amp;f=net_vendor&amp;v=Red+Hat&amp;p=99'"><path d=" M 16.5000,77.0000 L 16.5000,61.5000 L 69.9400,61.5000 L 69.9400,77.0000 L 16.5000,77.0000 z " style="fill: #ffffff; fill-opacity: 0.00; stroke: none;" id="ezcGraphPolygon_120"/><text id="ezcGraphTextBox_8_text" x="17.0000" text-length="51.9400px" y="73.9000" style="font-size: 14px; font-family: 'Arial'; fill: #2e3436; fill-opacity: 1.00; stroke: none;">Red Hat</text></g><g id="ezcGraphTextBox_10" style=" cursor: pointer;" onclick="top.location = 'https://bsd-hardware.info/?view=computers&amp;f=net_vendor&amp;v=Realtek+Semiconductor&amp;p=99'"><path d=" M 16.5000,95.0000 L 16.5000,79.5000 L 69.9400,79.5000 L 69.9400,95.0000 L 16.5000,95.0000 z " style="fill: #ffffff; fill-opacity: 0.00; stroke: none;" id="ezcGraphPolygon_121"/><text id="ezcGraphTextBox_10_text" x="17.0000" text-length="51.9400px" y="91.9000" style="font-size: 14px; font-family: 'Arial'; fill: #2e3436; fill-opacity: 1.00; stroke: none;">Realtek</text></g><g id="ezcGraphTextBox_12" style=" cursor: pointer;" onclick="top.location = 'https://bsd-hardware.info/?view=computers&amp;f=net_vendor&amp;v=Qumranet&amp;p=99'"><path d=" M 16.5000,113.0000 L 16.5000,97.5000 L 77.3600,97.5000 L 77.3600,113.0000 L 16.5000,113.0000 z " style="fill: #ffffff; fill-opacity: 0.00; stroke: none;" id="ezcGraphPolygon_122"/><text id="ezcGraphTextBox_12_text" x="17.0000" text-length="59.3600px" y="109.9000" style="font-size: 14px; font-family: 'Arial'; fill: #2e3436; fill-opacity: 1.00; stroke: none;">Qumranet</text></g><g id="ezcGraphTextBox_14"><path d=" M 16.5000,131.0000 L 16.5000,115.5000 L 62.5200,115.5000 L 62.5200,131.0000 L 16.5000,131.0000 z " style="fill: #ffffff; fill-opacity: 0.00; stroke: none;" id="ezcGraphPolygon_123"/><text id="ezcGraphTextBox_14_text" x="17.0000" text-length="44.5200px" y="127.9000" style="font-size: 14px; font-family: 'Arial'; fill: #2e3436; fill-opacity: 1.00; stroke: none;">Others</text></g><g id="ezcGraphTextBox_17" transform="rotate( 0.00 493.0000 375.2000 )"><path d=" M 468.3500,381.2000 L 468.3500,368.7000 L 499.0000,368.7000 L 499.0000,381.2000 L 468.3500,381.2000 z " style="fill: #ffffff; fill-opacity: 0.00; stroke: none;" id="ezcGraphPolygon_124"/><text id="ezcGraphTextBox_17_text" x="468.8500" text-length="29.1500px" y="378.5500" style="font-size: 11px; font-family: 'Arial'; fill: #2e3436; fill-opacity: 1.00; stroke: none;">Time </text></g><g id="ezcGraphTextBox_18"><path d=" M 148.7171,407.3000 L 148.7171,383.7000 L 177.4971,383.7000 L 177.4971,407.3000 L 148.7171,407.3000 z " style="fill: #ffffff; fill-opacity: 0.00; stroke: none;" id="ezcGraphPolygon_125"/><text id="ezcGraphTextBox_18_text" x="154.1121" text-length="17.4900px" y="393.5500" style="font-size: 11px; font-family: 'Arial'; fill: #2e3436; fill-opacity: 1.00; stroke: none;">Mar</text><text id="ezcGraphTextBox_18_text" x="149.2171" text-length="27.2800px" y="405.6500" style="font-size: 11px; font-family: 'Arial'; fill: #2e3436; fill-opacity: 1.00; stroke: none;">2021</text></g><g id="ezcGraphTextBox_21"><path d=" M 194.4314,407.3000 L 194.4314,383.7000 L 223.2114,383.7000 L 223.2114,407.3000 L 194.4314,407.3000 z " style="fill: #ffffff; fill-opacity: 0.00; stroke: none;" id="ezcGraphPolygon_126"/><text id="ezcGraphTextBox_21_text" x="199.8264" text-length="17.4900px" y="393.5500" style="font-size: 11px; font-family: 'Arial'; fill: #2e3436; fill-opacity: 1.00; stroke: none;">May</text><text id="ezcGraphTextBox_21_text" x="194.9314" text-length="27.2800px" y="405.6500" style="font-size: 11px; font-family: 'Arial'; fill: #2e3436; fill-opacity: 1.00; stroke: none;">2021</text></g><g id="ezcGraphTextBox_24"><path d=" M 240.1457,407.3000 L 240.1457,383.7000 L 268.9257,383.7000 L 268.9257,407.3000 L 240.1457,407.3000 z " style="fill: #ffffff; fill-opacity: 0.00; stroke: none;" id="ezcGraphPolygon_127"/><text id="ezcGraphTextBox_24_text" x="245.5407" text-length="17.4900px" y="393.5500" style="font-size: 11px; font-family: 'Arial'; fill: #2e3436; fill-opacity: 1.00; stroke: none;">Jul</text><text id="ezcGraphTextBox_24_text" x="240.6457" text-length="27.2800px" y="405.6500" style="font-size: 11px; font-family: 'Arial'; fill: #2e3436; fill-opacity: 1.00; stroke: none;">2021</text></g><g id="ezcGraphTextBox_27"><path d=" M 285.8600,407.3000 L 285.8600,383.7000 L 314.6400,383.7000 L 314.6400,407.3000 L 285.8600,407.3000 z " style="fill: #ffffff; fill-opacity: 0.00; stroke: none;" id="ezcGraphPolygon_128"/><text id="ezcGraphTextBox_27_text" x="291.2550" text-length="17.4900px" y="393.5500" style="font-size: 11px; font-family: 'Arial'; fill: #2e3436; fill-opacity: 1.00; stroke: none;">Sep</text><text id="ezcGraphTextBox_27_text" x="286.3600" text-length="27.2800px" y="405.6500" style="font-size: 11px; font-family: 'Arial'; fill: #2e3436; fill-opacity: 1.00; stroke: none;">2021</text></g><g id="ezcGraphTextBox_30"><path d=" M 331.5743,407.3000 L 331.5743,383.7000 L 360.3543,383.7000 L 360.3543,407.3000 L 331.5743,407.3000 z " style="fill: #ffffff; fill-opacity: 0.00; stroke: none;" id="ezcGraphPolygon_129"/><text id="ezcGraphTextBox_30_text" x="336.9693" text-length="17.4900px" y="393.5500" style="font-size: 11px; font-family: 'Arial'; fill: #2e3436; fill-opacity: 1.00; stroke: none;">Nov</text><text id="ezcGraphTextBox_30_text" x="332.0743" text-length="27.2800px" y="405.6500" style="font-size: 11px; font-family: 'Arial'; fill: #2e3436; fill-opacity: 1.00; stroke: none;">2021</text></g><g id="ezcGraphTextBox_33"><path d=" M 377.2886,407.3000 L 377.2886,383.7000 L 406.0686,383.7000 L 406.0686,407.3000 L 377.2886,407.3000 z " style="fill: #ffffff; fill-opacity: 0.00; stroke: none;" id="ezcGraphPolygon_130"/><text id="ezcGraphTextBox_33_text" x="382.6836" text-length="17.4900px" y="393.5500" style="font-size: 11px; font-family: 'Arial'; fill: #2e3436; fill-opacity: 1.00; stroke: none;">Jan</text><text id="ezcGraphTextBox_33_text" x="377.7886" text-length="27.2800px" y="405.6500" style="font-size: 11px; font-family: 'Arial'; fill: #2e3436; fill-opacity: 1.00; stroke: none;">2022</text></g><g id="ezcGraphTextBox_36"><path d=" M 423.0029,407.3000 L 423.0029,383.7000 L 451.7829,383.7000 L 451.7829,407.3000 L 423.0029,407.3000 z " style="fill: #ffffff; fill-opacity: 0.00; stroke: none;" id="ezcGraphPolygon_131"/><text id="ezcGraphTextBox_36_text" x="428.3979" text-length="17.4900px" y="393.5500" style="font-size: 11px; font-family: 'Arial'; fill: #2e3436; fill-opacity: 1.00; stroke: none;">Mar</text><text id="ezcGraphTextBox_36_text" x="423.5029" text-length="27.2800px" y="405.6500" style="font-size: 11px; font-family: 'Arial'; fill: #2e3436; fill-opacity: 1.00; stroke: none;">2022</text></g><g id="ezcGraphTextBox_41" transform="rotate( 0.00 147.0000 49.0000 )"><path d=" M 141.5000,56.0000 L 141.5000,43.5000 L 382.0300,43.5000 L 382.0300,56.0000 L 141.5000,56.0000 z " style="fill: #ffffff; fill-opacity: 0.00; stroke: none;" id="ezcGraphPolygon_132"/><text id="ezcGraphTextBox_41_text" x="142.0000" text-length="239.0300px" y="53.3500" style="font-size: 11px; font-family: 'Arial'; fill: #2e3436; fill-opacity: 1.00; stroke: none;">Computers by "Net Controller Vendor" in %</text></g><g id="ezcGraphTextBox_42"><path d=" M 130.6800,381.2000 L 130.6800,368.7000 L 139.0000,368.7000 L 139.0000,381.2000 L 130.6800,381.2000 z " style="fill: #ffffff; fill-opacity: 0.00; stroke: none;" id="ezcGraphPolygon_133"/><text id="ezcGraphTextBox_42_text" x="131.1800" text-length="6.8200px" y="378.5500" style="font-size: 11px; font-family: 'Arial'; fill: #2e3436; fill-opacity: 1.00; stroke: none;">0</text></g><g id="ezcGraphTextBox_45"><path d=" M 123.8600,230.0000 L 123.8600,217.5000 L 139.0000,217.5000 L 139.0000,230.0000 L 123.8600,230.0000 z " style="fill: #ffffff; fill-opacity: 0.00; stroke: none;" id="ezcGraphPolygon_134"/><text id="ezcGraphTextBox_45_text" x="124.3600" text-length="13.6400px" y="227.3500" style="font-size: 11px; font-family: 'Arial'; fill: #2e3436; fill-opacity: 1.00; stroke: none;">50</text></g><g id="ezcGraphTextBox_48"><path d=" M 117.0400,93.8000 L 117.0400,81.3000 L 139.0000,81.3000 L 139.0000,93.8000 L 117.0400,93.8000 z " style="fill: #ffffff; fill-opacity: 0.00; stroke: none;" id="ezcGraphPolygon_135"/><text id="ezcGraphTextBox_48_text" x="117.5400" text-length="20.4600px" y="91.1500" style="font-size: 11px; font-family: 'Arial'; fill: #2e3436; fill-opacity: 1.00; stroke: none;">100</text></g><g id="ezcGraphTextBox_50"><path d=" M 149.9571,136.4896 L 149.9571,124.9896 L 176.2571,124.9896 L 176.2571,136.4896 L 149.9571,136.4896 z " style="fill: #ffffff; fill-opacity: 0.00; stroke: none;" id="ezcGraphPolygon_136"/><text id="ezcGraphTextBox_50_text" x="150.4571" text-length="24.8000px" y="133.9896" style="font-size: 10px; font-family: 'Arial'; fill: #2e3436; fill-opacity: 1.00; stroke: none;">79.6</text></g><g id="ezcGraphTextBox_52"><path d=" M 201.8714,135.2800 L 201.8714,123.7800 L 215.7714,123.7800 L 215.7714,135.2800 L 201.8714,135.2800 z " style="fill: #ffffff; fill-opacity: 0.00; stroke: none;" id="ezcGraphPolygon_137"/><text id="ezcGraphTextBox_52_text" x="202.3714" text-length="12.4000px" y="132.7800" style="font-size: 10px; font-family: 'Arial'; fill: #2e3436; fill-opacity: 1.00; stroke: none;">80</text></g><g id="ezcGraphTextBox_54"><path d=" M 241.3857,175.4992 L 241.3857,163.9992 L 267.6857,163.9992 L 267.6857,175.4992 L 241.3857,175.4992 z " style="fill: #ffffff; fill-opacity: 0.00; stroke: none;" id="ezcGraphPolygon_138"/><text id="ezcGraphTextBox_54_text" x="241.8857" text-length="24.8000px" y="172.9992" style="font-size: 10px; font-family: 'Arial'; fill: #2e3436; fill-opacity: 1.00; stroke: none;">66.7</text></g><g id="ezcGraphTextBox_56"><path d=" M 293.3000,135.2800 L 293.3000,123.7800 L 307.2000,123.7800 L 307.2000,135.2800 L 293.3000,135.2800 z " style="fill: #ffffff; fill-opacity: 0.00; stroke: none;" id="ezcGraphPolygon_139"/><text id="ezcGraphTextBox_56_text" x="293.8000" text-length="12.4000px" y="132.7800" style="font-size: 10px; font-family: 'Arial'; fill: #2e3436; fill-opacity: 1.00; stroke: none;">80</text></g><g id="ezcGraphTextBox_58"><path d=" M 332.8143,163.7056 L 332.8143,152.2056 L 359.1143,152.2056 L 359.1143,163.7056 L 332.8143,163.7056 z " style="fill: #ffffff; fill-opacity: 0.00; stroke: none;" id="ezcGraphPolygon_140"/><text id="ezcGraphTextBox_58_text" x="333.3143" text-length="24.8000px" y="161.2056" style="font-size: 10px; font-family: 'Arial'; fill: #2e3436; fill-opacity: 1.00; stroke: none;">70.6</text></g><g id="ezcGraphTextBox_60"><path d=" M 378.5286,146.7712 L 378.5286,135.2712 L 404.8286,135.2712 L 404.8286,146.7712 L 378.5286,146.7712 z " style="fill: #ffffff; fill-opacity: 0.00; stroke: none;" id="ezcGraphPolygon_141"/><text id="ezcGraphTextBox_60_text" x="379.0286" text-length="24.8000px" y="144.2712" style="font-size: 10px; font-family: 'Arial'; fill: #2e3436; fill-opacity: 1.00; stroke: none;">76.2</text></g><g id="ezcGraphTextBox_62"><path d=" M 424.2429,144.0496 L 424.2429,132.5496 L 450.5429,132.5496 L 450.5429,144.0496 L 424.2429,144.0496 z " style="fill: #ffffff; fill-opacity: 0.00; stroke: none;" id="ezcGraphPolygon_142"/><text id="ezcGraphTextBox_62_text" x="424.7429" text-length="24.8000px" y="141.5496" style="font-size: 10px; font-family: 'Arial'; fill: #2e3436; fill-opacity: 1.00; stroke: none;">77.1</text></g><g id="ezcGraphTextBox_64"><path d=" M 149.9571,343.6336 L 149.9571,332.1336 L 176.2571,332.1336 L 176.2571,343.6336 L 149.9571,343.6336 z " style="fill: #ffffff; fill-opacity: 0.00; stroke: none;" id="ezcGraphPolygon_143"/><text id="ezcGraphTextBox_64_text" x="150.4571" text-length="24.8000px" y="341.1336" style="font-size: 10px; font-family: 'Arial'; fill: #2e3436; fill-opacity: 1.00; stroke: none;">11.1</text></g><g id="ezcGraphTextBox_66"><path d=" M 241.3857,298.8784 L 241.3857,287.3784 L 267.6857,287.3784 L 267.6857,298.8784 L 241.3857,298.8784 z " style="fill: #ffffff; fill-opacity: 0.00; stroke: none;" id="ezcGraphPolygon_144"/><text id="ezcGraphTextBox_66_text" x="241.8857" text-length="24.8000px" y="296.3784" style="font-size: 10px; font-family: 'Arial'; fill: #2e3436; fill-opacity: 1.00; stroke: none;">25.9</text></g><g id="ezcGraphTextBox_68"><path d=" M 293.3000,316.7200 L 293.3000,305.2200 L 307.2000,305.2200 L 307.2000,316.7200 L 293.3000,316.7200 z " style="fill: #ffffff; fill-opacity: 0.00; stroke: none;" id="ezcGraphPolygon_145"/><text id="ezcGraphTextBox_68_text" x="293.8000" text-length="12.4000px" y="314.2200" style="font-size: 10px; font-family: 'Arial'; fill: #2e3436; fill-opacity: 1.00; stroke: none;">20</text></g><g id="ezcGraphTextBox_70"><path d=" M 332.8143,306.1360 L 332.8143,294.6360 L 359.1143,294.6360 L 359.1143,306.1360 L 332.8143,306.1360 z " style="fill: #ffffff; fill-opacity: 0.00; stroke: none;" id="ezcGraphPolygon_146"/><text id="ezcGraphTextBox_70_text" x="333.3143" text-length="24.8000px" y="303.6360" style="font-size: 10px; font-family: 'Arial'; fill: #2e3436; fill-opacity: 1.00; stroke: none;">23.5</text></g><g id="ezcGraphTextBox_72"><path d=" M 378.5286,329.1184 L 378.5286,317.6184 L 404.8286,317.6184 L 404.8286,329.1184 L 378.5286,329.1184 z " style="fill: #ffffff; fill-opacity: 0.00; stroke: none;" id="ezcGraphPolygon_147"/><text id="ezcGraphTextBox_72_text" x="379.0286" text-length="24.8000px" y="326.6184" style="font-size: 10px; font-family: 'Arial'; fill: #2e3436; fill-opacity: 1.00; stroke: none;">15.9</text></g><g id="ezcGraphTextBox_74"><path d=" M 424.2429,342.7264 L 424.2429,331.2264 L 450.5429,331.2264 L 450.5429,342.7264 L 424.2429,342.7264 z " style="fill: #ffffff; fill-opacity: 0.00; stroke: none;" id="ezcGraphPolygon_148"/><text id="ezcGraphTextBox_74_text" x="424.7429" text-length="24.8000px" y="340.2264" style="font-size: 10px; font-family: 'Arial'; fill: #2e3436; fill-opacity: 1.00; stroke: none;">11.4</text></g><g id="ezcGraphTextBox_76"><path d=" M 153.0571,354.8224 L 153.0571,343.3224 L 173.1571,343.3224 L 173.1571,354.8224 L 153.0571,354.8224 z " style="fill: #ffffff; fill-opacity: 0.00; stroke: none;" id="ezcGraphPolygon_149"/><text id="ezcGraphTextBox_76_text" x="153.5571" text-length="18.6000px" y="352.3224" style="font-size: 10px; font-family: 'Arial'; fill: #2e3436; fill-opacity: 1.00; stroke: none;">7.4</text></g><g id="ezcGraphTextBox_78"><path d=" M 244.4857,366.0112 L 244.4857,354.5112 L 264.5857,354.5112 L 264.5857,366.0112 L 244.4857,366.0112 z " style="fill: #ffffff; fill-opacity: 0.00; stroke: none;" id="ezcGraphPolygon_150"/><text id="ezcGraphTextBox_78_text" x="244.9857" text-length="18.6000px" y="363.5112" style="font-size: 10px; font-family: 'Arial'; fill: #2e3436; fill-opacity: 1.00; stroke: none;">3.7</text></g><g id="ezcGraphTextBox_80"><path d=" M 335.9143,359.3584 L 335.9143,347.8584 L 356.0143,347.8584 L 356.0143,359.3584 L 335.9143,359.3584 z " style="fill: #ffffff; fill-opacity: 0.00; stroke: none;" id="ezcGraphPolygon_151"/><text id="ezcGraphTextBox_80_text" x="336.4143" text-length="18.6000px" y="356.8584" style="font-size: 10px; font-family: 'Arial'; fill: #2e3436; fill-opacity: 1.00; stroke: none;">5.9</text></g><g id="ezcGraphTextBox_82"><path d=" M 381.6286,362.6848 L 381.6286,351.1848 L 401.7286,351.1848 L 401.7286,362.6848 L 381.6286,362.6848 z " style="fill: #ffffff; fill-opacity: 0.00; stroke: none;" id="ezcGraphPolygon_152"/><text id="ezcGraphTextBox_82_text" x="382.1286" text-length="18.6000px" y="360.1848" style="font-size: 10px; font-family: 'Arial'; fill: #2e3436; fill-opacity: 1.00; stroke: none;">4.8</text></g><g id="ezcGraphTextBox_84"><path d=" M 427.3429,351.1936 L 427.3429,339.6936 L 447.4429,339.6936 L 447.4429,351.1936 L 427.3429,351.1936 z " style="fill: #ffffff; fill-opacity: 0.00; stroke: none;" id="ezcGraphPolygon_153"/><text id="ezcGraphTextBox_84_text" x="427.8429" text-length="18.6000px" y="348.6936" style="font-size: 10px; font-family: 'Arial'; fill: #2e3436; fill-opacity: 1.00; stroke: none;">8.6</text></g><g id="ezcGraphTextBox_86"><path d=" M 381.6286,367.5232 L 381.6286,356.0232 L 401.7286,356.0232 L 401.7286,367.5232 L 381.6286,367.5232 z " style="fill: #ffffff; fill-opacity: 0.00; stroke: none;" id="ezcGraphPolygon_154"/><text id="ezcGraphTextBox_86_text" x="382.1286" text-length="18.6000px" y="365.0232" style="font-size: 10px; font-family: 'Arial'; fill: #2e3436; fill-opacity: 1.00; stroke: none;">3.2</text></g><g id="ezcGraphTextBox_88"><path d=" M 427.3429,368.4304 L 427.3429,356.9304 L 447.4429,356.9304 L 447.4429,368.4304 L 427.3429,368.4304 z " style="fill: #ffffff; fill-opacity: 0.00; stroke: none;" id="ezcGraphPolygon_155"/><text id="ezcGraphTextBox_88_text" x="427.8429" text-length="18.6000px" y="365.9304" style="font-size: 10px; font-family: 'Arial'; fill: #2e3436; fill-opacity: 1.00; stroke: none;">2.9</text></g><g id="ezcGraphTextBox_90"><path d=" M 153.0571,371.4544 L 153.0571,359.9544 L 173.1571,359.9544 L 173.1571,371.4544 L 153.0571,371.4544 z " style="fill: #ffffff; fill-opacity: 0.00; stroke: none;" id="ezcGraphPolygon_156"/><text id="ezcGraphTextBox_90_text" x="153.5571" text-length="18.6000px" y="368.9544" style="font-size: 10px; font-family: 'Arial'; fill: #2e3436; fill-opacity: 1.00; stroke: none;">1.9</text></g><g id="ezcGraphTextBox_92"><path d=" M 201.8714,316.7200 L 201.8714,305.2200 L 215.7714,305.2200 L 215.7714,316.7200 L 201.8714,316.7200 z " style="fill: #ffffff; fill-opacity: 0.00; stroke: none;" id="ezcGraphPolygon_157"/><text id="ezcGraphTextBox_92_text" x="202.3714" text-length="12.4000px" y="314.2200" style="font-size: 10px; font-family: 'Arial'; fill: #2e3436; fill-opacity: 1.00; stroke: none;">20</text></g><g id="ezcGraphTextBox_94"><path d=" M 244.4857,366.0112 L 244.4857,354.5112 L 264.5857,354.5112 L 264.5857,366.0112 L 244.4857,366.0112 z " style="fill: #ffffff; fill-opacity: 0.00; stroke: none;" id="ezcGraphPolygon_158"/><text id="ezcGraphTextBox_94_text" x="244.9857" text-length="18.6000px" y="363.5112" style="font-size: 10px; font-family: 'Arial'; fill: #2e3436; fill-opacity: 1.00; stroke: none;">3.7</text></g></g></svg>
