<?xml version="1.0"?>
<svg xmlns="http://www.w3.org/2000/svg" width="500" height="420" version="1.0" id="ezcGraph"><defs/><g id="ezcGraphChart" color-rendering="optimizeQuality" shape-rendering="geometricPrecision" text-rendering="optimizeLegibility"><path d=" M 0.0000,420.0000 L 0.0000,0.0000 L 500.0000,0.0000 L 500.0000,420.0000 L 0.0000,420.0000 z " style="fill: #eeeeec; fill-opacity: 1.00; stroke: none;" id="ezcGraphPolygon_1"/><path d=" M 0.0000,42.0000 L 0.0000,0.0000 L 500.0000,0.0000 L 500.0000,42.0000 L 0.0000,42.0000 z " style="fill: #000000; fill-opacity: 0.00; stroke: none;" id="ezcGraphPolygon_2"/><path d=" M 0.0000,420.0000 L 0.0000,42.0000 L 100.0000,42.0000 L 100.0000,420.0000 L 0.0000,420.0000 z " style="fill: #000000; fill-opacity: 0.00; stroke: none;" id="ezcGraphPolygon_4"/><path d=" M 2.0000,58.0000 L 2.0000,44.0000 L 16.0000,44.0000 L 16.0000,58.0000 L 2.0000,58.0000 z " style="fill: #3465a4; fill-opacity: 1.00; stroke: none; cursor: pointer;" id="ezcGraphPolygon_5" onclick="top.location = 'https://bsd-hardware.info/?view=computers&amp;f=os_de&amp;v=helloDesktop&amp;p=99'"/><path d=" M 2.0000,76.0000 L 2.0000,62.0000 L 16.0000,62.0000 L 16.0000,76.0000 L 2.0000,76.0000 z " style="fill: #4e9a06; fill-opacity: 1.00; stroke: none; cursor: pointer;" id="ezcGraphPolygon_7" onclick="top.location = 'https://bsd-hardware.info/?view=computers&amp;f=os_de&amp;v=&amp;p=99'"/><path d=" M 2.0000,94.0000 L 2.0000,80.0000 L 16.0000,80.0000 L 16.0000,94.0000 L 2.0000,94.0000 z " style="fill: #cc0000; fill-opacity: 1.00; stroke: none; cursor: pointer;" id="ezcGraphPolygon_9" onclick="top.location = 'https://bsd-hardware.info/?view=computers&amp;f=os_de&amp;v=XFCE&amp;p=99'"/><path d=" M 2.0000,112.0000 L 2.0000,98.0000 L 16.0000,98.0000 L 16.0000,112.0000 L 2.0000,112.0000 z " style="fill: #edd400; fill-opacity: 1.00; stroke: none; cursor: pointer;" id="ezcGraphPolygon_11" onclick="top.location = 'https://bsd-hardware.info/?view=computers&amp;f=os_de&amp;v=LXQt&amp;p=99'"/><path d=" M 2.0000,130.0000 L 2.0000,116.0000 L 16.0000,116.0000 L 16.0000,130.0000 L 2.0000,130.0000 z " style="fill: #75505b; fill-opacity: 1.00; stroke: none;" id="ezcGraphPolygon_13"/><path d=" M 100.0000,382.2000 L 500.0000,382.2000" style="fill: none; stroke: #2e3436; stroke-width: 1; stroke-opacity: 1.00; stroke-linecap: round; stroke-linejoin: round;" id="ezcGraphLine_15"/><path d=" M 492.0000,378.2000 L 500.0000,382.2000 L 492.0000,386.2000 L 492.0000,378.2000 z " style="fill: #2e3436; fill-opacity: 1.00; stroke: none;" id="ezcGraphPolygon_16"/><path d=" M 185.7143,79.8000 L 185.7143,382.2000" style="fill: none; stroke: #000000; stroke-width: 1; stroke-opacity: 0.00; stroke-linecap: round; stroke-linejoin: round;" id="ezcGraphLine_19"/><path d=" M 185.7143,379.2000 L 185.7143,385.2000" style="fill: none; stroke: #2e3436; stroke-width: 1; stroke-opacity: 1.00; stroke-linecap: round; stroke-linejoin: round;" id="ezcGraphLine_20"/><path d=" M 231.4286,79.8000 L 231.4286,382.2000" style="fill: none; stroke: #000000; stroke-width: 1; stroke-opacity: 0.00; stroke-linecap: round; stroke-linejoin: round;" id="ezcGraphLine_22"/><path d=" M 231.4286,379.2000 L 231.4286,385.2000" style="fill: none; stroke: #2e3436; stroke-width: 1; stroke-opacity: 1.00; stroke-linecap: round; stroke-linejoin: round;" id="ezcGraphLine_23"/><path d=" M 277.1429,79.8000 L 277.1429,382.2000" style="fill: none; stroke: #000000; stroke-width: 1; stroke-opacity: 0.00; stroke-linecap: round; stroke-linejoin: round;" id="ezcGraphLine_25"/><path d=" M 277.1429,379.2000 L 277.1429,385.2000" style="fill: none; stroke: #2e3436; stroke-width: 1; stroke-opacity: 1.00; stroke-linecap: round; stroke-linejoin: round;" id="ezcGraphLine_26"/><path d=" M 322.8571,79.8000 L 322.8571,382.2000" style="fill: none; stroke: #000000; stroke-width: 1; stroke-opacity: 0.00; stroke-linecap: round; stroke-linejoin: round;" id="ezcGraphLine_28"/><path d=" M 322.8571,379.2000 L 322.8571,385.2000" style="fill: none; stroke: #2e3436; stroke-width: 1; stroke-opacity: 1.00; stroke-linecap: round; stroke-linejoin: round;" id="ezcGraphLine_29"/><path d=" M 368.5714,79.8000 L 368.5714,382.2000" style="fill: none; stroke: #000000; stroke-width: 1; stroke-opacity: 0.00; stroke-linecap: round; stroke-linejoin: round;" id="ezcGraphLine_31"/><path d=" M 368.5714,379.2000 L 368.5714,385.2000" style="fill: none; stroke: #2e3436; stroke-width: 1; stroke-opacity: 1.00; stroke-linecap: round; stroke-linejoin: round;" id="ezcGraphLine_32"/><path d=" M 414.2857,79.8000 L 414.2857,382.2000" style="fill: none; stroke: #000000; stroke-width: 1; stroke-opacity: 0.00; stroke-linecap: round; stroke-linejoin: round;" id="ezcGraphLine_34"/><path d=" M 414.2857,379.2000 L 414.2857,385.2000" style="fill: none; stroke: #2e3436; stroke-width: 1; stroke-opacity: 1.00; stroke-linecap: round; stroke-linejoin: round;" id="ezcGraphLine_35"/><path d=" M 460.0000,79.8000 L 460.0000,382.2000" style="fill: none; stroke: #000000; stroke-width: 1; stroke-opacity: 0.00; stroke-linecap: round; stroke-linejoin: round;" id="ezcGraphLine_37"/><path d=" M 460.0000,379.2000 L 460.0000,385.2000" style="fill: none; stroke: #2e3436; stroke-width: 1; stroke-opacity: 1.00; stroke-linecap: round; stroke-linejoin: round;" id="ezcGraphLine_38"/><path d=" M 140.0000,420.0000 L 140.0000,42.0000" style="fill: none; stroke: #2e3436; stroke-width: 1; stroke-opacity: 1.00; stroke-linecap: round; stroke-linejoin: round;" id="ezcGraphLine_39"/><path d=" M 136.0000,50.0000 L 140.0000,42.0000 L 144.0000,50.0000 L 136.0000,50.0000 z " style="fill: #2e3436; fill-opacity: 1.00; stroke: none;" id="ezcGraphPolygon_40"/><path d=" M 140.0000,231.0000 L 460.0000,231.0000" style="fill: none; stroke: #000000; stroke-width: 1; stroke-opacity: 0.00; stroke-linecap: round; stroke-linejoin: round;" id="ezcGraphLine_43"/><path d=" M 140.0000,231.0000 L 143.0000,231.0000" style="fill: none; stroke: #2e3436; stroke-width: 1; stroke-opacity: 1.00; stroke-linecap: round; stroke-linejoin: round;" id="ezcGraphLine_44"/><path d=" M 140.0000,79.8000 L 460.0000,79.8000" style="fill: none; stroke: #000000; stroke-width: 1; stroke-opacity: 0.00; stroke-linecap: round; stroke-linejoin: round;" id="ezcGraphLine_46"/><path d=" M 140.0000,79.8000 L 143.0000,79.8000" style="fill: none; stroke: #2e3436; stroke-width: 1; stroke-opacity: 1.00; stroke-linecap: round; stroke-linejoin: round;" id="ezcGraphLine_47"/><path d=" M 162.8571,229.4880 L 162.8571,229.4880" style="fill: none; stroke: #3465a4; stroke-width: 1; stroke-opacity: 1.00; stroke-linecap: round; stroke-linejoin: round;" id="ezcGraphLine_49"/><path d=" M 162.8571,229.4880 L 208.5714,323.5344" style="fill: none; stroke: #3465a4; stroke-width: 1; stroke-opacity: 1.00; stroke-linecap: round; stroke-linejoin: round;" id="ezcGraphLine_51"/><path d=" M 208.5714,323.5344 L 254.2857,249.4464" style="fill: none; stroke: #3465a4; stroke-width: 1; stroke-opacity: 1.00; stroke-linecap: round; stroke-linejoin: round;" id="ezcGraphLine_53"/><path d=" M 254.2857,249.4464 L 300.0000,302.9712" style="fill: none; stroke: #3465a4; stroke-width: 1; stroke-opacity: 1.00; stroke-linecap: round; stroke-linejoin: round;" id="ezcGraphLine_55"/><path d=" M 300.0000,302.9712 L 345.7143,279.3840" style="fill: none; stroke: #3465a4; stroke-width: 1; stroke-opacity: 1.00; stroke-linecap: round; stroke-linejoin: round;" id="ezcGraphLine_57"/><path d=" M 345.7143,279.3840 L 391.4286,211.0416" style="fill: none; stroke: #3465a4; stroke-width: 1; stroke-opacity: 1.00; stroke-linecap: round; stroke-linejoin: round;" id="ezcGraphLine_59"/><path d=" M 391.4286,211.0416 L 437.1429,234.9312" style="fill: none; stroke: #3465a4; stroke-width: 1; stroke-opacity: 1.00; stroke-linecap: round; stroke-linejoin: round;" id="ezcGraphLine_61"/><path d=" M 162.8571,240.9792 L 162.8571,240.9792" style="fill: none; stroke: #4e9a06; stroke-width: 1; stroke-opacity: 1.00; stroke-linecap: round; stroke-linejoin: round;" id="ezcGraphLine_63"/><path d=" M 162.8571,240.9792 L 208.5714,163.8672" style="fill: none; stroke: #4e9a06; stroke-width: 1; stroke-opacity: 1.00; stroke-linecap: round; stroke-linejoin: round;" id="ezcGraphLine_65"/><path d=" M 208.5714,163.8672 L 254.2857,221.9280" style="fill: none; stroke: #4e9a06; stroke-width: 1; stroke-opacity: 1.00; stroke-linecap: round; stroke-linejoin: round;" id="ezcGraphLine_67"/><path d=" M 254.2857,221.9280 L 300.0000,173.8464" style="fill: none; stroke: #4e9a06; stroke-width: 1; stroke-opacity: 1.00; stroke-linecap: round; stroke-linejoin: round;" id="ezcGraphLine_69"/><path d=" M 300.0000,173.8464 L 345.7143,194.7120" style="fill: none; stroke: #4e9a06; stroke-width: 1; stroke-opacity: 1.00; stroke-linecap: round; stroke-linejoin: round;" id="ezcGraphLine_71"/><path d=" M 345.7143,194.7120 L 391.4286,259.1232" style="fill: none; stroke: #4e9a06; stroke-width: 1; stroke-opacity: 1.00; stroke-linecap: round; stroke-linejoin: round;" id="ezcGraphLine_73"/><path d=" M 391.4286,259.1232 L 437.1429,234.9312" style="fill: none; stroke: #4e9a06; stroke-width: 1; stroke-opacity: 1.00; stroke-linecap: round; stroke-linejoin: round;" id="ezcGraphLine_75"/><path d=" M 345.7143,376.1520 L 345.7143,376.1520" style="fill: none; stroke: #cc0000; stroke-width: 1; stroke-opacity: 1.00; stroke-linecap: round; stroke-linejoin: round;" id="ezcGraphLine_77"/><path d=" M 345.7143,376.1520 L 437.1429,378.2688" style="fill: none; stroke: #cc0000; stroke-width: 1; stroke-opacity: 1.00; stroke-linecap: round; stroke-linejoin: round;" id="ezcGraphLine_79"/><path d=" M 437.1429,378.2688 L 437.1429,378.2688" style="fill: none; stroke: #edd400; stroke-width: 1; stroke-opacity: 1.00; stroke-linecap: round; stroke-linejoin: round;" id="ezcGraphLine_81"/><path d=" M 162.8571,373.4304 L 162.8571,373.4304" style="fill: none; stroke: #75505b; stroke-width: 1; stroke-opacity: 1.00; stroke-linecap: round; stroke-linejoin: round;" id="ezcGraphLine_83"/><path d=" M 162.8571,373.4304 L 208.5714,357.1008" style="fill: none; stroke: #75505b; stroke-width: 1; stroke-opacity: 1.00; stroke-linecap: round; stroke-linejoin: round;" id="ezcGraphLine_85"/><path d=" M 208.5714,357.1008 L 254.2857,373.1280" style="fill: none; stroke: #75505b; stroke-width: 1; stroke-opacity: 1.00; stroke-linecap: round; stroke-linejoin: round;" id="ezcGraphLine_87"/><path d=" M 254.2857,373.1280 L 300.0000,367.3824" style="fill: none; stroke: #75505b; stroke-width: 1; stroke-opacity: 1.00; stroke-linecap: round; stroke-linejoin: round;" id="ezcGraphLine_89"/><path d=" M 300.0000,367.3824 L 345.7143,376.1520" style="fill: none; stroke: #75505b; stroke-width: 1; stroke-opacity: 1.00; stroke-linecap: round; stroke-linejoin: round;" id="ezcGraphLine_91"/><path d=" M 345.7143,376.1520 L 391.4286,374.0352" style="fill: none; stroke: #75505b; stroke-width: 1; stroke-opacity: 1.00; stroke-linecap: round; stroke-linejoin: round;" id="ezcGraphLine_93"/><path d=" M 159.8571,232.4880 L 159.8571,226.4880 L 165.8571,226.4880 L 165.8571,232.4880 L 159.8571,232.4880 z " style="fill: #3465a4; fill-opacity: 1.00; stroke: none; cursor: pointer;" id="ezcGraphPolygon_95" onclick="top.location = 'https://bsd-hardware.info/?view=computers&amp;f=os_de&amp;v=helloDesktop&amp;p=99&amp;p=87'"/><path d=" M 205.5714,326.5344 L 205.5714,320.5344 L 211.5714,320.5344 L 211.5714,326.5344 L 205.5714,326.5344 z " style="fill: #3465a4; fill-opacity: 1.00; stroke: none; cursor: pointer;" id="ezcGraphPolygon_96" onclick="top.location = 'https://bsd-hardware.info/?view=computers&amp;f=os_de&amp;v=helloDesktop&amp;p=99&amp;p=89'"/><path d=" M 251.2857,252.4464 L 251.2857,246.4464 L 257.2857,246.4464 L 257.2857,252.4464 L 251.2857,252.4464 z " style="fill: #3465a4; fill-opacity: 1.00; stroke: none; cursor: pointer;" id="ezcGraphPolygon_97" onclick="top.location = 'https://bsd-hardware.info/?view=computers&amp;f=os_de&amp;v=helloDesktop&amp;p=99&amp;p=91'"/><path d=" M 297.0000,305.9712 L 297.0000,299.9712 L 303.0000,299.9712 L 303.0000,305.9712 L 297.0000,305.9712 z " style="fill: #3465a4; fill-opacity: 1.00; stroke: none; cursor: pointer;" id="ezcGraphPolygon_98" onclick="top.location = 'https://bsd-hardware.info/?view=computers&amp;f=os_de&amp;v=helloDesktop&amp;p=99&amp;p=93'"/><path d=" M 342.7143,282.3840 L 342.7143,276.3840 L 348.7143,276.3840 L 348.7143,282.3840 L 342.7143,282.3840 z " style="fill: #3465a4; fill-opacity: 1.00; stroke: none; cursor: pointer;" id="ezcGraphPolygon_99" onclick="top.location = 'https://bsd-hardware.info/?view=computers&amp;f=os_de&amp;v=helloDesktop&amp;p=99&amp;p=95'"/><path d=" M 388.4286,214.0416 L 388.4286,208.0416 L 394.4286,208.0416 L 394.4286,214.0416 L 388.4286,214.0416 z " style="fill: #3465a4; fill-opacity: 1.00; stroke: none; cursor: pointer;" id="ezcGraphPolygon_100" onclick="top.location = 'https://bsd-hardware.info/?view=computers&amp;f=os_de&amp;v=helloDesktop&amp;p=99&amp;p=97'"/><path d=" M 434.1429,237.9312 L 434.1429,231.9312 L 440.1429,231.9312 L 440.1429,237.9312 L 434.1429,237.9312 z " style="fill: #3465a4; fill-opacity: 1.00; stroke: none; cursor: pointer;" id="ezcGraphPolygon_101" onclick="top.location = 'https://bsd-hardware.info/?view=computers&amp;f=os_de&amp;v=helloDesktop&amp;p=99&amp;p=99'"/><path d=" M 159.8571,243.9792 L 159.8571,237.9792 L 165.8571,237.9792 L 165.8571,243.9792 L 159.8571,243.9792 z " style="fill: #4e9a06; fill-opacity: 1.00; stroke: none; cursor: pointer;" id="ezcGraphPolygon_102" onclick="top.location = 'https://bsd-hardware.info/?view=computers&amp;f=os_de&amp;v=&amp;p=99&amp;p=87'"/><path d=" M 205.5714,166.8672 L 205.5714,160.8672 L 211.5714,160.8672 L 211.5714,166.8672 L 205.5714,166.8672 z " style="fill: #4e9a06; fill-opacity: 1.00; stroke: none; cursor: pointer;" id="ezcGraphPolygon_103" onclick="top.location = 'https://bsd-hardware.info/?view=computers&amp;f=os_de&amp;v=&amp;p=99&amp;p=89'"/><path d=" M 251.2857,224.9280 L 251.2857,218.9280 L 257.2857,218.9280 L 257.2857,224.9280 L 251.2857,224.9280 z " style="fill: #4e9a06; fill-opacity: 1.00; stroke: none; cursor: pointer;" id="ezcGraphPolygon_104" onclick="top.location = 'https://bsd-hardware.info/?view=computers&amp;f=os_de&amp;v=&amp;p=99&amp;p=91'"/><path d=" M 297.0000,176.8464 L 297.0000,170.8464 L 303.0000,170.8464 L 303.0000,176.8464 L 297.0000,176.8464 z " style="fill: #4e9a06; fill-opacity: 1.00; stroke: none; cursor: pointer;" id="ezcGraphPolygon_105" onclick="top.location = 'https://bsd-hardware.info/?view=computers&amp;f=os_de&amp;v=&amp;p=99&amp;p=93'"/><path d=" M 342.7143,197.7120 L 342.7143,191.7120 L 348.7143,191.7120 L 348.7143,197.7120 L 342.7143,197.7120 z " style="fill: #4e9a06; fill-opacity: 1.00; stroke: none; cursor: pointer;" id="ezcGraphPolygon_106" onclick="top.location = 'https://bsd-hardware.info/?view=computers&amp;f=os_de&amp;v=&amp;p=99&amp;p=95'"/><path d=" M 388.4286,262.1232 L 388.4286,256.1232 L 394.4286,256.1232 L 394.4286,262.1232 L 388.4286,262.1232 z " style="fill: #4e9a06; fill-opacity: 1.00; stroke: none; cursor: pointer;" id="ezcGraphPolygon_107" onclick="top.location = 'https://bsd-hardware.info/?view=computers&amp;f=os_de&amp;v=&amp;p=99&amp;p=97'"/><path d=" M 434.1429,237.9312 L 434.1429,231.9312 L 440.1429,231.9312 L 440.1429,237.9312 L 434.1429,237.9312 z " style="fill: #4e9a06; fill-opacity: 1.00; stroke: none; cursor: pointer;" id="ezcGraphPolygon_108" onclick="top.location = 'https://bsd-hardware.info/?view=computers&amp;f=os_de&amp;v=&amp;p=99&amp;p=99'"/><path d=" M 342.7143,379.1520 L 342.7143,373.1520 L 348.7143,373.1520 L 348.7143,379.1520 L 342.7143,379.1520 z " style="fill: #cc0000; fill-opacity: 1.00; stroke: none; cursor: pointer;" id="ezcGraphPolygon_109" onclick="top.location = 'https://bsd-hardware.info/?view=computers&amp;f=os_de&amp;v=XFCE&amp;p=99&amp;p=95'"/><path d=" M 434.1429,381.2688 L 434.1429,375.2688 L 440.1429,375.2688 L 440.1429,381.2688 L 434.1429,381.2688 z " style="fill: #cc0000; fill-opacity: 1.00; stroke: none; cursor: pointer;" id="ezcGraphPolygon_110" onclick="top.location = 'https://bsd-hardware.info/?view=computers&amp;f=os_de&amp;v=XFCE&amp;p=99&amp;p=99'"/><path d=" M 434.1429,381.2688 L 434.1429,375.2688 L 440.1429,375.2688 L 440.1429,381.2688 L 434.1429,381.2688 z " style="fill: #edd400; fill-opacity: 1.00; stroke: none; cursor: pointer;" id="ezcGraphPolygon_111" onclick="top.location = 'https://bsd-hardware.info/?view=computers&amp;f=os_de&amp;v=LXQt&amp;p=99&amp;p=99'"/><path d=" M 159.8571,376.4304 L 159.8571,370.4304 L 165.8571,370.4304 L 165.8571,376.4304 L 159.8571,376.4304 z " style="fill: #75505b; fill-opacity: 1.00; stroke: none;" id="ezcGraphPolygon_112"/><path d=" M 205.5714,360.1008 L 205.5714,354.1008 L 211.5714,354.1008 L 211.5714,360.1008 L 205.5714,360.1008 z " style="fill: #75505b; fill-opacity: 1.00; stroke: none;" id="ezcGraphPolygon_113"/><path d=" M 251.2857,376.1280 L 251.2857,370.1280 L 257.2857,370.1280 L 257.2857,376.1280 L 251.2857,376.1280 z " style="fill: #75505b; fill-opacity: 1.00; stroke: none;" id="ezcGraphPolygon_114"/><path d=" M 297.0000,370.3824 L 297.0000,364.3824 L 303.0000,364.3824 L 303.0000,370.3824 L 297.0000,370.3824 z " style="fill: #75505b; fill-opacity: 1.00; stroke: none;" id="ezcGraphPolygon_115"/><path d=" M 342.7143,379.1520 L 342.7143,373.1520 L 348.7143,373.1520 L 348.7143,379.1520 L 342.7143,379.1520 z " style="fill: #75505b; fill-opacity: 1.00; stroke: none;" id="ezcGraphPolygon_116"/><path d=" M 388.4286,377.0352 L 388.4286,371.0352 L 394.4286,371.0352 L 394.4286,377.0352 L 388.4286,377.0352 z " style="fill: #75505b; fill-opacity: 1.00; stroke: none;" id="ezcGraphPolygon_117"/><g id="ezcGraphTextBox_3"><path d=" M 228.3000,42.0000 L 228.3000,0.5000 L 272.2000,0.5000 L 272.2000,42.0000 L 228.3000,42.0000 z " style="fill: #ffffff; fill-opacity: 0.00; stroke: none;" id="ezcGraphPolygon_118"/><text id="ezcGraphTextBox_3_text" x="228.8000" text-length="42.4000px" y="35.0000" style="font-size: 40px; font-family: 'Arial'; fill: #2e3436; fill-opacity: 1.00; stroke: none;">DE</text></g><g id="ezcGraphTextBox_6" style=" cursor: pointer;" onclick="top.location = 'https://bsd-hardware.info/?view=computers&amp;f=os_de&amp;v=helloDesktop&amp;p=99'"><path d=" M 16.5000,58.0000 L 16.5000,44.5000 L 94.3200,44.5000 L 94.3200,58.0000 L 16.5000,58.0000 z " style="fill: #ffffff; fill-opacity: 0.00; stroke: none;" id="ezcGraphPolygon_119"/><text id="ezcGraphTextBox_6_text" x="17.0000" text-length="76.3200px" y="55.2000" style="font-size: 12px; font-family: 'Arial'; fill: #2e3436; fill-opacity: 1.00; stroke: none;">helloDesktop</text></g><g id="ezcGraphTextBox_8" style=" cursor: pointer;" onclick="top.location = 'https://bsd-hardware.info/?view=computers&amp;f=os_de&amp;v=&amp;p=99'"><path d=" M 16.5000,76.0000 L 16.5000,62.5000 L 62.5200,62.5000 L 62.5200,76.0000 L 16.5000,76.0000 z " style="fill: #ffffff; fill-opacity: 0.00; stroke: none;" id="ezcGraphPolygon_120"/><text id="ezcGraphTextBox_8_text" x="17.0000" text-length="44.5200px" y="73.2000" style="font-size: 12px; font-family: 'Arial'; fill: #2e3436; fill-opacity: 1.00; stroke: none;">Console</text></g><g id="ezcGraphTextBox_10" style=" cursor: pointer;" onclick="top.location = 'https://bsd-hardware.info/?view=computers&amp;f=os_de&amp;v=XFCE&amp;p=99'"><path d=" M 16.5000,94.0000 L 16.5000,80.5000 L 43.4400,80.5000 L 43.4400,94.0000 L 16.5000,94.0000 z " style="fill: #ffffff; fill-opacity: 0.00; stroke: none;" id="ezcGraphPolygon_121"/><text id="ezcGraphTextBox_10_text" x="17.0000" text-length="25.4400px" y="91.2000" style="font-size: 12px; font-family: 'Arial'; fill: #2e3436; fill-opacity: 1.00; stroke: none;">XFCE</text></g><g id="ezcGraphTextBox_12" style=" cursor: pointer;" onclick="top.location = 'https://bsd-hardware.info/?view=computers&amp;f=os_de&amp;v=LXQt&amp;p=99'"><path d=" M 16.5000,112.0000 L 16.5000,98.5000 L 43.4400,98.5000 L 43.4400,112.0000 L 16.5000,112.0000 z " style="fill: #ffffff; fill-opacity: 0.00; stroke: none;" id="ezcGraphPolygon_122"/><text id="ezcGraphTextBox_12_text" x="17.0000" text-length="25.4400px" y="109.2000" style="font-size: 12px; font-family: 'Arial'; fill: #2e3436; fill-opacity: 1.00; stroke: none;">LXQt</text></g><g id="ezcGraphTextBox_14"><path d=" M 16.5000,130.0000 L 16.5000,116.5000 L 56.1600,116.5000 L 56.1600,130.0000 L 16.5000,130.0000 z " style="fill: #ffffff; fill-opacity: 0.00; stroke: none;" id="ezcGraphPolygon_123"/><text id="ezcGraphTextBox_14_text" x="17.0000" text-length="38.1600px" y="127.2000" style="font-size: 12px; font-family: 'Arial'; fill: #2e3436; fill-opacity: 1.00; stroke: none;">Others</text></g><g id="ezcGraphTextBox_17" transform="rotate( 0.00 493.0000 375.2000 )"><path d=" M 460.4000,381.2000 L 460.4000,365.7000 L 499.0000,365.7000 L 499.0000,381.2000 L 460.4000,381.2000 z " style="fill: #ffffff; fill-opacity: 0.00; stroke: none;" id="ezcGraphPolygon_124"/><text id="ezcGraphTextBox_17_text" x="460.9000" text-length="37.1000px" y="378.1000" style="font-size: 14px; font-family: 'Arial'; fill: #2e3436; fill-opacity: 1.00; stroke: none;">Time </text></g><g id="ezcGraphTextBox_18"><path d=" M 144.9971,413.3000 L 144.9971,383.7000 L 181.2171,383.7000 L 181.2171,413.3000 L 144.9971,413.3000 z " style="fill: #ffffff; fill-opacity: 0.00; stroke: none;" id="ezcGraphPolygon_125"/><text id="ezcGraphTextBox_18_text" x="151.7271" text-length="22.2600px" y="396.1000" style="font-size: 14px; font-family: 'Arial'; fill: #2e3436; fill-opacity: 1.00; stroke: none;">Mar</text><text id="ezcGraphTextBox_18_text" x="145.4971" text-length="34.7200px" y="411.5000" style="font-size: 14px; font-family: 'Arial'; fill: #2e3436; fill-opacity: 1.00; stroke: none;">2021</text></g><g id="ezcGraphTextBox_21"><path d=" M 190.7114,413.3000 L 190.7114,383.7000 L 226.9314,383.7000 L 226.9314,413.3000 L 190.7114,413.3000 z " style="fill: #ffffff; fill-opacity: 0.00; stroke: none;" id="ezcGraphPolygon_126"/><text id="ezcGraphTextBox_21_text" x="197.4414" text-length="22.2600px" y="396.1000" style="font-size: 14px; font-family: 'Arial'; fill: #2e3436; fill-opacity: 1.00; stroke: none;">May</text><text id="ezcGraphTextBox_21_text" x="191.2114" text-length="34.7200px" y="411.5000" style="font-size: 14px; font-family: 'Arial'; fill: #2e3436; fill-opacity: 1.00; stroke: none;">2021</text></g><g id="ezcGraphTextBox_24"><path d=" M 236.4257,413.3000 L 236.4257,383.7000 L 272.6457,383.7000 L 272.6457,413.3000 L 236.4257,413.3000 z " style="fill: #ffffff; fill-opacity: 0.00; stroke: none;" id="ezcGraphPolygon_127"/><text id="ezcGraphTextBox_24_text" x="243.1557" text-length="22.2600px" y="396.1000" style="font-size: 14px; font-family: 'Arial'; fill: #2e3436; fill-opacity: 1.00; stroke: none;">Jul</text><text id="ezcGraphTextBox_24_text" x="236.9257" text-length="34.7200px" y="411.5000" style="font-size: 14px; font-family: 'Arial'; fill: #2e3436; fill-opacity: 1.00; stroke: none;">2021</text></g><g id="ezcGraphTextBox_27"><path d=" M 282.1400,413.3000 L 282.1400,383.7000 L 318.3600,383.7000 L 318.3600,413.3000 L 282.1400,413.3000 z " style="fill: #ffffff; fill-opacity: 0.00; stroke: none;" id="ezcGraphPolygon_128"/><text id="ezcGraphTextBox_27_text" x="288.8700" text-length="22.2600px" y="396.1000" style="font-size: 14px; font-family: 'Arial'; fill: #2e3436; fill-opacity: 1.00; stroke: none;">Sep</text><text id="ezcGraphTextBox_27_text" x="282.6400" text-length="34.7200px" y="411.5000" style="font-size: 14px; font-family: 'Arial'; fill: #2e3436; fill-opacity: 1.00; stroke: none;">2021</text></g><g id="ezcGraphTextBox_30"><path d=" M 327.8543,413.3000 L 327.8543,383.7000 L 364.0743,383.7000 L 364.0743,413.3000 L 327.8543,413.3000 z " style="fill: #ffffff; fill-opacity: 0.00; stroke: none;" id="ezcGraphPolygon_129"/><text id="ezcGraphTextBox_30_text" x="334.5843" text-length="22.2600px" y="396.1000" style="font-size: 14px; font-family: 'Arial'; fill: #2e3436; fill-opacity: 1.00; stroke: none;">Nov</text><text id="ezcGraphTextBox_30_text" x="328.3543" text-length="34.7200px" y="411.5000" style="font-size: 14px; font-family: 'Arial'; fill: #2e3436; fill-opacity: 1.00; stroke: none;">2021</text></g><g id="ezcGraphTextBox_33"><path d=" M 373.5686,413.3000 L 373.5686,383.7000 L 409.7886,383.7000 L 409.7886,413.3000 L 373.5686,413.3000 z " style="fill: #ffffff; fill-opacity: 0.00; stroke: none;" id="ezcGraphPolygon_130"/><text id="ezcGraphTextBox_33_text" x="380.2986" text-length="22.2600px" y="396.1000" style="font-size: 14px; font-family: 'Arial'; fill: #2e3436; fill-opacity: 1.00; stroke: none;">Jan</text><text id="ezcGraphTextBox_33_text" x="374.0686" text-length="34.7200px" y="411.5000" style="font-size: 14px; font-family: 'Arial'; fill: #2e3436; fill-opacity: 1.00; stroke: none;">2022</text></g><g id="ezcGraphTextBox_36"><path d=" M 419.2829,413.3000 L 419.2829,383.7000 L 455.5029,383.7000 L 455.5029,413.3000 L 419.2829,413.3000 z " style="fill: #ffffff; fill-opacity: 0.00; stroke: none;" id="ezcGraphPolygon_131"/><text id="ezcGraphTextBox_36_text" x="426.0129" text-length="22.2600px" y="396.1000" style="font-size: 14px; font-family: 'Arial'; fill: #2e3436; fill-opacity: 1.00; stroke: none;">Mar</text><text id="ezcGraphTextBox_36_text" x="419.7829" text-length="34.7200px" y="411.5000" style="font-size: 14px; font-family: 'Arial'; fill: #2e3436; fill-opacity: 1.00; stroke: none;">2022</text></g><g id="ezcGraphTextBox_41" transform="rotate( 0.00 147.0000 49.0000 )"><path d=" M 141.5000,59.0000 L 141.5000,43.5000 L 291.4000,43.5000 L 291.4000,59.0000 L 141.5000,59.0000 z " style="fill: #ffffff; fill-opacity: 0.00; stroke: none;" id="ezcGraphPolygon_132"/><text id="ezcGraphTextBox_41_text" x="142.0000" text-length="148.4000px" y="55.9000" style="font-size: 14px; font-family: 'Arial'; fill: #2e3436; fill-opacity: 1.00; stroke: none;">Computers by DE in %</text></g><g id="ezcGraphTextBox_42"><path d=" M 128.8200,381.2000 L 128.8200,365.7000 L 139.0000,365.7000 L 139.0000,381.2000 L 128.8200,381.2000 z " style="fill: #ffffff; fill-opacity: 0.00; stroke: none;" id="ezcGraphPolygon_133"/><text id="ezcGraphTextBox_42_text" x="129.3200" text-length="8.6800px" y="378.1000" style="font-size: 14px; font-family: 'Arial'; fill: #2e3436; fill-opacity: 1.00; stroke: none;">0</text></g><g id="ezcGraphTextBox_45"><path d=" M 120.1400,230.0000 L 120.1400,214.5000 L 139.0000,214.5000 L 139.0000,230.0000 L 120.1400,230.0000 z " style="fill: #ffffff; fill-opacity: 0.00; stroke: none;" id="ezcGraphPolygon_134"/><text id="ezcGraphTextBox_45_text" x="120.6400" text-length="17.3600px" y="226.9000" style="font-size: 14px; font-family: 'Arial'; fill: #2e3436; fill-opacity: 1.00; stroke: none;">50</text></g><g id="ezcGraphTextBox_48"><path d=" M 111.4600,96.8000 L 111.4600,81.3000 L 139.0000,81.3000 L 139.0000,96.8000 L 111.4600,96.8000 z " style="fill: #ffffff; fill-opacity: 0.00; stroke: none;" id="ezcGraphPolygon_135"/><text id="ezcGraphTextBox_48_text" x="111.9600" text-length="26.0400px" y="93.7000" style="font-size: 14px; font-family: 'Arial'; fill: #2e3436; fill-opacity: 1.00; stroke: none;">100</text></g><g id="ezcGraphTextBox_50"><path d=" M 149.9571,224.4880 L 149.9571,212.9880 L 176.2571,212.9880 L 176.2571,224.4880 L 149.9571,224.4880 z " style="fill: #ffffff; fill-opacity: 0.00; stroke: none;" id="ezcGraphPolygon_136"/><text id="ezcGraphTextBox_50_text" x="150.4571" text-length="24.8000px" y="221.9880" style="font-size: 10px; font-family: 'Arial'; fill: #2e3436; fill-opacity: 1.00; stroke: none;">50.5</text></g><g id="ezcGraphTextBox_52"><path d=" M 195.6714,318.5344 L 195.6714,307.0344 L 221.9714,307.0344 L 221.9714,318.5344 L 195.6714,318.5344 z " style="fill: #ffffff; fill-opacity: 0.00; stroke: none;" id="ezcGraphPolygon_137"/><text id="ezcGraphTextBox_52_text" x="196.1714" text-length="24.8000px" y="316.0344" style="font-size: 10px; font-family: 'Arial'; fill: #2e3436; fill-opacity: 1.00; stroke: none;">19.4</text></g><g id="ezcGraphTextBox_54"><path d=" M 241.3857,244.4464 L 241.3857,232.9464 L 267.6857,232.9464 L 267.6857,244.4464 L 241.3857,244.4464 z " style="fill: #ffffff; fill-opacity: 0.00; stroke: none;" id="ezcGraphPolygon_138"/><text id="ezcGraphTextBox_54_text" x="241.8857" text-length="24.8000px" y="241.9464" style="font-size: 10px; font-family: 'Arial'; fill: #2e3436; fill-opacity: 1.00; stroke: none;">43.9</text></g><g id="ezcGraphTextBox_56"><path d=" M 287.1000,297.9712 L 287.1000,286.4712 L 313.4000,286.4712 L 313.4000,297.9712 L 287.1000,297.9712 z " style="fill: #ffffff; fill-opacity: 0.00; stroke: none;" id="ezcGraphPolygon_139"/><text id="ezcGraphTextBox_56_text" x="287.6000" text-length="24.8000px" y="295.4712" style="font-size: 10px; font-family: 'Arial'; fill: #2e3436; fill-opacity: 1.00; stroke: none;">26.2</text></g><g id="ezcGraphTextBox_58"><path d=" M 339.0143,274.3840 L 339.0143,262.8840 L 352.9143,262.8840 L 352.9143,274.3840 L 339.0143,274.3840 z " style="fill: #ffffff; fill-opacity: 0.00; stroke: none;" id="ezcGraphPolygon_140"/><text id="ezcGraphTextBox_58_text" x="339.5143" text-length="12.4000px" y="271.8840" style="font-size: 10px; font-family: 'Arial'; fill: #2e3436; fill-opacity: 1.00; stroke: none;">34</text></g><g id="ezcGraphTextBox_60"><path d=" M 378.5286,206.0416 L 378.5286,194.5416 L 404.8286,194.5416 L 404.8286,206.0416 L 378.5286,206.0416 z " style="fill: #ffffff; fill-opacity: 0.00; stroke: none;" id="ezcGraphPolygon_141"/><text id="ezcGraphTextBox_60_text" x="379.0286" text-length="24.8000px" y="203.5416" style="font-size: 10px; font-family: 'Arial'; fill: #2e3436; fill-opacity: 1.00; stroke: none;">56.6</text></g><g id="ezcGraphTextBox_62"><path d=" M 424.2429,229.9312 L 424.2429,218.4312 L 450.5429,218.4312 L 450.5429,229.9312 L 424.2429,229.9312 z " style="fill: #ffffff; fill-opacity: 0.00; stroke: none;" id="ezcGraphPolygon_142"/><text id="ezcGraphTextBox_62_text" x="424.7429" text-length="24.8000px" y="227.4312" style="font-size: 10px; font-family: 'Arial'; fill: #2e3436; fill-opacity: 1.00; stroke: none;">48.7</text></g><g id="ezcGraphTextBox_64"><path d=" M 149.9571,235.9792 L 149.9571,224.4792 L 176.2571,224.4792 L 176.2571,235.9792 L 149.9571,235.9792 z " style="fill: #ffffff; fill-opacity: 0.00; stroke: none;" id="ezcGraphPolygon_143"/><text id="ezcGraphTextBox_64_text" x="150.4571" text-length="24.8000px" y="233.4792" style="font-size: 10px; font-family: 'Arial'; fill: #2e3436; fill-opacity: 1.00; stroke: none;">46.7</text></g><g id="ezcGraphTextBox_66"><path d=" M 195.6714,158.8672 L 195.6714,147.3672 L 221.9714,147.3672 L 221.9714,158.8672 L 195.6714,158.8672 z " style="fill: #ffffff; fill-opacity: 0.00; stroke: none;" id="ezcGraphPolygon_144"/><text id="ezcGraphTextBox_66_text" x="196.1714" text-length="24.8000px" y="156.3672" style="font-size: 10px; font-family: 'Arial'; fill: #2e3436; fill-opacity: 1.00; stroke: none;">72.2</text></g><g id="ezcGraphTextBox_68"><path d=" M 247.5857,216.9280 L 247.5857,205.4280 L 261.4857,205.4280 L 261.4857,216.9280 L 247.5857,216.9280 z " style="fill: #ffffff; fill-opacity: 0.00; stroke: none;" id="ezcGraphPolygon_145"/><text id="ezcGraphTextBox_68_text" x="248.0857" text-length="12.4000px" y="214.4280" style="font-size: 10px; font-family: 'Arial'; fill: #2e3436; fill-opacity: 1.00; stroke: none;">53</text></g><g id="ezcGraphTextBox_70"><path d=" M 287.1000,168.8464 L 287.1000,157.3464 L 313.4000,157.3464 L 313.4000,168.8464 L 287.1000,168.8464 z " style="fill: #ffffff; fill-opacity: 0.00; stroke: none;" id="ezcGraphPolygon_146"/><text id="ezcGraphTextBox_70_text" x="287.6000" text-length="24.8000px" y="166.3464" style="font-size: 10px; font-family: 'Arial'; fill: #2e3436; fill-opacity: 1.00; stroke: none;">68.9</text></g><g id="ezcGraphTextBox_72"><path d=" M 339.0143,189.7120 L 339.0143,178.2120 L 352.9143,178.2120 L 352.9143,189.7120 L 339.0143,189.7120 z " style="fill: #ffffff; fill-opacity: 0.00; stroke: none;" id="ezcGraphPolygon_147"/><text id="ezcGraphTextBox_72_text" x="339.5143" text-length="12.4000px" y="187.2120" style="font-size: 10px; font-family: 'Arial'; fill: #2e3436; fill-opacity: 1.00; stroke: none;">62</text></g><g id="ezcGraphTextBox_74"><path d=" M 378.5286,254.1232 L 378.5286,242.6232 L 404.8286,242.6232 L 404.8286,254.1232 L 378.5286,254.1232 z " style="fill: #ffffff; fill-opacity: 0.00; stroke: none;" id="ezcGraphPolygon_148"/><text id="ezcGraphTextBox_74_text" x="379.0286" text-length="24.8000px" y="251.6232" style="font-size: 10px; font-family: 'Arial'; fill: #2e3436; fill-opacity: 1.00; stroke: none;">40.7</text></g><g id="ezcGraphTextBox_76"><path d=" M 424.2429,229.9312 L 424.2429,218.4312 L 450.5429,218.4312 L 450.5429,229.9312 L 424.2429,229.9312 z " style="fill: #ffffff; fill-opacity: 0.00; stroke: none;" id="ezcGraphPolygon_149"/><text id="ezcGraphTextBox_76_text" x="424.7429" text-length="24.8000px" y="227.4312" style="font-size: 10px; font-family: 'Arial'; fill: #2e3436; fill-opacity: 1.00; stroke: none;">48.7</text></g><g id="ezcGraphTextBox_78"><path d=" M 342.1143,371.1520 L 342.1143,359.6520 L 349.8143,359.6520 L 349.8143,371.1520 L 342.1143,371.1520 z " style="fill: #ffffff; fill-opacity: 0.00; stroke: none;" id="ezcGraphPolygon_150"/><text id="ezcGraphTextBox_78_text" x="342.6143" text-length="6.2000px" y="368.6520" style="font-size: 10px; font-family: 'Arial'; fill: #2e3436; fill-opacity: 1.00; stroke: none;">2</text></g><g id="ezcGraphTextBox_80"><path d=" M 427.3429,373.2688 L 427.3429,361.7688 L 447.4429,361.7688 L 447.4429,373.2688 L 427.3429,373.2688 z " style="fill: #ffffff; fill-opacity: 0.00; stroke: none;" id="ezcGraphPolygon_151"/><text id="ezcGraphTextBox_80_text" x="427.8429" text-length="18.6000px" y="370.7688" style="font-size: 10px; font-family: 'Arial'; fill: #2e3436; fill-opacity: 1.00; stroke: none;">1.3</text></g><g id="ezcGraphTextBox_82"><path d=" M 427.3429,373.2688 L 427.3429,361.7688 L 447.4429,361.7688 L 447.4429,373.2688 L 427.3429,373.2688 z " style="fill: #ffffff; fill-opacity: 0.00; stroke: none;" id="ezcGraphPolygon_152"/><text id="ezcGraphTextBox_82_text" x="427.8429" text-length="18.6000px" y="370.7688" style="font-size: 10px; font-family: 'Arial'; fill: #2e3436; fill-opacity: 1.00; stroke: none;">1.3</text></g><g id="ezcGraphTextBox_84"><path d=" M 153.0571,368.4304 L 153.0571,356.9304 L 173.1571,356.9304 L 173.1571,368.4304 L 153.0571,368.4304 z " style="fill: #ffffff; fill-opacity: 0.00; stroke: none;" id="ezcGraphPolygon_153"/><text id="ezcGraphTextBox_84_text" x="153.5571" text-length="18.6000px" y="365.9304" style="font-size: 10px; font-family: 'Arial'; fill: #2e3436; fill-opacity: 1.00; stroke: none;">2.9</text></g><g id="ezcGraphTextBox_86"><path d=" M 198.7714,352.1008 L 198.7714,340.6008 L 218.8714,340.6008 L 218.8714,352.1008 L 198.7714,352.1008 z " style="fill: #ffffff; fill-opacity: 0.00; stroke: none;" id="ezcGraphPolygon_154"/><text id="ezcGraphTextBox_86_text" x="199.2714" text-length="18.6000px" y="349.6008" style="font-size: 10px; font-family: 'Arial'; fill: #2e3436; fill-opacity: 1.00; stroke: none;">8.3</text></g><g id="ezcGraphTextBox_88"><path d=" M 250.6857,368.1280 L 250.6857,356.6280 L 258.3857,356.6280 L 258.3857,368.1280 L 250.6857,368.1280 z " style="fill: #ffffff; fill-opacity: 0.00; stroke: none;" id="ezcGraphPolygon_155"/><text id="ezcGraphTextBox_88_text" x="251.1857" text-length="6.2000px" y="365.6280" style="font-size: 10px; font-family: 'Arial'; fill: #2e3436; fill-opacity: 1.00; stroke: none;">3</text></g><g id="ezcGraphTextBox_90"><path d=" M 290.2000,362.3824 L 290.2000,350.8824 L 310.3000,350.8824 L 310.3000,362.3824 L 290.2000,362.3824 z " style="fill: #ffffff; fill-opacity: 0.00; stroke: none;" id="ezcGraphPolygon_156"/><text id="ezcGraphTextBox_90_text" x="290.7000" text-length="18.6000px" y="359.8824" style="font-size: 10px; font-family: 'Arial'; fill: #2e3436; fill-opacity: 1.00; stroke: none;">4.9</text></g><g id="ezcGraphTextBox_92"><path d=" M 342.1143,371.1520 L 342.1143,359.6520 L 349.8143,359.6520 L 349.8143,371.1520 L 342.1143,371.1520 z " style="fill: #ffffff; fill-opacity: 0.00; stroke: none;" id="ezcGraphPolygon_157"/><text id="ezcGraphTextBox_92_text" x="342.6143" text-length="6.2000px" y="368.6520" style="font-size: 10px; font-family: 'Arial'; fill: #2e3436; fill-opacity: 1.00; stroke: none;">2</text></g><g id="ezcGraphTextBox_94"><path d=" M 381.6286,369.0352 L 381.6286,357.5352 L 401.7286,357.5352 L 401.7286,369.0352 L 381.6286,369.0352 z " style="fill: #ffffff; fill-opacity: 0.00; stroke: none;" id="ezcGraphPolygon_158"/><text id="ezcGraphTextBox_94_text" x="382.1286" text-length="18.6000px" y="366.5352" style="font-size: 10px; font-family: 'Arial'; fill: #2e3436; fill-opacity: 1.00; stroke: none;">2.7</text></g></g></svg>
